libre-caslon-text_bold.sfdir
StartChar: exclam
Encoding: 33 33 244
Width: 327
Flags: W
LayerCount: 2
Back
Fore
SplineSet
133 230 m 1,0,1
 133 289 133 289 124.5 352.5 c 128,-1,2
 116 416 116 416 101 489 c 0,3,4
 93 528 93 528 87.5 558 c 128,-1,5
 82 588 82 588 79 612 c 128,-1,6
 76 636 76 636 74.5 655 c 128,-1,7
 73 674 73 674 73 691 c 0,8,9
 73 729 73 729 97 754.5 c 128,-1,10
 121 780 121 780 164 780 c 0,11,12
 212 780 212 780 233 754.5 c 128,-1,13
 254 729 254 729 254 694 c 0,14,15
 254 675 254 675 252.5 655 c 128,-1,16
 251 635 251 635 247.5 610.5 c 128,-1,17
 244 586 244 586 238.5 556 c 128,-1,18
 233 526 233 526 225 486 c 0,19,20
 210 414 210 414 202 351 c 128,-1,21
 194 288 194 288 194 230 c 1,22,-1
 133 230 l 1,0,1
76 72 m 0,23,24
 76 105 76 105 98.5 130 c 128,-1,25
 121 155 121 155 162 155 c 0,26,27
 204 155 204 155 227.5 130 c 128,-1,28
 251 105 251 105 251 72 c 0,29,30
 251 41 251 41 228.5 15.5 c 128,-1,31
 206 -10 206 -10 162 -10 c 0,32,33
 120 -10 120 -10 98 15.5 c 128,-1,34
 76 41 76 41 76 72 c 0,23,24
EndSplineSet
EndChar
StartChar: quotedbl
Encoding: 34 34 396
Width: 374
Flags: W
LayerCount: 2
Back
Fore
SplineSet
85 505 m 1,0,1
 84 548 84 548 78 587 c 128,-1,2
 72 626 72 626 65 658.5 c 128,-1,3
 58 691 58 691 52.5 717 c 128,-1,4
 47 743 47 743 47 760 c 0,5,6
 47 792 47 792 64 811 c 128,-1,7
 81 830 81 830 110 830 c 0,8,9
 142 830 142 830 157.5 811.5 c 128,-1,10
 173 793 173 793 173 764 c 0,11,12
 173 746 173 746 167.5 719.5 c 128,-1,13
 162 693 162 693 155.5 660 c 128,-1,14
 149 627 149 627 142.5 587.5 c 128,-1,15
 136 548 136 548 135 505 c 1,16,-1
 85 505 l 1,0,1
239 505 m 1,17,18
 238 548 238 548 232 587 c 128,-1,19
 226 626 226 626 219 658.5 c 128,-1,20
 212 691 212 691 206.5 717 c 128,-1,21
 201 743 201 743 201 760 c 0,22,23
 201 792 201 792 218 811 c 128,-1,24
 235 830 235 830 264 830 c 0,25,26
 296 830 296 830 311.5 811.5 c 128,-1,27
 327 793 327 793 327 764 c 0,28,29
 327 746 327 746 321.5 719.5 c 128,-1,30
 316 693 316 693 309.5 660 c 128,-1,31
 303 627 303 627 296.5 587.5 c 128,-1,32
 290 548 290 548 289 505 c 1,33,-1
 239 505 l 1,17,18
EndSplineSet
Substitution2: "'tnum' Tabular Numbers in Latin lookup 3 subtable" quotedbl.tnum
EndChar
StartChar: numbersign
Encoding: 35 35 347
Width: 667
Flags: W
LayerCount: 2
Back
Fore
SplineSet
519 696 m 1,0,-1
 493 530 l 1,1,-1
 630 530 l 1,2,-1
 618 463 l 1,3,-1
 482 463 l 1,4,-1
 460 323 l 1,5,-1
 594 323 l 1,6,-1
 580 256 l 1,7,-1
 450 256 l 1,8,-1
 424 92 l 1,9,-1
 357 92 l 1,10,-1
 383 256 l 1,11,-1
 244 256 l 1,12,-1
 218 92 l 1,13,-1
 150 92 l 1,14,-1
 176 256 l 1,15,-1
 36 256 l 1,16,-1
 50 323 l 1,17,-1
 186 323 l 1,18,-1
 208 463 l 1,19,-1
 74 463 l 1,20,-1
 86 530 l 1,21,-1
 219 530 l 1,22,-1
 245 696 l 1,23,-1
 313 696 l 1,24,-1
 287 530 l 1,25,-1
 426 530 l 1,26,-1
 452 696 l 1,27,-1
 519 696 l 1,0,-1
254 323 m 1,28,-1
 393 323 l 1,29,-1
 415 463 l 1,30,-1
 276 463 l 1,31,-1
 254 323 l 1,28,-1
EndSplineSet
Substitution2: "'tnum' Tabular Numbers in Latin lookup 3 subtable" numbersign.tnum
EndChar
StartChar: dollar
Encoding: 36 36 211
Width: 565
Flags: W
LayerCount: 2
Back
Fore
SplineSet
319 779 m 1,0,1
 359 777 359 777 394.5 765 c 128,-1,2
 430 753 430 753 455.5 733.5 c 128,-1,3
 481 714 481 714 496 688 c 128,-1,4
 511 662 511 662 511 632 c 0,5,6
 511 605 511 605 495 589 c 128,-1,7
 479 573 479 573 452 573 c 0,8,9
 398 573 398 573 381 641 c 0,10,11
 366 703 366 703 319 717 c 1,12,-1
 319 469 l 1,13,14
 358 449 358 449 395.5 428.5 c 128,-1,15
 433 408 433 408 462 380 c 128,-1,16
 491 352 491 352 509 313 c 128,-1,17
 527 274 527 274 527 218 c 0,18,19
 527 176 527 176 511.5 139 c 128,-1,20
 496 102 496 102 468.5 73 c 128,-1,21
 441 44 441 44 403 24.5 c 128,-1,22
 365 5 365 5 319 -3 c 1,23,-1
 319 -102 l 1,24,-1
 259 -102 l 1,25,-1
 259 -9 l 1,26,27
 214 -9 214 -9 174.5 2.5 c 128,-1,28
 135 14 135 14 105.5 34 c 128,-1,29
 76 54 76 54 59.5 81 c 128,-1,30
 43 108 43 108 43 138 c 0,31,32
 43 167 43 167 60.5 184.5 c 128,-1,33
 78 202 78 202 107 202 c 0,34,35
 162 202 162 202 178 129 c 0,36,37
 194 57 194 57 259 50 c 1,38,-1
 259 317 l 1,39,40
 217 338 217 338 178 359.5 c 128,-1,41
 139 381 139 381 109 409 c 128,-1,42
 79 437 79 437 60.5 475.5 c 128,-1,43
 42 514 42 514 42 568 c 0,44,45
 42 609 42 609 58 644.5 c 128,-1,46
 74 680 74 680 102.5 707 c 128,-1,47
 131 734 131 734 171 752.5 c 128,-1,48
 211 771 211 771 259 777 c 1,49,-1
 259 888 l 1,50,-1
 319 888 l 1,51,-1
 319 779 l 1,0,1
395 149 m 0,52,53
 395 194 395 194 373.5 225 c 128,-1,54
 352 256 352 256 319 280 c 1,55,-1
 319 54 l 1,56,57
 354 63 354 63 374.5 88 c 128,-1,58
 395 113 395 113 395 149 c 0,52,53
187 633 m 0,59,60
 187 588 187 588 207 558 c 128,-1,61
 227 528 227 528 259 505 c 1,62,-1
 259 717 l 1,63,64
 226 709 226 709 206.5 687 c 128,-1,65
 187 665 187 665 187 633 c 0,59,60
EndSplineSet
Substitution2: "'tnum' Tabular Numbers in Latin lookup 3 subtable" dollar.tnum
EndChar
StartChar: percent
Encoding: 37 37 382
Width: 1014
Flags: W
LayerCount: 2
Back
Fore
SplineSet
239 783 m 256,0,1
 282 783 282 783 319 764 c 128,-1,2
 356 745 356 745 384 712.5 c 128,-1,3
 412 680 412 680 428 636.5 c 128,-1,4
 444 593 444 593 444 543 c 256,5,6
 444 493 444 493 428 450 c 128,-1,7
 412 407 412 407 384.5 375 c 128,-1,8
 357 343 357 343 319.5 325 c 128,-1,9
 282 307 282 307 239 307 c 256,10,11
 196 307 196 307 158.5 325 c 128,-1,12
 121 343 121 343 93.5 375 c 128,-1,13
 66 407 66 407 50.5 450 c 128,-1,14
 35 493 35 493 35 543 c 256,15,16
 35 593 35 593 51 637 c 128,-1,17
 67 681 67 681 94.5 713.5 c 128,-1,18
 122 746 122 746 159 764.5 c 128,-1,19
 196 783 196 783 239 783 c 256,0,1
239 742 m 256,20,21
 227 742 227 742 218.5 733.5 c 128,-1,22
 210 725 210 725 205 703 c 128,-1,23
 200 681 200 681 197.5 642 c 128,-1,24
 195 603 195 603 195 543 c 256,25,26
 195 483 195 483 197.5 445 c 128,-1,27
 200 407 200 407 205 385.5 c 128,-1,28
 210 364 210 364 218.5 356.5 c 128,-1,29
 227 349 227 349 239 349 c 256,30,31
 251 349 251 349 260 356.5 c 128,-1,32
 269 364 269 364 274 385.5 c 128,-1,33
 279 407 279 407 281.5 445 c 128,-1,34
 284 483 284 483 284 543 c 256,35,36
 284 603 284 603 281.5 642 c 128,-1,37
 279 681 279 681 274 703 c 128,-1,38
 269 725 269 725 260 733.5 c 128,-1,39
 251 742 251 742 239 742 c 256,20,21
774 466 m 256,40,41
 817 466 817 466 854 447 c 128,-1,42
 891 428 891 428 919 395.5 c 128,-1,43
 947 363 947 363 963 319.5 c 128,-1,44
 979 276 979 276 979 226 c 256,45,46
 979 176 979 176 963 133 c 128,-1,47
 947 90 947 90 919.5 58 c 128,-1,48
 892 26 892 26 854.5 8 c 128,-1,49
 817 -10 817 -10 774 -10 c 256,50,51
 731 -10 731 -10 693.5 8 c 128,-1,52
 656 26 656 26 628.5 58 c 128,-1,53
 601 90 601 90 585.5 133 c 128,-1,54
 570 176 570 176 570 226 c 256,55,56
 570 276 570 276 586 320 c 128,-1,57
 602 364 602 364 629.5 396.5 c 128,-1,58
 657 429 657 429 694 447.5 c 128,-1,59
 731 466 731 466 774 466 c 256,40,41
774 425 m 256,60,61
 762 425 762 425 753.5 416.5 c 128,-1,62
 745 408 745 408 740 386 c 128,-1,63
 735 364 735 364 732.5 325 c 128,-1,64
 730 286 730 286 730 226 c 256,65,66
 730 166 730 166 732.5 128 c 128,-1,67
 735 90 735 90 740 68.5 c 128,-1,68
 745 47 745 47 753.5 39.5 c 128,-1,69
 762 32 762 32 774 32 c 256,70,71
 786 32 786 32 795 39.5 c 128,-1,72
 804 47 804 47 809 68.5 c 128,-1,73
 814 90 814 90 816.5 128 c 128,-1,74
 819 166 819 166 819 226 c 256,75,76
 819 286 819 286 816.5 325 c 128,-1,77
 814 364 814 364 809 386 c 128,-1,78
 804 408 804 408 795 416.5 c 128,-1,79
 786 425 786 425 774 425 c 256,60,61
222 0 m 1,80,-1
 686 770 l 1,81,-1
 791 770 l 1,82,-1
 326 0 l 1,83,-1
 222 0 l 1,80,-1
EndSplineSet
Substitution2: "'tnum' Tabular Numbers in Latin lookup 3 subtable" percent.tnum
EndChar
StartChar: ampersand
Encoding: 38 38 155
Width: 825
Flags: W
LayerCount: 2
Back
Fore
SplineSet
255 428 m 1,0,1
 228 461 228 461 211.5 488.5 c 128,-1,2
 195 516 195 516 186.5 538 c 128,-1,3
 178 560 178 560 175 577.5 c 128,-1,4
 172 595 172 595 172 608 c 0,5,6
 172 649 172 649 190 681 c 128,-1,7
 208 713 208 713 237 735 c 128,-1,8
 266 757 266 757 302 768.5 c 128,-1,9
 338 780 338 780 374 780 c 0,10,11
 407 780 407 780 435 770.5 c 128,-1,12
 463 761 463 761 484 744.5 c 128,-1,13
 505 728 505 728 517 704.5 c 128,-1,14
 529 681 529 681 529 653 c 0,15,16
 529 626 529 626 518 601 c 128,-1,17
 507 576 507 576 489.5 553.5 c 128,-1,18
 472 531 472 531 450 510.5 c 128,-1,19
 428 490 428 490 405 473 c 1,20,-1
 591 244 l 1,21,22
 608 282 608 282 615.5 319.5 c 128,-1,23
 623 357 623 357 623 388 c 0,24,25
 623 403 623 403 620.5 411.5 c 128,-1,26
 618 420 618 420 609.5 425.5 c 128,-1,27
 601 431 601 431 584 434 c 128,-1,28
 567 437 567 437 538 441 c 1,29,-1
 538 483 l 1,30,-1
 793 483 l 1,31,-1
 793 441 l 1,32,33
 763 438 763 438 746 433 c 128,-1,34
 729 428 729 428 719 421 c 128,-1,35
 709 414 709 414 704.5 403 c 128,-1,36
 700 392 700 392 696 377 c 0,37,38
 688 346 688 346 669.5 300 c 128,-1,39
 651 254 651 254 623 205 c 1,40,-1
 737 64 l 1,41,-1
 833 36 l 1,42,-1
 833 0 l 1,43,-1
 604 0 l 1,44,-1
 534 85 l 1,45,46
 504 55 504 55 474 36.5 c 128,-1,47
 444 18 444 18 414.5 7.5 c 128,-1,48
 385 -3 385 -3 355.5 -6.5 c 128,-1,49
 326 -10 326 -10 298 -10 c 0,50,51
 235 -10 235 -10 189.5 4 c 128,-1,52
 144 18 144 18 114.5 43 c 128,-1,53
 85 68 85 68 71 103.5 c 128,-1,54
 57 139 57 139 57 181 c 0,55,56
 57 217 57 217 67.5 245.5 c 128,-1,57
 78 274 78 274 101.5 301.5 c 128,-1,58
 125 329 125 329 162.5 359 c 128,-1,59
 200 389 200 389 255 428 c 1,0,1
202 233 m 0,60,61
 202 201 202 201 212 171 c 128,-1,62
 222 141 222 141 241 117 c 128,-1,63
 260 93 260 93 288 78.5 c 128,-1,64
 316 64 316 64 353 64 c 0,65,66
 389 64 389 64 428 79.5 c 128,-1,67
 467 95 467 95 502 124 c 1,68,-1
 286 390 l 1,69,70
 270 377 270 377 255 361.5 c 128,-1,71
 240 346 240 346 228 326.5 c 128,-1,72
 216 307 216 307 209 284 c 128,-1,73
 202 261 202 261 202 233 c 0,60,61
424 634 m 0,74,75
 424 663 424 663 418.5 682.5 c 128,-1,76
 413 702 413 702 404.5 714 c 128,-1,77
 396 726 396 726 385 731 c 128,-1,78
 374 736 374 736 363 736 c 0,79,80
 340 736 340 736 322.5 717.5 c 128,-1,81
 305 699 305 699 305 658 c 0,82,83
 305 624 305 624 320.5 592 c 128,-1,84
 336 560 336 560 372 514 c 1,85,86
 401 542 401 542 412.5 569.5 c 128,-1,87
 424 597 424 597 424 634 c 0,74,75
EndSplineSet
EndChar
StartChar: quotesingle
Encoding: 39 39 404
Width: 220
Flags: W
LayerCount: 2
Back
Fore
SplineSet
85 505 m 1,0,1
 84 548 84 548 78 587 c 128,-1,2
 72 626 72 626 65 658.5 c 128,-1,3
 58 691 58 691 52.5 717 c 128,-1,4
 47 743 47 743 47 760 c 0,5,6
 47 792 47 792 64 811 c 128,-1,7
 81 830 81 830 110 830 c 0,8,9
 140 830 140 830 156.5 811.5 c 128,-1,10
 173 793 173 793 173 764 c 0,11,12
 173 746 173 746 167.5 719.5 c 128,-1,13
 162 693 162 693 155.5 660 c 128,-1,14
 149 627 149 627 142.5 587.5 c 128,-1,15
 136 548 136 548 135 505 c 1,16,-1
 85 505 l 1,0,1
EndSplineSet
Substitution2: "'tnum' Tabular Numbers in Latin lookup 3 subtable" quotesingle.tnum
EndChar
StartChar: parenleft
Encoding: 40 40 380
Width: 316
Flags: W
LayerCount: 2
Back
Fore
SplineSet
241 -200 m 1,0,1
 208 -166 208 -166 172 -119 c 128,-1,2
 136 -72 136 -72 106 -9.5 c 128,-1,3
 76 53 76 53 56.5 131 c 128,-1,4
 37 209 37 209 37 305 c 0,5,6
 37 391 37 391 58 472.5 c 128,-1,7
 79 554 79 554 111 623.5 c 128,-1,8
 143 693 143 693 182.5 746.5 c 128,-1,9
 222 800 222 800 258 830 c 1,10,-1
 284 810 l 1,11,12
 269 781 269 781 249 728.5 c 128,-1,13
 229 676 229 676 211 608 c 128,-1,14
 193 540 193 540 181 461.5 c 128,-1,15
 169 383 169 383 169 304 c 0,16,17
 169 211 169 211 180 134.5 c 128,-1,18
 191 58 191 58 206.5 -2 c 128,-1,19
 222 -62 222 -62 240 -105.5 c 128,-1,20
 258 -149 258 -149 272 -177 c 1,21,-1
 241 -200 l 1,0,1
EndSplineSet
EndChar
StartChar: parenright
Encoding: 41 41 381
Width: 316
Flags: W
LayerCount: 2
Back
Fore
SplineSet
44 -177 m 1,0,1
 58 -149 58 -149 76 -105.5 c 128,-1,2
 94 -62 94 -62 109.5 -2 c 128,-1,3
 125 58 125 58 136 134.5 c 128,-1,4
 147 211 147 211 147 304 c 0,5,6
 147 383 147 383 135 461.5 c 128,-1,7
 123 540 123 540 105 608 c 128,-1,8
 87 676 87 676 67 728.5 c 128,-1,9
 47 781 47 781 32 810 c 1,10,-1
 58 830 l 1,11,12
 94 800 94 800 133.5 746.5 c 128,-1,13
 173 693 173 693 205 623.5 c 128,-1,14
 237 554 237 554 258 472.5 c 128,-1,15
 279 391 279 391 279 305 c 0,16,17
 279 209 279 209 259.5 131 c 128,-1,18
 240 53 240 53 210 -9.5 c 128,-1,19
 180 -72 180 -72 144 -119 c 128,-1,20
 108 -166 108 -166 75 -200 c 1,21,-1
 44 -177 l 1,0,1
EndSplineSet
EndChar
StartChar: asterisk
Encoding: 42 42 162
Width: 483
Flags: W
LayerCount: 2
Back
Fore
SplineSet
262 591 m 1,0,-1
 265 548 l 2,1,2
 266 534 266 534 269.5 523.5 c 128,-1,3
 273 513 273 513 277 503.5 c 128,-1,4
 281 494 281 494 284.5 484.5 c 128,-1,5
 288 475 288 475 288 465 c 0,6,7
 288 439 288 439 274 426.5 c 128,-1,8
 260 414 260 414 241 414 c 0,9,10
 223 414 223 414 209.5 426.5 c 128,-1,11
 196 439 196 439 196 466 c 0,12,13
 196 476 196 476 199.5 485 c 128,-1,14
 203 494 203 494 207.5 503.5 c 128,-1,15
 212 513 212 513 215.5 524.5 c 128,-1,16
 219 536 219 536 220 551 c 2,17,-1
 222 591 l 1,18,-1
 189 566 l 2,19,20
 174 555 174 555 164.5 542.5 c 128,-1,21
 155 530 155 530 146 519.5 c 128,-1,22
 137 509 137 509 126.5 502 c 128,-1,23
 116 495 116 495 100 495 c 0,24,25
 81 495 81 495 68.5 509 c 128,-1,26
 56 523 56 523 56 542 c 0,27,28
 56 564 56 564 68.5 575 c 128,-1,29
 81 586 81 586 99 590.5 c 128,-1,30
 117 595 117 595 136 597.5 c 128,-1,31
 155 600 155 600 168 606 c 2,32,-1
 203 622 l 1,33,-1
 165 639 l 2,34,35
 151 645 151 645 132 647.5 c 128,-1,36
 113 650 113 650 95.5 655 c 128,-1,37
 78 660 78 660 66 670.5 c 128,-1,38
 54 681 54 681 54 702 c 0,39,40
 54 719 54 719 66 734 c 128,-1,41
 78 749 78 749 98 749 c 0,42,43
 115 749 115 749 125.5 742 c 128,-1,44
 136 735 136 735 145.5 724 c 128,-1,45
 155 713 155 713 165 700.5 c 128,-1,46
 175 688 175 688 190 678 c 2,47,-1
 222 656 l 1,48,-1
 218 696 l 2,49,50
 216 710 216 710 212.5 721 c 128,-1,51
 209 732 209 732 205 741.5 c 128,-1,52
 201 751 201 751 198 760 c 128,-1,53
 195 769 195 769 195 779 c 0,54,55
 195 805 195 805 209 817.5 c 128,-1,56
 223 830 223 830 241 830 c 0,57,58
 258 830 258 830 272.5 817.5 c 128,-1,59
 287 805 287 805 287 779 c 0,60,61
 287 768 287 768 283.5 759.5 c 128,-1,62
 280 751 280 751 275.5 741 c 128,-1,63
 271 731 271 731 267.5 720 c 128,-1,64
 264 709 264 709 263 694 c 2,65,-1
 261 656 l 1,66,-1
 293 678 l 2,67,68
 308 688 308 688 318 700.5 c 128,-1,69
 328 713 328 713 337 724 c 128,-1,70
 346 735 346 735 356.5 742 c 128,-1,71
 367 749 367 749 384 749 c 0,72,73
 404 749 404 749 416.5 734 c 128,-1,74
 429 719 429 719 429 702 c 0,75,76
 429 681 429 681 416.5 670.5 c 128,-1,77
 404 660 404 660 386 655 c 128,-1,78
 368 650 368 650 349 647.5 c 128,-1,79
 330 645 330 645 318 639 c 2,80,-1
 280 622 l 1,81,-1
 315 606 l 2,82,83
 329 600 329 600 348 597 c 128,-1,84
 367 594 367 594 384.5 589 c 128,-1,85
 402 584 402 584 414.5 574 c 128,-1,86
 427 564 427 564 427 542 c 0,87,88
 427 523 427 523 414.5 509 c 128,-1,89
 402 495 402 495 383 495 c 0,90,91
 367 495 367 495 356 502 c 128,-1,92
 345 509 345 509 336 519.5 c 128,-1,93
 327 530 327 530 317.5 542.5 c 128,-1,94
 308 555 308 555 294 566 c 2,95,-1
 262 591 l 1,0,-1
EndSplineSet
EndChar
StartChar: plus
Encoding: 43 43 389
Width: 491
Flags: W
LayerCount: 2
Back
Fore
SplineSet
213 307 m 1,0,-1
 41 307 l 1,1,-1
 41 372 l 1,2,-1
 213 372 l 1,3,-1
 213 544 l 1,4,-1
 280 544 l 1,5,-1
 280 372 l 1,6,-1
 451 372 l 1,7,-1
 451 307 l 1,8,-1
 280 307 l 1,9,-1
 280 134 l 1,10,-1
 213 134 l 1,11,-1
 213 307 l 1,0,-1
EndSplineSet
Substitution2: "'tnum' Tabular Numbers in Latin lookup 3 subtable" plus.tnum
EndChar
StartChar: period
Encoding: 46 46 384
Width: 280
Flags: W
LayerCount: 2
Back
Fore
SplineSet
50 76 m 256,0,1
 50 114 50 114 74.5 139 c 128,-1,2
 99 164 99 164 138 164 c 0,3,4
 178 164 178 164 204 139 c 128,-1,5
 230 114 230 114 230 76 c 256,6,7
 230 38 230 38 204.5 14 c 128,-1,8
 179 -10 179 -10 139 -10 c 256,9,10
 99 -10 99 -10 74.5 14 c 128,-1,11
 50 38 50 38 50 76 c 256,0,1
EndSplineSet
Substitution2: "'tnum' Tabular Numbers in Latin lookup 3 subtable" period.tnum
EndChar
StartChar: slash
Encoding: 47 47 441
Width: 378
Flags: W
LayerCount: 2
Back
Fore
SplineSet
40 -169 m 1,0,-1
 240 819 l 1,1,-1
 340 819 l 1,2,-1
 139 -169 l 1,3,-1
 40 -169 l 1,0,-1
EndSplineSet
Substitution2: "'tnum' Tabular Numbers in Latin lookup 3 subtable" slash.tnum
EndChar
StartChar: zero
Encoding: 48 48 530
Width: 644
Flags: W
LayerCount: 2
Back
Fore
SplineSet
321 780 m 256,0,1
 378 780 378 780 428 749 c 128,-1,2
 478 718 478 718 514.5 664 c 128,-1,3
 551 610 551 610 572.5 537.5 c 128,-1,4
 594 465 594 465 594 381 c 0,5,6
 594 298 594 298 573 226.5 c 128,-1,7
 552 155 552 155 515 102.5 c 128,-1,8
 478 50 478 50 428.5 20 c 128,-1,9
 379 -10 379 -10 321 -10 c 0,10,11
 264 -10 264 -10 214.5 20 c 128,-1,12
 165 50 165 50 128.5 102.5 c 128,-1,13
 92 155 92 155 71 226.5 c 128,-1,14
 50 298 50 298 50 381 c 0,15,16
 50 465 50 465 71 538 c 128,-1,17
 92 611 92 611 128.5 664.5 c 128,-1,18
 165 718 165 718 214.5 749 c 128,-1,19
 264 780 264 780 321 780 c 256,0,1
321 720 m 256,20,21
 297 720 297 720 280 705 c 128,-1,22
 263 690 263 690 252.5 651.5 c 128,-1,23
 242 613 242 613 237.5 547.5 c 128,-1,24
 233 482 233 482 233 382 c 0,25,26
 233 281 233 281 237.5 216.5 c 128,-1,27
 242 152 242 152 252.5 115 c 128,-1,28
 263 78 263 78 280 64 c 128,-1,29
 297 50 297 50 321 50 c 256,30,31
 345 50 345 50 362.5 64 c 128,-1,32
 380 78 380 78 390.5 115 c 128,-1,33
 401 152 401 152 406 216.5 c 128,-1,34
 411 281 411 281 411 382 c 0,35,36
 411 482 411 482 406 547.5 c 128,-1,37
 401 613 401 613 390.5 651.5 c 128,-1,38
 380 690 380 690 362.5 705 c 128,-1,39
 345 720 345 720 321 720 c 256,20,21
EndSplineSet
Substitution2: "'onum' Oldstyle Figures in Latin lookup 9 subtable" zero.oldstyle
Substitution2: "'numr' Numerators in Latin lookup 8 subtable" zero.numerator
Substitution2: "'dnom' Denominators in Latin lookup 7 subtable" zero.denominator
Substitution2: "'sups' Superscript in Latin lookup 6 subtable" zerosuperior
Substitution2: "'sinf' Scientific Inferiors in Latin lookup 5 subtable" zeroinferior
Substitution2: "'tnum' Tabular Numbers in Latin lookup 3 subtable" zero.tnum
EndChar
StartChar: one
Encoding: 49 49 360
Width: 455
Flags: W
LayerCount: 2
Back
Fore
SplineSet
319 772 m 1,0,-1
 319 62 l 1,1,-1
 445 36 l 1,2,-1
 445 0 l 1,3,-1
 41 0 l 1,4,-1
 41 36 l 1,5,-1
 164 62 l 1,6,-1
 164 615 l 1,7,-1
 41 615 l 1,8,-1
 41 658 l 1,9,10
 109 670 109 670 163.5 699.5 c 128,-1,11
 218 729 218 729 273 780 c 1,12,-1
 319 772 l 1,0,-1
EndSplineSet
Substitution2: "'onum' Oldstyle Figures in Latin lookup 9 subtable" one.oldstyle
Substitution2: "'numr' Numerators in Latin lookup 8 subtable" one.numerator
Substitution2: "'dnom' Denominators in Latin lookup 7 subtable" one.denominator
Substitution2: "'sups' Superscript in Latin lookup 6 subtable" onesuperior
Substitution2: "'sinf' Scientific Inferiors in Latin lookup 5 subtable" oneinferior
Substitution2: "'tnum' Tabular Numbers in Latin lookup 3 subtable" one.tnum
EndChar
StartChar: two
Encoding: 50 50 463
Width: 597
Flags: W
LayerCount: 2
Back
Fore
SplineSet
40 0 m 1,0,-1
 31 58 l 1,1,2
 123 146 123 146 187 216.5 c 128,-1,3
 251 287 251 287 291 344.5 c 128,-1,4
 331 402 331 402 349 450.5 c 128,-1,5
 367 499 367 499 367 543 c 0,6,7
 367 607 367 607 335.5 645.5 c 128,-1,8
 304 684 304 684 251 684 c 0,9,10
 228 684 228 684 204.5 675.5 c 128,-1,11
 181 667 181 667 159.5 651.5 c 128,-1,12
 138 636 138 636 119.5 614.5 c 128,-1,13
 101 593 101 593 88 568 c 1,14,-1
 47 589 l 1,15,16
 82 679 82 679 150 729.5 c 128,-1,17
 218 780 218 780 304 780 c 0,18,19
 353 780 353 780 396 763.5 c 128,-1,20
 439 747 439 747 470 717.5 c 128,-1,21
 501 688 501 688 519 648.5 c 128,-1,22
 537 609 537 609 537 563 c 256,23,24
 537 517 537 517 520 471 c 128,-1,25
 503 425 503 425 464 374 c 128,-1,26
 425 323 425 323 361 263.5 c 128,-1,27
 297 204 297 204 203 131 c 1,28,-1
 440 131 l 1,29,30
 457 148 457 148 474 173.5 c 128,-1,31
 491 199 491 199 510 233 c 1,32,-1
 555 225 l 1,33,-1
 472 -33 l 1,34,-1
 440 -33 l 1,35,-1
 419 0 l 1,36,-1
 40 0 l 1,0,-1
EndSplineSet
Substitution2: "'onum' Oldstyle Figures in Latin lookup 9 subtable" two.oldstyle
Substitution2: "'numr' Numerators in Latin lookup 8 subtable" two.numerator
Substitution2: "'dnom' Denominators in Latin lookup 7 subtable" two.denominator
Substitution2: "'sups' Superscript in Latin lookup 6 subtable" twosuperior
Substitution2: "'sinf' Scientific Inferiors in Latin lookup 5 subtable" twoinferior
Substitution2: "'tnum' Tabular Numbers in Latin lookup 3 subtable" two.tnum
EndChar
StartChar: three
Encoding: 51 51 451
Width: 571
Flags: W
LayerCount: 2
Back
Fore
SplineSet
149 408 m 1,0,1
 189 424 189 424 221.5 445 c 128,-1,2
 254 466 254 466 276.5 491 c 128,-1,3
 299 516 299 516 311 543.5 c 128,-1,4
 323 571 323 571 323 600 c 0,5,6
 323 640 323 640 300.5 663 c 128,-1,7
 278 686 278 686 240 686 c 0,8,9
 198 686 198 686 160 660 c 128,-1,10
 122 634 122 634 102 591 c 1,11,-1
 66 605 l 1,12,13
 75 644 75 644 95.5 676.5 c 128,-1,14
 116 709 116 709 145.5 732 c 128,-1,15
 175 755 175 755 213 767.5 c 128,-1,16
 251 780 251 780 294 780 c 0,17,18
 335 780 335 780 369 768.5 c 128,-1,19
 403 757 403 757 427.5 736.5 c 128,-1,20
 452 716 452 716 465.5 687.5 c 128,-1,21
 479 659 479 659 479 624 c 0,22,23
 479 594 479 594 467.5 568 c 128,-1,24
 456 542 456 542 437 521 c 128,-1,25
 418 500 418 500 392 485 c 128,-1,26
 366 470 366 470 338 463 c 1,27,-1
 338 459 l 1,28,29
 380 455 380 455 415 439 c 128,-1,30
 450 423 450 423 474.5 396 c 128,-1,31
 499 369 499 369 512.5 333.5 c 128,-1,32
 526 298 526 298 526 255 c 0,33,34
 526 200 526 200 503.5 151.5 c 128,-1,35
 481 103 481 103 442.5 67 c 128,-1,36
 404 31 404 31 351.5 10.5 c 128,-1,37
 299 -10 299 -10 239 -10 c 0,38,39
 196 -10 196 -10 158.5 0.5 c 128,-1,40
 121 11 121 11 93.5 30 c 128,-1,41
 66 49 66 49 50 74 c 128,-1,42
 34 99 34 99 34 128 c 0,43,44
 34 161 34 161 53.5 181.5 c 128,-1,45
 73 202 73 202 105 202 c 0,46,47
 128 202 128 202 141.5 191 c 128,-1,48
 155 180 155 180 164 163.5 c 128,-1,49
 173 147 173 147 180 128 c 128,-1,50
 187 109 187 109 197 92.5 c 128,-1,51
 207 76 207 76 222.5 65 c 128,-1,52
 238 54 238 54 264 54 c 0,53,54
 311 54 311 54 337.5 92 c 128,-1,55
 364 130 364 130 364 196 c 0,56,57
 364 277 364 277 325 323 c 128,-1,58
 286 369 286 369 219 369 c 0,59,60
 207 369 207 369 191.5 367.5 c 128,-1,61
 176 366 176 366 165 364 c 1,62,-1
 149 408 l 1,0,1
EndSplineSet
Substitution2: "'onum' Oldstyle Figures in Latin lookup 9 subtable" three.oldstyle
Substitution2: "'numr' Numerators in Latin lookup 8 subtable" three.numerator
Substitution2: "'dnom' Denominators in Latin lookup 7 subtable" three.denominator
Substitution2: "'sups' Superscript in Latin lookup 6 subtable" threesuperior
Substitution2: "'sinf' Scientific Inferiors in Latin lookup 5 subtable" threeinferior
Substitution2: "'tnum' Tabular Numbers in Latin lookup 3 subtable" three.tnum
EndChar
StartChar: four
Encoding: 52 52 271
Width: 599
Flags: W
LayerCount: 2
Back
Fore
SplineSet
307 192 m 1,0,-1
 27 192 l 1,1,-1
 9 250 l 1,2,-1
 382 780 l 1,3,-1
 462 770 l 1,4,-1
 462 290 l 1,5,-1
 555 290 l 1,6,-1
 555 192 l 1,7,-1
 462 192 l 1,8,-1
 462 60 l 1,9,-1
 551 37 l 1,10,-1
 551 0 l 1,11,-1
 187 0 l 1,12,-1
 187 37 l 1,13,-1
 307 60 l 1,14,-1
 307 192 l 1,0,-1
307 556 m 1,15,-1
 303 556 l 1,16,-1
 116 294 l 1,17,-1
 117 290 l 1,18,-1
 307 290 l 1,19,-1
 307 556 l 1,15,-1
EndSplineSet
Substitution2: "'onum' Oldstyle Figures in Latin lookup 9 subtable" four.oldstyle
Substitution2: "'numr' Numerators in Latin lookup 8 subtable" four.numerator
Substitution2: "'dnom' Denominators in Latin lookup 7 subtable" four.denominator
Substitution2: "'sups' Superscript in Latin lookup 6 subtable" foursuperior
Substitution2: "'sinf' Scientific Inferiors in Latin lookup 5 subtable" fourinferior
Substitution2: "'tnum' Tabular Numbers in Latin lookup 3 subtable" four.tnum
EndChar
StartChar: five
Encoding: 53 53 262
Width: 558
Flags: W
LayerCount: 2
Back
Fore
SplineSet
179 490 m 1,0,1
 199 498 199 498 218.5 499 c 128,-1,2
 238 500 238 500 258 500 c 0,3,4
 316 500 316 500 363.5 483.5 c 128,-1,5
 411 467 411 467 445 436.5 c 128,-1,6
 479 406 479 406 497.5 363.5 c 128,-1,7
 516 321 516 321 516 269 c 0,8,9
 516 209 516 209 494 158 c 128,-1,10
 472 107 472 107 433 69.5 c 128,-1,11
 394 32 394 32 340.5 11 c 128,-1,12
 287 -10 287 -10 225 -10 c 0,13,14
 182 -10 182 -10 146 0 c 128,-1,15
 110 10 110 10 83.5 27 c 128,-1,16
 57 44 57 44 42 68 c 128,-1,17
 27 92 27 92 27 120 c 0,18,19
 27 152 27 152 46.5 173 c 128,-1,20
 66 194 66 194 98 194 c 0,21,22
 120 194 120 194 133 183.5 c 128,-1,23
 146 173 146 173 154 157.5 c 128,-1,24
 162 142 162 142 168 124 c 128,-1,25
 174 106 174 106 184 90.5 c 128,-1,26
 194 75 194 75 210 64.5 c 128,-1,27
 226 54 226 54 254 54 c 256,28,29
 282 54 282 54 305.5 65 c 128,-1,30
 329 76 329 76 346 96.5 c 128,-1,31
 363 117 363 117 372.5 144.5 c 128,-1,32
 382 172 382 172 382 205 c 256,33,34
 382 238 382 238 371 266 c 128,-1,35
 360 294 360 294 340 314.5 c 128,-1,36
 320 335 320 335 292 346 c 128,-1,37
 264 357 264 357 231 357 c 0,38,39
 204 357 204 357 178 349.5 c 128,-1,40
 152 342 152 342 131 328 c 1,41,-1
 90 328 l 1,42,-1
 149 757 l 1,43,-1
 421 757 l 1,44,45
 428 765 428 765 434.5 775.5 c 128,-1,46
 441 786 441 786 452 807 c 1,47,-1
 488 790 l 1,48,-1
 444 620 l 1,49,-1
 196 620 l 1,50,-1
 179 490 l 1,0,1
EndSplineSet
Substitution2: "'onum' Oldstyle Figures in Latin lookup 9 subtable" five.oldstyle
Substitution2: "'numr' Numerators in Latin lookup 8 subtable" five.numerator
Substitution2: "'dnom' Denominators in Latin lookup 7 subtable" five.denominator
Substitution2: "'sups' Superscript in Latin lookup 6 subtable" fivesuperior
Substitution2: "'sinf' Scientific Inferiors in Latin lookup 5 subtable" fiveinferior
Substitution2: "'tnum' Tabular Numbers in Latin lookup 3 subtable" five.tnum
EndChar
StartChar: six
Encoding: 54 54 434
Width: 604
Flags: W
LayerCount: 2
Back
Fore
SplineSet
308 -10 m 0,0,1
 247 -10 247 -10 198.5 9.5 c 128,-1,2
 150 29 150 29 116 65.5 c 128,-1,3
 82 102 82 102 64 154 c 128,-1,4
 46 206 46 206 46 272 c 0,5,6
 46 355 46 355 74.5 432.5 c 128,-1,7
 103 510 103 510 154.5 576 c 128,-1,8
 206 642 206 642 279.5 693.5 c 128,-1,9
 353 745 353 745 443 777 c 1,10,-1
 466 737 l 1,11,12
 424 714 424 714 384 677 c 128,-1,13
 344 640 344 640 311 596.5 c 128,-1,14
 278 553 278 553 256 506.5 c 128,-1,15
 234 460 234 460 229 420 c 1,16,17
 247 445 247 445 279 458.5 c 128,-1,18
 311 472 311 472 353 472 c 0,19,20
 401 472 401 472 441.5 454 c 128,-1,21
 482 436 482 436 511.5 404.5 c 128,-1,22
 541 373 541 373 557.5 330 c 128,-1,23
 574 287 574 287 574 236 c 0,24,25
 574 181 574 181 554.5 136 c 128,-1,26
 535 91 535 91 500 58.5 c 128,-1,27
 465 26 465 26 416 8 c 128,-1,28
 367 -10 367 -10 308 -10 c 0,0,1
316 50 m 0,29,30
 360 50 360 50 385 95.5 c 128,-1,31
 410 141 410 141 410 219 c 0,32,33
 410 301 410 301 383 349 c 128,-1,34
 356 397 356 397 309 397 c 0,35,36
 283 397 283 397 261.5 383 c 128,-1,37
 240 369 240 369 227 343 c 1,38,39
 221 320 221 320 218 293 c 128,-1,40
 215 266 215 266 215 237 c 0,41,42
 215 150 215 150 242 100 c 128,-1,43
 269 50 269 50 316 50 c 0,29,30
EndSplineSet
Substitution2: "'onum' Oldstyle Figures in Latin lookup 9 subtable" six.oldstyle
Substitution2: "'numr' Numerators in Latin lookup 8 subtable" six.numerator
Substitution2: "'dnom' Denominators in Latin lookup 7 subtable" six.denominator
Substitution2: "'sups' Superscript in Latin lookup 6 subtable" sixsuperior
Substitution2: "'sinf' Scientific Inferiors in Latin lookup 5 subtable" sixinferior
Substitution2: "'tnum' Tabular Numbers in Latin lookup 3 subtable" six.tnum
EndChar
StartChar: seven
Encoding: 55 55 426
Width: 527
Flags: W
LayerCount: 2
Back
Fore
SplineSet
509 757 m 1,0,-1
 525 729 l 1,1,2
 492 657 492 657 468 603 c 128,-1,3
 444 549 444 549 424.5 503 c 128,-1,4
 405 457 405 457 388 414 c 128,-1,5
 371 371 371 371 352.5 320.5 c 128,-1,6
 334 270 334 270 312 207 c 128,-1,7
 290 144 290 144 260 58 c 0,8,9
 236 -10 236 -10 181 -10 c 0,10,11
 147 -10 147 -10 127.5 6 c 128,-1,12
 108 22 108 22 108 51 c 0,13,14
 108 89 108 89 148 164 c 2,15,-1
 391 620 l 1,16,-1
 112 620 l 1,17,18
 97 605 97 605 83.5 586 c 128,-1,19
 70 567 70 567 55 538 c 1,20,-1
 17 555 l 1,21,-1
 105 803 l 1,22,-1
 142 795 l 1,23,24
 142 787 142 787 143.5 775.5 c 128,-1,25
 145 764 145 764 148 757 c 1,26,-1
 509 757 l 1,0,-1
EndSplineSet
Substitution2: "'onum' Oldstyle Figures in Latin lookup 9 subtable" seven.oldstyle
Substitution2: "'numr' Numerators in Latin lookup 8 subtable" seven.numerator
Substitution2: "'dnom' Denominators in Latin lookup 7 subtable" seven.denominator
Substitution2: "'sups' Superscript in Latin lookup 6 subtable" sevensuperior
Substitution2: "'sinf' Scientific Inferiors in Latin lookup 5 subtable" seveninferior
Substitution2: "'tnum' Tabular Numbers in Latin lookup 3 subtable" seven.tnum
EndChar
StartChar: eight
Encoding: 56 56 227
Width: 622
Flags: W
LayerCount: 2
Back
Fore
SplineSet
410 442 m 1,0,1
 497 394 497 394 536 342 c 128,-1,2
 575 290 575 290 575 223 c 0,3,4
 575 172 575 172 555 129 c 128,-1,5
 535 86 535 86 499 55.5 c 128,-1,6
 463 25 463 25 413.5 7.5 c 128,-1,7
 364 -10 364 -10 305 -10 c 0,8,9
 243 -10 243 -10 195.5 5.5 c 128,-1,10
 148 21 148 21 115 48.5 c 128,-1,11
 82 76 82 76 65 113.5 c 128,-1,12
 48 151 48 151 48 196 c 0,13,14
 48 255 48 255 84 299.5 c 128,-1,15
 120 344 120 344 195 378 c 1,16,17
 77 458 77 458 77 577 c 0,18,19
 77 623 77 623 94 660.5 c 128,-1,20
 111 698 111 698 142 724.5 c 128,-1,21
 173 751 173 751 216.5 765.5 c 128,-1,22
 260 780 260 780 314 780 c 0,23,24
 365 780 365 780 406.5 767.5 c 128,-1,25
 448 755 448 755 477.5 732 c 128,-1,26
 507 709 507 709 523.5 677.5 c 128,-1,27
 540 646 540 646 540 607 c 0,28,29
 540 553 540 553 507 511.5 c 128,-1,30
 474 470 474 470 410 442 c 1,0,1
350 469 m 1,31,32
 415 529 415 529 415 607 c 0,33,34
 415 660 415 660 386.5 690 c 128,-1,35
 358 720 358 720 307 720 c 0,36,37
 260 720 260 720 233 694 c 128,-1,38
 206 668 206 668 206 623 c 256,39,40
 206 578 206 578 239.5 542 c 128,-1,41
 273 506 273 506 350 469 c 1,31,32
249 349 m 1,42,43
 220 329 220 329 204 292.5 c 128,-1,44
 188 256 188 256 188 206 c 0,45,46
 188 131 188 131 221.5 90.5 c 128,-1,47
 255 50 255 50 317 50 c 0,48,49
 372 50 372 50 405.5 81.5 c 128,-1,50
 439 113 439 113 439 166 c 0,51,52
 439 220 439 220 394 263.5 c 128,-1,53
 349 307 349 307 249 349 c 1,42,43
EndSplineSet
Substitution2: "'onum' Oldstyle Figures in Latin lookup 9 subtable" eight.oldstyle
Substitution2: "'numr' Numerators in Latin lookup 8 subtable" eight.numerator
Substitution2: "'dnom' Denominators in Latin lookup 7 subtable" eight.denominator
Substitution2: "'sups' Superscript in Latin lookup 6 subtable" eightsuperior
Substitution2: "'sinf' Scientific Inferiors in Latin lookup 5 subtable" eightinferior
Substitution2: "'tnum' Tabular Numbers in Latin lookup 3 subtable" eight.tnum
EndChar
StartChar: nine
Encoding: 57 57 339
Width: 603
Flags: W
LayerCount: 2
Back
Fore
SplineSet
295 777 m 0,0,1
 356 777 356 777 404.5 757.5 c 128,-1,2
 453 738 453 738 487 701.5 c 128,-1,3
 521 665 521 665 539 613 c 128,-1,4
 557 561 557 561 557 495 c 0,5,6
 557 412 557 412 528.5 334.5 c 128,-1,7
 500 257 500 257 448.5 191 c 128,-1,8
 397 125 397 125 323.5 73 c 128,-1,9
 250 21 250 21 160 -10 c 1,10,-1
 137 30 l 1,11,12
 179 53 179 53 219 91.5 c 128,-1,13
 259 130 259 130 292 175 c 128,-1,14
 325 220 325 220 347 267.5 c 128,-1,15
 369 315 369 315 374 357 c 1,16,17
 356 332 356 332 324 318.5 c 128,-1,18
 292 305 292 305 250 305 c 0,19,20
 202 305 202 305 161.5 322 c 128,-1,21
 121 339 121 339 91.5 369 c 128,-1,22
 62 399 62 399 45.5 440.5 c 128,-1,23
 29 482 29 482 29 531 c 0,24,25
 29 586 29 586 48.5 631 c 128,-1,26
 68 676 68 676 103 708.5 c 128,-1,27
 138 741 138 741 187 759 c 128,-1,28
 236 777 236 777 295 777 c 0,0,1
287 717 m 0,29,30
 243 717 243 717 218 671.5 c 128,-1,31
 193 626 193 626 193 548 c 256,32,33
 193 470 193 470 220 425 c 128,-1,34
 247 380 247 380 294 380 c 0,35,36
 320 380 320 380 341.5 394 c 128,-1,37
 363 408 363 408 376 434 c 0,38,39
 382 454 382 454 385 479 c 128,-1,40
 388 504 388 504 388 530 c 0,41,42
 388 617 388 617 361 667 c 128,-1,43
 334 717 334 717 287 717 c 0,29,30
EndSplineSet
Substitution2: "'onum' Oldstyle Figures in Latin lookup 9 subtable" nine.oldstyle
Substitution2: "'numr' Numerators in Latin lookup 8 subtable" nine.numerator
Substitution2: "'dnom' Denominators in Latin lookup 7 subtable" nine.denominator
Substitution2: "'sups' Superscript in Latin lookup 6 subtable" ninesuperior
Substitution2: "'sinf' Scientific Inferiors in Latin lookup 5 subtable" nineinferior
Substitution2: "'tnum' Tabular Numbers in Latin lookup 3 subtable" nine.tnum
EndChar
StartChar: colon
Encoding: 58 58 192
Width: 300
Flags: W
LayerCount: 2
Back
Fore
SplineSet
63 388 m 0,0,1
 63 421 63 421 85 446 c 128,-1,2
 107 471 107 471 148 471 c 0,3,4
 190 471 190 471 213.5 446 c 128,-1,5
 237 421 237 421 237 388 c 0,6,7
 237 357 237 357 214.5 331.5 c 128,-1,8
 192 306 192 306 148 306 c 0,9,10
 106 306 106 306 84.5 331.5 c 128,-1,11
 63 357 63 357 63 388 c 0,0,1
63 72 m 0,12,13
 63 105 63 105 85 130 c 128,-1,14
 107 155 107 155 148 155 c 0,15,16
 190 155 190 155 213.5 130 c 128,-1,17
 237 105 237 105 237 72 c 0,18,19
 237 41 237 41 214.5 15.5 c 128,-1,20
 192 -10 192 -10 148 -10 c 0,21,22
 106 -10 106 -10 84.5 15.5 c 128,-1,23
 63 41 63 41 63 72 c 0,12,13
EndSplineSet
Substitution2: "'tnum' Tabular Numbers in Latin lookup 3 subtable" colon.tnum
EndChar
StartChar: less
Encoding: 60 60 321
Width: 508
Flags: W
LayerCount: 2
Back
Fore
SplineSet
33 310 m 1,0,-1
 33 361 l 1,1,-1
 442 556 l 1,2,-1
 442 475 l 1,3,-1
 125 341 l 1,4,-1
 125 337 l 1,5,-1
 442 201 l 1,6,-1
 442 116 l 1,7,-1
 33 310 l 1,0,-1
EndSplineSet
Substitution2: "'tnum' Tabular Numbers in Latin lookup 3 subtable" less.tnum
EndChar
StartChar: equal
Encoding: 61 61 240
Width: 546
Flags: W
LayerCount: 2
Back
Fore
SplineSet
68 392 m 1,0,-1
 68 455 l 1,1,-1
 478 455 l 1,2,-1
 478 392 l 1,3,-1
 68 392 l 1,0,-1
68 231 m 1,4,-1
 68 294 l 1,5,-1
 478 294 l 1,6,-1
 478 231 l 1,7,-1
 68 231 l 1,4,-1
EndSplineSet
Substitution2: "'tnum' Tabular Numbers in Latin lookup 3 subtable" equal.tnum
EndChar
StartChar: greater
Encoding: 62 62 287
Width: 509
Flags: W
LayerCount: 2
Back
Fore
SplineSet
67 121 m 1,0,-1
 67 201 l 1,1,-1
 384 337 l 1,2,-1
 384 341 l 1,3,-1
 67 475 l 1,4,-1
 67 561 l 1,5,-1
 476 366 l 1,6,-1
 476 315 l 1,7,-1
 67 121 l 1,0,-1
EndSplineSet
Substitution2: "'tnum' Tabular Numbers in Latin lookup 3 subtable" greater.tnum
EndChar
StartChar: question
Encoding: 63 63 394
Width: 421
Flags: W
LayerCount: 2
Back
Fore
SplineSet
94 230 m 1,0,-1
 94 461 l 1,1,-1
 150 461 l 2,2,3
 241 461 241 461 286.5 479.5 c 128,-1,4
 332 498 332 498 332 531 c 0,5,6
 332 543 332 543 327.5 552.5 c 128,-1,7
 323 562 323 562 309.5 571.5 c 128,-1,8
 296 581 296 581 271 592.5 c 128,-1,9
 246 604 246 604 204 620 c 0,10,11
 132 647 132 647 104.5 671 c 128,-1,12
 77 695 77 695 77 721 c 0,13,14
 77 780 77 780 145 780 c 0,15,16
 196 780 196 780 240 762.5 c 128,-1,17
 284 745 284 745 316 713 c 128,-1,18
 348 681 348 681 366 634 c 128,-1,19
 384 587 384 587 384 529 c 0,20,21
 384 434 384 434 334 381 c 128,-1,22
 284 328 284 328 193 325 c 2,23,-1
 163 324 l 1,24,-1
 163 230 l 1,25,-1
 94 230 l 1,0,-1
41 72 m 0,26,27
 41 105 41 105 63.5 130 c 128,-1,28
 86 155 86 155 127 155 c 0,29,30
 169 155 169 155 192.5 130 c 128,-1,31
 216 105 216 105 216 72 c 0,32,33
 216 41 216 41 193.5 15.5 c 128,-1,34
 171 -10 171 -10 127 -10 c 0,35,36
 85 -10 85 -10 63 15.5 c 128,-1,37
 41 41 41 41 41 72 c 0,26,27
EndSplineSet
EndChar
StartChar: at
Encoding: 64 64 163
Width: 920
Flags: W
LayerCount: 2
Back
Fore
SplineSet
447 -159 m 0,0,1
 358 -159 358 -159 284 -134.5 c 128,-1,2
 210 -110 210 -110 157 -63.5 c 128,-1,3
 104 -17 104 -17 74.5 49.5 c 128,-1,4
 45 116 45 116 45 201 c 0,5,6
 45 301 45 301 85 383.5 c 128,-1,7
 125 466 125 466 191 525.5 c 128,-1,8
 257 585 257 585 342.5 617.5 c 128,-1,9
 428 650 428 650 519 650 c 0,10,11
 602 650 602 650 666.5 624 c 128,-1,12
 731 598 731 598 775.5 554.5 c 128,-1,13
 820 511 820 511 843 454 c 128,-1,14
 866 397 866 397 866 336 c 0,15,16
 866 278 866 278 846 223 c 128,-1,17
 826 168 826 168 791 125 c 128,-1,18
 756 82 756 82 708.5 55.5 c 128,-1,19
 661 29 661 29 606 29 c 0,20,21
 584 29 584 29 564 34 c 128,-1,22
 544 39 544 39 530 52 c 256,23,24
 516 65 516 65 509.5 82.5 c 128,-1,25
 503 100 503 100 500 120 c 1,26,-1
 496 120 l 1,27,28
 461 85 461 85 423 65 c 128,-1,29
 385 45 385 45 344 45 c 0,30,31
 327 45 327 45 306 50 c 128,-1,32
 285 55 285 55 266 68.5 c 128,-1,33
 247 82 247 82 234.5 107 c 128,-1,34
 222 132 222 132 222 173 c 0,35,36
 222 222 222 222 241.5 273 c 128,-1,37
 261 324 261 324 296 366 c 128,-1,38
 331 408 331 408 379 434.5 c 128,-1,39
 427 461 427 461 484 461 c 0,40,41
 521 461 521 461 539 449.5 c 128,-1,42
 557 438 557 438 568 420 c 1,43,-1
 572 420 l 1,44,-1
 581 461 l 1,45,-1
 698 461 l 1,46,-1
 617 181 l 2,47,48
 614 170 614 170 612 161 c 128,-1,49
 610 152 610 152 610 141 c 0,50,51
 610 101 610 101 646 101 c 0,52,53
 671 101 671 101 697 118 c 128,-1,54
 723 135 723 135 743 165 c 128,-1,55
 763 195 763 195 776 237.5 c 128,-1,56
 789 280 789 280 789 331 c 0,57,58
 789 394 789 394 768.5 442 c 128,-1,59
 748 490 748 490 711.5 522.5 c 128,-1,60
 675 555 675 555 623 572 c 128,-1,61
 571 589 571 589 508 589 c 0,62,63
 424 589 424 589 352 560 c 128,-1,64
 280 531 280 531 227.5 480 c 128,-1,65
 175 429 175 429 145.5 358.5 c 128,-1,66
 116 288 116 288 116 206 c 0,67,68
 116 135 116 135 138.5 77.5 c 128,-1,69
 161 20 161 20 205.5 -21 c 128,-1,70
 250 -62 250 -62 315.5 -84 c 128,-1,71
 381 -106 381 -106 468 -106 c 0,72,73
 528 -106 528 -106 575.5 -93.5 c 128,-1,74
 623 -81 623 -81 665 -56 c 1,75,-1
 683 -99 l 1,76,77
 640 -128 640 -128 579.5 -143.5 c 128,-1,78
 519 -159 519 -159 447 -159 c 0,0,1
388 99 m 0,79,80
 411 99 411 99 440.5 124.5 c 128,-1,81
 470 150 470 150 497 212 c 0,82,83
 508 237 508 237 520.5 278.5 c 128,-1,84
 533 320 533 320 533 361 c 0,85,86
 533 382 533 382 527 394.5 c 128,-1,87
 521 407 521 407 503 407 c 0,88,89
 477 407 477 407 450.5 382 c 128,-1,90
 424 357 424 357 403 319.5 c 128,-1,91
 382 282 382 282 368.5 237.5 c 128,-1,92
 355 193 355 193 355 154 c 0,93,94
 355 99 355 99 388 99 c 0,79,80
EndSplineSet
EndChar
StartChar: B
Encoding: 66 66 14
Width: 751
Flags: W
LayerCount: 2
Back
Fore
SplineSet
379 770 m 2,0,1
 455 770 455 770 505 760 c 128,-1,2
 555 750 555 750 589 729 c 0,3,4
 628 704 628 704 649.5 666 c 128,-1,5
 671 628 671 628 671 583 c 0,6,7
 671 522 671 522 623 480 c 128,-1,8
 575 438 575 438 485 422 c 1,9,-1
 485 418 l 1,10,11
 536 413 536 413 577 395.5 c 128,-1,12
 618 378 618 378 647.5 350 c 128,-1,13
 677 322 677 322 693 285 c 128,-1,14
 709 248 709 248 709 204 c 0,15,16
 709 158 709 158 689.5 118 c 128,-1,17
 670 78 670 78 635 52 c 0,18,19
 597 24 597 24 542 12 c 128,-1,20
 487 0 487 0 397 0 c 2,21,-1
 42 0 l 1,22,-1
 42 37 l 1,23,-1
 127 59 l 1,24,-1
 127 712 l 1,25,-1
 42 733 l 1,26,-1
 42 770 l 1,27,-1
 379 770 l 2,0,1
299 437 m 1,28,-1
 310 437 l 2,29,30
 328 437 328 437 340.5 437.5 c 128,-1,31
 353 438 353 438 363 440 c 0,32,33
 423 446 423 446 455.5 481.5 c 128,-1,34
 488 517 488 517 488 579 c 0,35,36
 488 648 488 648 446 682 c 0,37,38
 403 716 403 716 317 716 c 2,39,-1
 299 716 l 1,40,-1
 299 437 l 1,28,-1
299 383 m 1,41,-1
 299 113 l 2,42,43
 299 78 299 78 315.5 65.5 c 128,-1,44
 332 53 332 53 376 53 c 0,45,46
 451 53 451 53 486 91.5 c 128,-1,47
 521 130 521 130 521 213 c 0,48,49
 521 301 521 301 476 342 c 128,-1,50
 431 383 431 383 336 383 c 2,51,-1
 299 383 l 1,41,-1
EndSplineSet
EndChar
StartChar: D
Encoding: 68 68 22
Width: 878
Flags: W
LayerCount: 2
Back
Fore
SplineSet
41 0 m 1,0,-1
 41 38 l 1,1,-1
 127 57 l 1,2,-1
 127 714 l 1,3,-1
 41 733 l 1,4,-1
 41 770 l 1,5,-1
 314 770 l 2,6,7
 379 770 379 770 432 766 c 128,-1,8
 485 762 485 762 528 753.5 c 128,-1,9
 571 745 571 745 606.5 731 c 128,-1,10
 642 717 642 717 672 697 c 0,11,12
 746 648 746 648 789 568.5 c 128,-1,13
 832 489 832 489 832 386 c 0,14,15
 832 280 832 280 786.5 194 c 128,-1,16
 741 108 741 108 664 59 c 0,17,18
 639 43 639 43 612.5 32 c 128,-1,19
 586 21 586 21 555.5 14 c 128,-1,20
 525 7 525 7 489.5 3.5 c 128,-1,21
 454 0 454 0 412 0 c 2,22,-1
 41 0 l 1,0,-1
401 54 m 0,23,24
 518 54 518 54 575 121 c 0,25,26
 609 161 609 161 624.5 226.5 c 128,-1,27
 640 292 640 292 640 386 c 0,28,29
 640 478 640 478 624.5 539.5 c 128,-1,30
 609 601 609 601 575 642 c 0,31,32
 516 714 516 714 389 714 c 2,33,-1
 299 714 l 1,34,-1
 299 114 l 2,35,36
 299 82 299 82 322.5 68 c 128,-1,37
 346 54 346 54 401 54 c 0,23,24
EndSplineSet
EndChar
StartChar: E
Encoding: 69 69 26
Width: 731
Flags: W
LayerCount: 2
Back
Fore
SplineSet
299 713 m 1,0,-1
 299 434 l 1,1,-1
 425 434 l 1,2,3
 442 462 442 462 452 490.5 c 128,-1,4
 462 519 462 519 468 547 c 1,5,-1
 510 547 l 1,6,-1
 510 267 l 1,7,-1
 468 267 l 1,8,9
 462 295 462 295 451.5 323.5 c 128,-1,10
 441 352 441 352 425 380 c 1,11,-1
 299 380 l 1,12,-1
 299 57 l 1,13,-1
 548 57 l 1,14,15
 580 102 580 102 600.5 145.5 c 128,-1,16
 621 189 621 189 639 234 c 1,17,-1
 691 234 l 1,18,-1
 649 0 l 1,19,-1
 42 0 l 1,20,-1
 42 37 l 1,21,-1
 127 56 l 1,22,-1
 127 714 l 1,23,-1
 42 733 l 1,24,-1
 42 770 l 1,25,-1
 654 770 l 1,26,-1
 673 550 l 1,27,-1
 631 550 l 1,28,29
 617 589 617 589 598.5 631.5 c 128,-1,30
 580 674 580 674 554 713 c 1,31,-1
 299 713 l 1,0,-1
EndSplineSet
EndChar
StartChar: F
Encoding: 70 70 42
Width: 684
Flags: W
LayerCount: 2
Back
Fore
SplineSet
298 713 m 1,0,-1
 298 434 l 1,1,-1
 433 434 l 1,2,3
 447 463 447 463 456 490.5 c 128,-1,4
 465 518 465 518 470 547 c 1,5,-1
 509 547 l 1,6,-1
 509 267 l 1,7,-1
 470 267 l 1,8,9
 459 326 459 326 433 381 c 1,10,-1
 298 381 l 1,11,-1
 298 56 l 1,12,-1
 412 37 l 1,13,-1
 412 0 l 1,14,-1
 42 0 l 1,15,-1
 42 37 l 1,16,-1
 127 56 l 1,17,-1
 127 714 l 1,18,-1
 42 733 l 1,19,-1
 42 770 l 1,20,-1
 654 770 l 1,21,-1
 671 550 l 1,22,-1
 632 550 l 1,23,24
 620 589 620 589 602.5 631.5 c 128,-1,25
 585 674 585 674 560 713 c 1,26,-1
 298 713 l 1,0,-1
EndSplineSet
EndChar
StartChar: H
Encoding: 72 72 48
Width: 923
Flags: W
LayerCount: 2
Back
Fore
SplineSet
625 378 m 1,0,-1
 299 378 l 1,1,-1
 299 58 l 1,2,-1
 383 37 l 1,3,-1
 383 0 l 1,4,-1
 42 0 l 1,5,-1
 42 37 l 1,6,-1
 127 58 l 1,7,-1
 127 713 l 1,8,-1
 42 733 l 1,9,-1
 42 770 l 1,10,-1
 383 770 l 1,11,-1
 383 733 l 1,12,-1
 299 713 l 1,13,-1
 299 435 l 1,14,-1
 625 435 l 1,15,-1
 625 713 l 1,16,-1
 540 733 l 1,17,-1
 540 770 l 1,18,-1
 881 770 l 1,19,-1
 881 733 l 1,20,-1
 797 713 l 1,21,-1
 797 58 l 1,22,-1
 881 37 l 1,23,-1
 881 0 l 1,24,-1
 540 0 l 1,25,-1
 540 37 l 1,26,-1
 625 58 l 1,27,-1
 625 378 l 1,0,-1
EndSplineSet
EndChar
StartChar: I
Encoding: 73 73 52
Width: 425
Flags: W
LayerCount: 2
Back
Fore
SplineSet
127 713 m 1,0,-1
 42 733 l 1,1,-1
 42 770 l 1,2,-1
 383 770 l 1,3,-1
 383 733 l 1,4,-1
 299 713 l 1,5,-1
 299 58 l 1,6,-1
 383 37 l 1,7,-1
 383 0 l 1,8,-1
 42 0 l 1,9,-1
 42 37 l 1,10,-1
 127 58 l 1,11,-1
 127 713 l 1,0,-1
EndSplineSet
EndChar
StartChar: J
Encoding: 74 74 64
Width: 409
Flags: W
LayerCount: 2
Back
Fore
SplineSet
291 155 m 2,0,1
 291 81 291 81 290 35 c 128,-1,2
 289 -11 289 -11 285 -41.5 c 128,-1,3
 281 -72 281 -72 274.5 -91.5 c 128,-1,4
 268 -111 268 -111 257 -131 c 0,5,6
 217 -194 217 -194 151.5 -227 c 128,-1,7
 86 -260 86 -260 15 -260 c 0,8,9
 -66 -260 -66 -260 -110 -231 c 128,-1,10
 -154 -202 -154 -202 -154 -153 c 0,11,12
 -154 -115 -154 -115 -133 -96 c 128,-1,13
 -112 -77 -112 -77 -82 -77 c 0,14,15
 -51 -77 -51 -77 -35 -94.5 c 128,-1,16
 -19 -112 -19 -112 -9 -139 c 0,17,18
 2 -173 2 -173 15.5 -188 c 128,-1,19
 29 -203 29 -203 47 -203 c 0,20,21
 77 -203 77 -203 98 -163.5 c 128,-1,22
 119 -124 119 -124 119 -43 c 2,23,-1
 119 713 l 1,24,-1
 34 733 l 1,25,-1
 34 770 l 1,26,-1
 375 770 l 1,27,-1
 375 733 l 1,28,-1
 291 713 l 1,29,-1
 291 155 l 2,0,1
EndSplineSet
EndChar
StartChar: L
Encoding: 76 76 68
Width: 699
Flags: W
LayerCount: 2
Back
Fore
SplineSet
299 713 m 1,0,-1
 299 57 l 1,1,-1
 548 57 l 1,2,3
 580 102 580 102 600.5 145.5 c 128,-1,4
 621 189 621 189 639 234 c 1,5,-1
 691 234 l 1,6,-1
 649 0 l 1,7,-1
 42 0 l 1,8,-1
 42 37 l 1,9,-1
 127 56 l 1,10,-1
 127 714 l 1,11,-1
 42 733 l 1,12,-1
 42 770 l 1,13,-1
 393 770 l 1,14,-1
 393 733 l 1,15,-1
 299 713 l 1,0,-1
EndSplineSet
EndChar
StartChar: M
Encoding: 77 77 74
Width: 1073
Flags: W
LayerCount: 2
Back
Fore
SplineSet
128 714 m 1,0,-1
 40 733 l 1,1,-1
 40 770 l 1,2,-1
 343 770 l 1,3,-1
 551 254 l 1,4,-1
 557 254 l 1,5,-1
 774 770 l 1,6,-1
 1031 770 l 1,7,-1
 1031 733 l 1,8,-1
 947 713 l 1,9,-1
 947 58 l 1,10,-1
 1031 37 l 1,11,-1
 1031 0 l 1,12,-1
 690 0 l 1,13,-1
 690 37 l 1,14,-1
 775 58 l 1,15,-1
 775 594 l 1,16,-1
 771 594 l 1,17,-1
 520 -10 l 1,18,-1
 472 -10 l 1,19,-1
 201 621 l 1,20,-1
 197 621 l 1,21,-1
 197 56 l 1,22,-1
 285 37 l 1,23,-1
 285 0 l 1,24,-1
 39 0 l 1,25,-1
 39 37 l 1,26,-1
 128 56 l 1,27,-1
 128 714 l 1,0,-1
EndSplineSet
EndChar
StartChar: N
Encoding: 78 78 75
Width: 878
Flags: W
LayerCount: 2
Back
Fore
SplineSet
758 -10 m 1,0,-1
 689 -10 l 1,1,-1
 197 610 l 1,2,-1
 197 56 l 1,3,-1
 285 37 l 1,4,-1
 285 0 l 1,5,-1
 39 0 l 1,6,-1
 39 37 l 1,7,-1
 128 56 l 1,8,-1
 128 714 l 1,9,-1
 40 733 l 1,10,-1
 40 770 l 1,11,-1
 311 770 l 1,12,-1
 689 295 l 1,13,-1
 689 714 l 1,14,-1
 601 733 l 1,15,-1
 601 770 l 1,16,-1
 847 770 l 1,17,-1
 847 733 l 1,18,-1
 758 714 l 1,19,-1
 758 -10 l 1,0,-1
EndSplineSet
EndChar
StartChar: O
Encoding: 79 79 82
Width: 869
Flags: W
LayerCount: 2
Back
Fore
SplineSet
434 780 m 256,0,1
 528 780 528 780 601 749 c 128,-1,2
 674 718 674 718 723.5 664 c 128,-1,3
 773 610 773 610 798.5 538 c 128,-1,4
 824 466 824 466 824 385 c 256,5,6
 824 304 824 304 798.5 232 c 128,-1,7
 773 160 773 160 723.5 106 c 128,-1,8
 674 52 674 52 601 21 c 128,-1,9
 528 -10 528 -10 434 -10 c 256,10,11
 340 -10 340 -10 267.5 21 c 128,-1,12
 195 52 195 52 145.5 106 c 128,-1,13
 96 160 96 160 70.5 232 c 128,-1,14
 45 304 45 304 45 385 c 256,15,16
 45 466 45 466 70.5 538 c 128,-1,17
 96 610 96 610 145.5 664 c 128,-1,18
 195 718 195 718 267.5 749 c 128,-1,19
 340 780 340 780 434 780 c 256,0,1
242 385 m 256,20,21
 242 333 242 333 249.5 274 c 128,-1,22
 257 215 257 215 278 164.5 c 128,-1,23
 299 114 299 114 336.5 81 c 128,-1,24
 374 48 374 48 434 48 c 0,25,26
 495 48 495 48 532.5 81 c 128,-1,27
 570 114 570 114 591 164.5 c 128,-1,28
 612 215 612 215 619.5 274 c 128,-1,29
 627 333 627 333 627 385 c 256,30,31
 627 437 627 437 620 495.5 c 128,-1,32
 613 554 613 554 592 604 c 128,-1,33
 571 654 571 654 533 687 c 128,-1,34
 495 720 495 720 434 720 c 0,35,36
 374 720 374 720 336.5 687 c 128,-1,37
 299 654 299 654 278 604 c 128,-1,38
 257 554 257 554 249.5 495.5 c 128,-1,39
 242 437 242 437 242 385 c 256,20,21
EndSplineSet
Substitution2: "Single Substitution lookup 10 subtable" ordmasculine
EndChar
StartChar: P
Encoding: 80 80 96
Width: 694
Flags: W
LayerCount: 2
Back
Fore
SplineSet
42 770 m 1,0,-1
 375 770 l 2,1,2
 442 770 442 770 496.5 754 c 128,-1,3
 551 738 551 738 589.5 708.5 c 128,-1,4
 628 679 628 679 648.5 636.5 c 128,-1,5
 669 594 669 594 669 542 c 0,6,7
 669 436 669 436 588.5 378 c 128,-1,8
 508 320 508 320 359 320 c 2,9,-1
 299 320 l 1,10,-1
 299 59 l 1,11,-1
 424 37 l 1,12,-1
 424 0 l 1,13,-1
 42 0 l 1,14,-1
 42 37 l 1,15,-1
 127 59 l 1,16,-1
 127 712 l 1,17,-1
 42 733 l 1,18,-1
 42 770 l 1,0,-1
299 374 m 1,19,-1
 306 374 l 2,20,21
 397 374 397 374 441 415 c 0,22,23
 464 437 464 437 475 469.5 c 128,-1,24
 486 502 486 502 486 551 c 0,25,26
 486 642 486 642 448 680 c 0,27,28
 429 699 429 699 399.5 707.5 c 128,-1,29
 370 716 370 716 324 716 c 2,30,-1
 299 716 l 1,31,-1
 299 374 l 1,19,-1
EndSplineSet
EndChar
StartChar: Q
Encoding: 81 81 97
Width: 869
Flags: W
LayerCount: 2
Back
Fore
SplineSet
434 780 m 256,0,1
 528 780 528 780 601 749 c 128,-1,2
 674 718 674 718 723.5 664 c 128,-1,3
 773 610 773 610 798.5 538 c 128,-1,4
 824 466 824 466 824 385 c 0,5,6
 824 313 824 313 803.5 249 c 128,-1,7
 783 185 783 185 744 134 c 128,-1,8
 705 83 705 83 647.5 47.5 c 128,-1,9
 590 12 590 12 517 -1 c 1,10,-1
 517 -5 l 1,11,12
 540 -12 540 -12 562.5 -21 c 128,-1,13
 585 -30 585 -30 608.5 -38 c 128,-1,14
 632 -46 632 -46 657 -51.5 c 128,-1,15
 682 -57 682 -57 710 -57 c 0,16,17
 741 -57 741 -57 766 -47.5 c 128,-1,18
 791 -38 791 -38 815 -14 c 1,19,-1
 845 -34 l 1,20,21
 812 -114 812 -114 759.5 -154 c 128,-1,22
 707 -194 707 -194 652 -194 c 0,23,24
 619 -194 619 -194 594 -181.5 c 128,-1,25
 569 -169 569 -169 548.5 -149.5 c 128,-1,26
 528 -130 528 -130 509 -108 c 128,-1,27
 490 -86 490 -86 469.5 -66.5 c 128,-1,28
 449 -47 449 -47 425 -34.5 c 128,-1,29
 401 -22 401 -22 369 -22 c 0,30,31
 343 -22 343 -22 326.5 -33 c 128,-1,32
 310 -44 310 -44 310 -64 c 0,33,34
 310 -73 310 -73 313 -79.5 c 128,-1,35
 316 -86 316 -86 319.5 -92.5 c 128,-1,36
 323 -99 323 -99 326 -107 c 128,-1,37
 329 -115 329 -115 329 -126 c 0,38,39
 329 -155 329 -155 308.5 -175 c 128,-1,40
 288 -195 288 -195 257 -195 c 0,41,42
 225 -195 225 -195 206 -173 c 128,-1,43
 187 -151 187 -151 187 -118 c 0,44,45
 187 -77 187 -77 217 -45.5 c 128,-1,46
 247 -14 247 -14 300 7 c 1,47,-1
 300 11 l 1,48,49
 239 31 239 31 191.5 67.5 c 128,-1,50
 144 104 144 104 111.5 153 c 128,-1,51
 79 202 79 202 62 261 c 128,-1,52
 45 320 45 320 45 385 c 0,53,54
 45 466 45 466 70.5 538 c 128,-1,55
 96 610 96 610 145.5 664 c 128,-1,56
 195 718 195 718 267.5 749 c 128,-1,57
 340 780 340 780 434 780 c 256,0,1
242 383 m 0,58,59
 242 330 242 330 249.5 269.5 c 128,-1,60
 257 209 257 209 278 157.5 c 128,-1,61
 299 106 299 106 336.5 72 c 128,-1,62
 374 38 374 38 434 38 c 0,63,64
 495 38 495 38 532.5 72 c 128,-1,65
 570 106 570 106 591 158 c 128,-1,66
 612 210 612 210 619.5 270.5 c 128,-1,67
 627 331 627 331 627 385 c 0,68,69
 627 436 627 436 620 495 c 128,-1,70
 613 554 613 554 592 604 c 128,-1,71
 571 654 571 654 533.5 687 c 128,-1,72
 496 720 496 720 435 720 c 256,73,74
 374 720 374 720 336 687 c 128,-1,75
 298 654 298 654 277 603.5 c 128,-1,76
 256 553 256 553 249 494 c 128,-1,77
 242 435 242 435 242 383 c 0,58,59
EndSplineSet
EndChar
StartChar: S
Encoding: 83 83 103
Width: 647
Flags: W
LayerCount: 2
Back
Fore
SplineSet
326 780 m 0,0,1
 428 780 428 780 502 718 c 1,2,-1
 526 771 l 1,3,-1
 559 771 l 1,4,-1
 569 550 l 1,5,-1
 525 550 l 1,6,7
 475 721 475 721 332 721 c 0,8,9
 280 721 280 721 251 696 c 128,-1,10
 222 671 222 671 222 626 c 0,11,12
 222 588 222 588 249.5 562.5 c 128,-1,13
 277 537 277 537 319 514.5 c 128,-1,14
 361 492 361 492 409 469 c 128,-1,15
 457 446 457 446 499 413 c 128,-1,16
 541 380 541 380 568.5 333.5 c 128,-1,17
 596 287 596 287 596 218 c 0,18,19
 596 170 596 170 575 128.5 c 128,-1,20
 554 87 554 87 517.5 56.5 c 128,-1,21
 481 26 481 26 431.5 8.5 c 128,-1,22
 382 -9 382 -9 324 -9 c 0,23,24
 277 -9 277 -9 233.5 3 c 128,-1,25
 190 15 190 15 139 41 c 1,26,-1
 104 0 l 1,27,-1
 73 0 l 1,28,-1
 53 256 l 1,29,-1
 95 263 l 1,30,31
 111 207 111 207 132 166.5 c 128,-1,32
 153 126 153 126 180.5 100 c 128,-1,33
 208 74 208 74 243 61.5 c 128,-1,34
 278 49 278 49 322 49 c 0,35,36
 386 49 386 49 423.5 79 c 128,-1,37
 461 109 461 109 461 163 c 0,38,39
 461 200 461 200 432 225.5 c 128,-1,40
 403 251 403 251 359.5 273.5 c 128,-1,41
 316 296 316 296 265.5 319.5 c 128,-1,42
 215 343 215 343 171.5 376 c 128,-1,43
 128 409 128 409 99 455 c 128,-1,44
 70 501 70 501 70 569 c 0,45,46
 70 615 70 615 89.5 653.5 c 128,-1,47
 109 692 109 692 143.5 720 c 128,-1,48
 178 748 178 748 224.5 764 c 128,-1,49
 271 780 271 780 326 780 c 0,0,1
EndSplineSet
EndChar
StartChar: T
Encoding: 84 84 109
Width: 778
Flags: W
LayerCount: 2
Back
Fore
SplineSet
185 37 m 1,0,-1
 305 59 l 1,1,-1
 305 715 l 1,2,-1
 142 715 l 1,3,4
 110 673 110 673 87.5 627.5 c 128,-1,5
 65 582 65 582 50 540 c 1,6,-1
 11 540 l 1,7,-1
 48 770 l 1,8,-1
 730 770 l 1,9,-1
 767 540 l 1,10,-1
 728 540 l 1,11,12
 713 582 713 582 692 627.5 c 128,-1,13
 671 673 671 673 639 715 c 1,14,-1
 476 715 l 1,15,-1
 476 59 l 1,16,-1
 595 37 l 1,17,-1
 595 0 l 1,18,-1
 185 0 l 1,19,-1
 185 37 l 1,0,-1
EndSplineSet
EndChar
StartChar: V
Encoding: 86 86 126
Width: 781
Flags: W
LayerCount: 2
Back
Fore
SplineSet
370 -10 m 1,0,-1
 88 672 l 2,1,2
 81 689 81 689 73 700 c 128,-1,3
 65 711 65 711 53.5 717.5 c 128,-1,4
 42 724 42 724 24.5 727.5 c 128,-1,5
 7 731 7 731 -20 733 c 1,6,-1
 -20 770 l 1,7,-1
 392 770 l 1,8,-1
 392 733 l 1,9,10
 336 729 336 729 315 721 c 128,-1,11
 294 713 294 713 294 694 c 0,12,13
 294 682 294 682 300 666 c 2,14,-1
 449 254 l 1,15,-1
 455 254 l 1,16,-1
 597 624 l 2,17,18
 607 650 607 650 607 669 c 0,19,20
 607 696 607 696 582.5 710.5 c 128,-1,21
 558 725 558 725 496 733 c 1,22,-1
 496 770 l 1,23,-1
 805 770 l 1,24,-1
 805 733 l 1,25,26
 771 728 771 728 749.5 721.5 c 128,-1,27
 728 715 728 715 713 703 c 128,-1,28
 698 691 698 691 687.5 672 c 128,-1,29
 677 653 677 653 665 622 c 2,30,-1
 418 -10 l 1,31,-1
 370 -10 l 1,0,-1
EndSplineSet
EndChar
StartChar: W
Encoding: 87 87 127
Width: 1212
Flags: W
LayerCount: 2
Back
Fore
SplineSet
359 -10 m 1,0,-1
 92 672 l 2,1,2
 85 689 85 689 77.5 700 c 128,-1,3
 70 711 70 711 58 717.5 c 128,-1,4
 46 724 46 724 28.5 727.5 c 128,-1,5
 11 731 11 731 -16 733 c 1,6,-1
 -16 770 l 1,7,-1
 396 770 l 1,8,-1
 396 733 l 1,9,10
 364 731 364 731 345 728.5 c 128,-1,11
 326 726 326 726 315.5 721.5 c 128,-1,12
 305 717 305 717 301.5 710.5 c 128,-1,13
 298 704 298 704 298 695 c 0,14,15
 298 682 298 682 304 666 c 2,16,-1
 438 254 l 1,17,-1
 444 254 l 1,18,-1
 571 585 l 1,19,-1
 537 672 l 2,20,21
 530 689 530 689 522.5 700 c 128,-1,22
 515 711 515 711 503 717.5 c 128,-1,23
 491 724 491 724 473.5 727.5 c 128,-1,24
 456 731 456 731 429 733 c 1,25,-1
 429 770 l 1,26,-1
 841 770 l 1,27,-1
 841 733 l 1,28,29
 786 730 786 730 764.5 722.5 c 128,-1,30
 743 715 743 715 743 695 c 0,31,32
 743 682 743 682 749 666 c 2,33,-1
 883 254 l 1,34,-1
 889 254 l 1,35,-1
 1031 624 l 2,36,37
 1036 636 1036 636 1039 648.5 c 128,-1,38
 1042 661 1042 661 1042 671 c 0,39,40
 1042 696 1042 696 1017 710.5 c 128,-1,41
 992 725 992 725 930 733 c 1,42,-1
 930 770 l 1,43,-1
 1239 770 l 1,44,-1
 1239 733 l 1,45,46
 1206 728 1206 728 1184.5 721.5 c 128,-1,47
 1163 715 1163 715 1148 703 c 128,-1,48
 1133 691 1133 691 1122 671.5 c 128,-1,49
 1111 652 1111 652 1099 622 c 2,50,-1
 852 -10 l 1,51,-1
 804 -10 l 1,52,-1
 605 497 l 1,53,-1
 407 -10 l 1,54,-1
 359 -10 l 1,0,-1
EndSplineSet
EndChar
StartChar: X
Encoding: 88 88 132
Width: 840
Flags: W
LayerCount: 2
Back
Fore
SplineSet
-7 37 m 1,0,1
 25 41 25 41 48.5 47 c 128,-1,2
 72 53 72 53 89 61 c 128,-1,3
 106 69 106 69 119 80.5 c 128,-1,4
 132 92 132 92 144 108 c 2,5,-1
 339 370 l 1,6,-1
 125 690 l 2,7,8
 118 700 118 700 111 706.5 c 128,-1,9
 104 713 104 713 91.5 717.5 c 128,-1,10
 79 722 79 722 60 725.5 c 128,-1,11
 41 729 41 729 10 733 c 1,12,-1
 10 770 l 1,13,-1
 427 770 l 1,14,-1
 427 733 l 1,15,16
 373 731 373 731 355.5 726.5 c 128,-1,17
 338 722 338 722 338 712 c 0,18,19
 338 705 338 705 340.5 698 c 128,-1,20
 343 691 343 691 351 679 c 2,21,-1
 474 494 l 1,22,-1
 598 661 l 2,23,24
 614 683 614 683 614 697 c 256,25,26
 614 711 614 711 594.5 719.5 c 128,-1,27
 575 728 575 728 530 733 c 1,28,-1
 530 770 l 1,29,-1
 811 770 l 1,30,-1
 811 733 l 1,31,32
 779 727 779 727 758 721.5 c 128,-1,33
 737 716 737 716 722 708.5 c 128,-1,34
 707 701 707 701 696.5 690 c 128,-1,35
 686 679 686 679 674 664 c 2,36,-1
 508 443 l 1,37,-1
 751 80 l 2,38,39
 758 69 758 69 767.5 61.5 c 128,-1,40
 777 54 777 54 789.5 49 c 128,-1,41
 802 44 802 44 819 41.5 c 128,-1,42
 836 39 836 39 859 37 c 1,43,-1
 859 0 l 1,44,-1
 444 0 l 1,45,-1
 444 37 l 1,46,47
 503 41 503 41 522.5 45 c 128,-1,48
 542 49 542 49 542 57 c 0,49,50
 542 62 542 62 538.5 69.5 c 128,-1,51
 535 77 535 77 526 91 c 2,52,-1
 374 317 l 1,53,-1
 220 109 l 2,54,55
 203 86 203 86 203 70 c 0,56,57
 203 57 203 57 223 49.5 c 128,-1,58
 243 42 243 42 287 37 c 1,59,-1
 287 0 l 1,60,-1
 -7 0 l 1,61,-1
 -7 37 l 1,0,1
EndSplineSet
EndChar
StartChar: Z
Encoding: 90 90 139
Width: 730
Flags: W
LayerCount: 2
Back
Fore
SplineSet
679 770 m 1,0,-1
 679 733 l 1,1,-1
 259 55 l 1,2,-1
 548 55 l 1,3,-1
 560 73 l 2,4,5
 595 127 595 127 619 177.5 c 128,-1,6
 643 228 643 228 657 262 c 1,7,-1
 699 262 l 1,8,-1
 636 0 l 1,9,-1
 27 0 l 1,10,-1
 27 38 l 1,11,-1
 445 715 l 1,12,-1
 172 715 l 1,13,-1
 160 693 l 2,14,15
 131 639 131 639 114 601.5 c 128,-1,16
 97 564 97 564 89 541 c 1,17,-1
 48 541 l 1,18,-1
 99 770 l 1,19,-1
 679 770 l 1,0,-1
EndSplineSet
EndChar
StartChar: bracketleft
Encoding: 91 91 171
Width: 337
Flags: W
LayerCount: 2
Back
Fore
SplineSet
92 -187 m 1,0,-1
 92 820 l 1,1,-1
 317 820 l 1,2,-1
 317 770 l 1,3,-1
 209 770 l 1,4,-1
 209 -138 l 1,5,-1
 317 -138 l 1,6,-1
 317 -187 l 1,7,-1
 92 -187 l 1,0,-1
EndSplineSet
EndChar
StartChar: backslash
Encoding: 92 92 166
Width: 378
Flags: W
LayerCount: 2
Back
Fore
SplineSet
239 -169 m 1,0,-1
 38 819 l 1,1,-1
 138 819 l 1,2,-1
 338 -169 l 1,3,-1
 239 -169 l 1,0,-1
EndSplineSet
EndChar
StartChar: bracketright
Encoding: 93 93 172
Width: 337
Flags: W
LayerCount: 2
Back
Fore
SplineSet
20 -187 m 1,0,-1
 20 -138 l 1,1,-1
 128 -138 l 1,2,-1
 128 770 l 1,3,-1
 20 770 l 1,4,-1
 20 820 l 1,5,-1
 245 820 l 1,6,-1
 245 -187 l 1,7,-1
 20 -187 l 1,0,-1
EndSplineSet
EndChar
StartChar: asciicircum
Encoding: 94 94 160
Width: 485
Flags: W
LayerCount: 2
Back
Fore
SplineSet
40 332 m 1,0,-1
 225 711 l 1,1,-1
 261 711 l 1,2,-1
 445 332 l 1,3,-1
 383 332 l 1,4,-1
 244 609 l 1,5,-1
 240 609 l 1,6,-1
 103 332 l 1,7,-1
 40 332 l 1,0,-1
EndSplineSet
EndChar
StartChar: grave
Encoding: 96 96 285
Width: 181
Flags: W
LayerCount: 2
Back
Fore
SplineSet
140 631 m 1,0,-1
 43 742 l 2,1,2
 26 762 26 762 18 780.5 c 128,-1,3
 10 799 10 799 10 814 c 0,4,5
 10 834 10 834 22.5 846.5 c 128,-1,6
 35 859 35 859 55 859 c 0,7,8
 112 859 112 859 130 793 c 2,9,-1
 171 642 l 1,10,-1
 140 631 l 1,0,-1
EndSplineSet
EndChar
StartChar: b
Encoding: 98 98 165
Width: 658
Flags: W
LayerCount: 2
Back
Fore
SplineSet
350 -10 m 0,0,1
 309 -10 309 -10 270.5 1.5 c 128,-1,2
 232 13 232 13 200 36 c 1,3,-1
 194 36 l 1,4,-1
 108 0 l 1,5,-1
 79 0 l 1,6,-1
 79 731 l 1,7,-1
 -5 758 l 1,8,-1
 -5 781 l 1,9,-1
 212 830 l 1,10,-1
 234 830 l 1,11,-1
 234 469 l 1,12,13
 268 502 268 502 310 521 c 128,-1,14
 352 540 352 540 400 540 c 0,15,16
 449 540 449 540 489.5 521.5 c 128,-1,17
 530 503 530 503 559.5 469.5 c 128,-1,18
 589 436 589 436 605 389.5 c 128,-1,19
 621 343 621 343 621 287 c 0,20,21
 621 224 621 224 600 169.5 c 128,-1,22
 579 115 579 115 542.5 75 c 128,-1,23
 506 35 506 35 456.5 12.5 c 128,-1,24
 407 -10 407 -10 350 -10 c 0,0,1
330 44 m 0,25,26
 358 44 358 44 380.5 59.5 c 128,-1,27
 403 75 403 75 419 103 c 128,-1,28
 435 131 435 131 443.5 171 c 128,-1,29
 452 211 452 211 452 259 c 0,30,31
 452 355 452 355 420.5 408.5 c 128,-1,32
 389 462 389 462 331 462 c 0,33,34
 301 462 301 462 276.5 446.5 c 128,-1,35
 252 431 252 431 234 404 c 1,36,-1
 234 170 l 2,37,38
 234 113 234 113 260 78.5 c 128,-1,39
 286 44 286 44 330 44 c 0,25,26
EndSplineSet
EndChar
StartChar: d
Encoding: 100 100 199
Width: 674
Flags: W
LayerCount: 2
Back
Fore
SplineSet
265 -10 m 0,0,1
 217 -10 217 -10 175.5 10 c 128,-1,2
 134 30 134 30 103 65.5 c 128,-1,3
 72 101 72 101 54.5 150 c 128,-1,4
 37 199 37 199 37 256 c 0,5,6
 37 319 37 319 57 371 c 128,-1,7
 77 423 77 423 113 460.5 c 128,-1,8
 149 498 149 498 199.5 519 c 128,-1,9
 250 540 250 540 310 540 c 0,10,11
 339 540 339 540 368 534 c 128,-1,12
 397 528 397 528 426 515 c 1,13,-1
 426 730 l 1,14,-1
 341 758 l 1,15,-1
 341 781 l 1,16,-1
 559 830 l 1,17,-1
 581 830 l 1,18,-1
 581 98 l 1,19,-1
 660 73 l 1,20,-1
 660 52 l 1,21,-1
 452 -10 l 1,22,-1
 434 -10 l 1,23,-1
 434 51 l 1,24,-1
 429 53 l 1,25,26
 398 23 398 23 356 6.5 c 128,-1,27
 314 -10 314 -10 265 -10 c 0,0,1
329 62 m 0,28,29
 359 62 359 62 383.5 76 c 128,-1,30
 408 90 408 90 426 114 c 1,31,-1
 426 362 l 2,32,33
 426 418 426 418 400 452 c 128,-1,34
 374 486 374 486 330 486 c 0,35,36
 302 486 302 486 279.5 470.5 c 128,-1,37
 257 455 257 455 241 427 c 128,-1,38
 225 399 225 399 216.5 360 c 128,-1,39
 208 321 208 321 208 273 c 0,40,41
 208 176 208 176 239.5 119 c 128,-1,42
 271 62 271 62 329 62 c 0,28,29
EndSplineSet
EndChar
StartChar: f
Encoding: 102 102 246
Width: 422
Flags: W
LayerCount: 2
Back
Fore
SplineSet
28 530 m 1,0,-1
 116 530 l 1,1,2
 116 570 116 570 116.5 598 c 128,-1,3
 117 626 117 626 119 645.5 c 128,-1,4
 121 665 121 665 124.5 678 c 128,-1,5
 128 691 128 691 133 703 c 0,6,7
 158 761 158 761 221.5 795.5 c 128,-1,8
 285 830 285 830 368 830 c 0,9,10
 447 830 447 830 495 803.5 c 128,-1,11
 543 777 543 777 543 732 c 0,12,13
 543 703 543 703 524 684.5 c 128,-1,14
 505 666 505 666 474 666 c 0,15,16
 420 666 420 666 404 727 c 0,17,18
 396 756 396 756 384 767.5 c 128,-1,19
 372 779 372 779 349 779 c 0,20,21
 327 779 327 779 309 768 c 128,-1,22
 291 757 291 757 283 733 c 0,23,24
 275 710 275 710 273 673 c 128,-1,25
 271 636 271 636 271 585 c 2,26,-1
 271 530 l 1,27,-1
 406 530 l 1,28,-1
 392 483 l 1,29,-1
 271 483 l 1,30,-1
 271 55 l 1,31,-1
 394 35 l 1,32,-1
 394 0 l 1,33,-1
 31 0 l 1,34,-1
 31 35 l 1,35,-1
 116 55 l 1,36,-1
 116 483 l 1,37,-1
 14 483 l 1,38,-1
 28 530 l 1,0,-1
EndSplineSet
EndChar
StartChar: g
Encoding: 103 103 279
Width: 584
Flags: W
LayerCount: 2
Back
Fore
SplineSet
239 -259 m 0,0,1
 201 -259 201 -259 153 -252.5 c 128,-1,2
 105 -246 105 -246 63 -224 c 0,3,4
 36 -210 36 -210 16.5 -187 c 128,-1,5
 -3 -164 -3 -164 -3 -129 c 0,6,7
 -3 -91 -3 -91 25.5 -61 c 128,-1,8
 54 -31 54 -31 121 -2 c 1,9,10
 92 11 92 11 74.5 30.5 c 128,-1,11
 57 50 57 50 57 84 c 0,12,13
 57 105 57 105 65 121 c 128,-1,14
 73 137 73 137 91 151 c 128,-1,15
 109 165 109 165 138.5 177.5 c 128,-1,16
 168 190 168 190 211 205 c 1,17,18
 178 212 178 212 149.5 227 c 128,-1,19
 121 242 121 242 99.5 263 c 128,-1,20
 78 284 78 284 66 310.5 c 128,-1,21
 54 337 54 337 54 368 c 0,22,23
 54 405 54 405 71 436.5 c 128,-1,24
 88 468 88 468 118.5 491 c 128,-1,25
 149 514 149 514 190.5 527 c 128,-1,26
 232 540 232 540 280 540 c 0,27,28
 317 540 317 540 349.5 532.5 c 128,-1,29
 382 525 382 525 409 511 c 1,30,31
 418 530 418 530 429.5 548.5 c 128,-1,32
 441 567 441 567 457 582 c 128,-1,33
 473 597 473 597 492 606.5 c 128,-1,34
 511 616 511 616 535 616 c 0,35,36
 566 616 566 616 586.5 600 c 128,-1,37
 607 584 607 584 607 557 c 0,38,39
 607 535 607 535 592.5 517 c 128,-1,40
 578 499 578 499 551 499 c 0,41,42
 538 499 538 499 530 503 c 128,-1,43
 522 507 522 507 515.5 512 c 128,-1,44
 509 517 509 517 502.5 521 c 128,-1,45
 496 525 496 525 486 525 c 0,46,47
 470 525 470 525 459.5 514.5 c 128,-1,48
 449 504 449 504 443 490 c 1,49,50
 475 467 475 467 493 435.5 c 128,-1,51
 511 404 511 404 511 370 c 0,52,53
 511 338 511 338 495 308.5 c 128,-1,54
 479 279 479 279 449 255.5 c 128,-1,55
 419 232 419 232 377.5 216 c 128,-1,56
 336 200 336 200 285 195 c 0,57,58
 226 189 226 189 200 174 c 128,-1,59
 174 159 174 159 174 142 c 256,60,61
 174 125 174 125 198 113.5 c 128,-1,62
 222 102 222 102 256.5 94 c 128,-1,63
 291 86 291 86 330.5 80 c 128,-1,64
 370 74 370 74 400 67 c 0,65,66
 449 56 449 56 479 39 c 128,-1,67
 509 22 509 22 525 2.5 c 128,-1,68
 541 -17 541 -17 546 -37.5 c 128,-1,69
 551 -58 551 -58 551 -77 c 0,70,71
 551 -118 551 -118 535 -146.5 c 128,-1,72
 519 -175 519 -175 488 -197 c 0,73,74
 464 -214 464 -214 434 -225.5 c 128,-1,75
 404 -237 404 -237 371 -244.5 c 128,-1,76
 338 -252 338 -252 304 -255.5 c 128,-1,77
 270 -259 270 -259 239 -259 c 0,0,1
302 -51 m 0,78,79
 265 -43 265 -43 233.5 -35.5 c 128,-1,80
 202 -28 202 -28 168 -20 c 1,81,82
 143 -37 143 -37 129.5 -62.5 c 128,-1,83
 116 -88 116 -88 116 -115 c 0,84,85
 116 -162 116 -162 163 -186 c 0,86,87
 205 -208 205 -208 267 -208 c 0,88,89
 293 -208 293 -208 325 -203 c 128,-1,90
 357 -198 357 -198 384 -187 c 0,91,92
 407 -177 407 -177 422 -162.5 c 128,-1,93
 437 -148 437 -148 437 -126 c 0,94,95
 437 -97 437 -97 404 -82 c 128,-1,96
 371 -67 371 -67 302 -51 c 0,78,79
281 239 m 256,97,98
 302 239 302 239 316 251.5 c 128,-1,99
 330 264 330 264 338 283.5 c 128,-1,100
 346 303 346 303 349.5 326.5 c 128,-1,101
 353 350 353 350 353 372 c 0,102,103
 353 390 353 390 350.5 412 c 128,-1,104
 348 434 348 434 340.5 452.5 c 128,-1,105
 333 471 333 471 320 484 c 128,-1,106
 307 497 307 497 286 497 c 0,107,108
 264 497 264 497 250 483 c 128,-1,109
 236 469 236 469 227.5 448 c 128,-1,110
 219 427 219 427 216 403 c 128,-1,111
 213 379 213 379 213 360 c 0,112,113
 213 342 213 342 215.5 321 c 128,-1,114
 218 300 218 300 225.5 281.5 c 128,-1,115
 233 263 233 263 246.5 251 c 128,-1,116
 260 239 260 239 281 239 c 256,97,98
EndSplineSet
EndChar
StartChar: h
Encoding: 104 104 293
Width: 681
Flags: W
LayerCount: 2
Back
Fore
SplineSet
319 35 m 1,0,-1
 319 0 l 1,1,-1
 19 0 l 1,2,-1
 19 35 l 1,3,-1
 94 55 l 1,4,-1
 94 730 l 1,5,-1
 18 758 l 1,6,-1
 18 781 l 1,7,-1
 227 830 l 1,8,-1
 249 830 l 1,9,-1
 249 479 l 1,10,11
 284 506 284 506 333.5 523 c 128,-1,12
 383 540 383 540 431 540 c 0,13,14
 534 540 534 540 573 460 c 0,15,16
 577 451 577 451 580 440.5 c 128,-1,17
 583 430 583 430 585 414 c 128,-1,18
 587 398 587 398 587.5 375 c 128,-1,19
 588 352 588 352 588 318 c 2,20,-1
 588 55 l 1,21,-1
 663 35 l 1,22,-1
 663 0 l 1,23,-1
 363 0 l 1,24,-1
 363 35 l 1,25,-1
 433 55 l 1,26,-1
 433 279 l 2,27,28
 433 332 433 332 431.5 358 c 128,-1,29
 430 384 430 384 423 399 c 0,30,31
 411 425 411 425 390 439.5 c 128,-1,32
 369 454 369 454 334 454 c 0,33,34
 284 454 284 454 249 419 c 1,35,-1
 249 55 l 1,36,-1
 319 35 l 1,0,-1
EndSplineSet
EndChar
StartChar: i
Encoding: 105 105 300
Width: 360
Flags: W
LayerCount: 2
Back
Fore
SplineSet
99 697 m 0,0,1
 99 730 99 730 121.5 755 c 128,-1,2
 144 780 144 780 185 780 c 0,3,4
 227 780 227 780 250.5 755 c 128,-1,5
 274 730 274 730 274 697 c 0,6,7
 274 666 274 666 251.5 640.5 c 128,-1,8
 229 615 229 615 185 615 c 0,9,10
 143 615 143 615 121 640.5 c 128,-1,11
 99 666 99 666 99 697 c 0,0,1
344 35 m 1,12,-1
 344 0 l 1,13,-1
 24 0 l 1,14,-1
 24 35 l 1,15,-1
 109 55 l 1,16,-1
 109 441 l 1,17,-1
 24 468 l 1,18,-1
 24 492 l 1,19,-1
 243 540 l 1,20,-1
 264 540 l 1,21,-1
 264 55 l 1,22,-1
 344 35 l 1,12,-1
EndSplineSet
EndChar
StartChar: j
Encoding: 106 106 311
Width: 330
Flags: W
LayerCount: 2
Back
Fore
SplineSet
96 441 m 1,0,-1
 11 468 l 1,1,-1
 11 492 l 1,2,-1
 230 540 l 1,3,-1
 251 540 l 1,4,-1
 251 69 l 2,5,6
 251 28 251 28 249 -3 c 128,-1,7
 247 -34 247 -34 242 -59 c 128,-1,8
 237 -84 237 -84 229 -104.5 c 128,-1,9
 221 -125 221 -125 209 -146 c 0,10,11
 174 -206 174 -206 124.5 -233 c 128,-1,12
 75 -260 75 -260 1 -260 c 0,13,14
 -79 -260 -79 -260 -127.5 -232 c 128,-1,15
 -176 -204 -176 -204 -176 -158 c 0,16,17
 -176 -129 -176 -129 -158 -112.5 c 128,-1,18
 -140 -96 -140 -96 -109 -96 c 0,19,20
 -86 -96 -86 -96 -71.5 -106.5 c 128,-1,21
 -57 -117 -57 -117 -43 -144 c 0,22,23
 -26 -180 -26 -180 -11.5 -194 c 128,-1,24
 3 -208 3 -208 24 -208 c 0,25,26
 96 -208 96 -208 96 -48 c 2,27,-1
 96 441 l 1,0,-1
86 697 m 0,28,29
 86 730 86 730 108.5 755 c 128,-1,30
 131 780 131 780 172 780 c 0,31,32
 214 780 214 780 237.5 755 c 128,-1,33
 261 730 261 730 261 697 c 0,34,35
 261 666 261 666 238.5 640.5 c 128,-1,36
 216 615 216 615 172 615 c 0,37,38
 130 615 130 615 108 640.5 c 128,-1,39
 86 666 86 666 86 697 c 0,28,29
EndSplineSet
EndChar
StartChar: k
Encoding: 107 107 313
Width: 668
Flags: W
LayerCount: 2
Back
Fore
SplineSet
357 530 m 1,0,-1
 632 530 l 1,1,-1
 632 495 l 1,2,3
 599 490 599 490 578 485 c 128,-1,4
 557 480 557 480 543 474 c 128,-1,5
 529 468 529 468 518.5 459 c 128,-1,6
 508 450 508 450 496 438 c 2,7,-1
 410 351 l 1,8,-1
 600 55 l 1,9,-1
 682 35 l 1,10,-1
 682 0 l 1,11,-1
 450 0 l 1,12,-1
 307 245 l 1,13,-1
 255 191 l 1,14,-1
 255 55 l 1,15,-1
 342 35 l 1,16,-1
 342 0 l 1,17,-1
 15 0 l 1,18,-1
 15 35 l 1,19,-1
 100 55 l 1,20,-1
 100 731 l 1,21,-1
 15 758 l 1,22,-1
 15 781 l 1,23,-1
 233 830 l 1,24,-1
 255 830 l 1,25,-1
 255 263 l 1,26,-1
 418 435 l 2,27,28
 430 448 430 448 436.5 456.5 c 128,-1,29
 443 465 443 465 443 471 c 0,30,31
 443 480 443 480 425.5 485 c 128,-1,32
 408 490 408 490 357 495 c 1,33,-1
 357 530 l 1,0,-1
EndSplineSet
EndChar
StartChar: l
Encoding: 108 108 316
Width: 356
Flags: W
LayerCount: 2
Back
Fore
SplineSet
337 35 m 1,0,-1
 337 0 l 1,1,-1
 17 0 l 1,2,-1
 17 35 l 1,3,-1
 102 55 l 1,4,-1
 102 731 l 1,5,-1
 17 758 l 1,6,-1
 17 782 l 1,7,-1
 236 830 l 1,8,-1
 257 830 l 1,9,-1
 257 55 l 1,10,-1
 337 35 l 1,0,-1
EndSplineSet
EndChar
StartChar: m
Encoding: 109 109 325
Width: 1008
Flags: W
LayerCount: 2
Back
Fore
SplineSet
326 35 m 1,0,-1
 326 0 l 1,1,-1
 26 0 l 1,2,-1
 26 35 l 1,3,-1
 101 55 l 1,4,-1
 101 440 l 1,5,-1
 28 468 l 1,6,-1
 28 491 l 1,7,-1
 212 540 l 1,8,-1
 252 540 l 1,9,-1
 252 475 l 1,10,11
 288 504 288 504 335.5 522 c 128,-1,12
 383 540 383 540 429 540 c 0,13,14
 528 540 528 540 569 463 c 1,15,16
 605 498 605 498 656.5 519 c 128,-1,17
 708 540 708 540 759 540 c 0,18,19
 862 540 862 540 901 460 c 0,20,21
 905 451 905 451 908 440.5 c 128,-1,22
 911 430 911 430 913 414 c 128,-1,23
 915 398 915 398 915.5 375 c 128,-1,24
 916 352 916 352 916 318 c 2,25,-1
 916 55 l 1,26,-1
 986 35 l 1,27,-1
 986 0 l 1,28,-1
 691 0 l 1,29,-1
 691 35 l 1,30,-1
 761 55 l 1,31,-1
 761 279 l 2,32,33
 761 332 761 332 759 358 c 128,-1,34
 757 384 757 384 751 399 c 0,35,36
 731 451 731 451 662 451 c 0,37,38
 616 451 616 451 583 416 c 1,39,40
 585 400 585 400 585.5 377 c 128,-1,41
 586 354 586 354 586 318 c 2,42,-1
 586 55 l 1,43,-1
 656 35 l 1,44,-1
 656 0 l 1,45,-1
 361 0 l 1,46,-1
 361 35 l 1,47,-1
 431 55 l 1,48,-1
 431 279 l 2,49,50
 431 332 431 332 429 358 c 128,-1,51
 427 384 427 384 421 399 c 0,52,53
 401 452 401 452 332 452 c 0,54,55
 289 452 289 452 256 421 c 1,56,-1
 256 55 l 1,57,-1
 326 35 l 1,0,-1
EndSplineSet
EndChar
StartChar: n
Encoding: 110 110 333
Width: 684
Flags: W
LayerCount: 2
Back
Fore
SplineSet
327 35 m 1,0,-1
 327 0 l 1,1,-1
 27 0 l 1,2,-1
 27 35 l 1,3,-1
 102 55 l 1,4,-1
 102 440 l 1,5,-1
 26 468 l 1,6,-1
 26 491 l 1,7,-1
 230 540 l 1,8,-1
 252 540 l 1,9,-1
 252 466 l 1,10,11
 286 500 286 500 335.5 520 c 128,-1,12
 385 540 385 540 436 540 c 0,13,14
 485 540 485 540 521 519 c 128,-1,15
 557 498 557 498 576 460 c 0,16,17
 580 450 580 450 583 439 c 128,-1,18
 586 428 586 428 588 412.5 c 128,-1,19
 590 397 590 397 590.5 374 c 128,-1,20
 591 351 591 351 591 318 c 2,21,-1
 591 55 l 1,22,-1
 666 35 l 1,23,-1
 666 0 l 1,24,-1
 366 0 l 1,25,-1
 366 35 l 1,26,-1
 436 55 l 1,27,-1
 436 279 l 2,28,29
 436 308 436 308 435.5 328 c 128,-1,30
 435 348 435 348 434 361.5 c 128,-1,31
 433 375 433 375 431 383.5 c 128,-1,32
 429 392 429 392 426 399 c 0,33,34
 415 424 415 424 392.5 437 c 128,-1,35
 370 450 370 450 338 450 c 0,36,37
 289 450 289 450 257 412 c 1,38,-1
 257 55 l 1,39,-1
 327 35 l 1,0,-1
EndSplineSet
EndChar
StartChar: p
Encoding: 112 112 377
Width: 677
Flags: W
LayerCount: 2
Back
Fore
SplineSet
252 -200 m 1,0,-1
 386 -226 l 1,1,-1
 386 -250 l 1,2,-1
 10 -250 l 1,3,-1
 10 -226 l 1,4,-1
 97 -200 l 1,5,-1
 97 441 l 1,6,-1
 13 468 l 1,7,-1
 13 492 l 1,8,-1
 220 540 l 1,9,-1
 243 540 l 1,10,-1
 243 466 l 1,11,-1
 248 466 l 1,12,13
 276 501 276 501 320.5 520.5 c 128,-1,14
 365 540 365 540 415 540 c 0,15,16
 464 540 464 540 505 520.5 c 128,-1,17
 546 501 546 501 576 466 c 128,-1,18
 606 431 606 431 622.5 383 c 128,-1,19
 639 335 639 335 639 277 c 0,20,21
 639 212 639 212 618.5 159 c 128,-1,22
 598 106 598 106 559.5 68.5 c 128,-1,23
 521 31 521 31 467 10.5 c 128,-1,24
 413 -10 413 -10 347 -10 c 0,25,26
 320 -10 320 -10 297.5 -6.5 c 128,-1,27
 275 -3 275 -3 252 5 c 1,28,-1
 252 -200 l 1,0,-1
349 44 m 0,29,30
 376 44 376 44 398.5 59.5 c 128,-1,31
 421 75 421 75 436.5 103.5 c 128,-1,32
 452 132 452 132 461 172 c 128,-1,33
 470 212 470 212 470 260 c 0,34,35
 470 354 470 354 438 408 c 128,-1,36
 406 462 406 462 352 462 c 0,37,38
 321 462 321 462 292.5 445.5 c 128,-1,39
 264 429 264 429 252 403 c 1,40,-1
 252 154 l 2,41,42
 252 131 252 131 259.5 111 c 128,-1,43
 267 91 267 91 280.5 76 c 128,-1,44
 294 61 294 61 311.5 52.5 c 128,-1,45
 329 44 329 44 349 44 c 0,29,30
EndSplineSet
EndChar
StartChar: q
Encoding: 113 113 393
Width: 663
Flags: W
LayerCount: 2
Back
Fore
SplineSet
430 -200 m 1,0,-1
 430 58 l 1,1,2
 362 -10 362 -10 264 -10 c 0,3,4
 214 -10 214 -10 172.5 8.5 c 128,-1,5
 131 27 131 27 101 60.5 c 128,-1,6
 71 94 71 94 54.5 140.5 c 128,-1,7
 38 187 38 187 38 243 c 0,8,9
 38 312 38 312 58 367 c 128,-1,10
 78 422 78 422 114 460.5 c 128,-1,11
 150 499 150 499 201 519.5 c 128,-1,12
 252 540 252 540 314 540 c 0,13,14
 355 540 355 540 395 528.5 c 128,-1,15
 435 517 435 517 468 494 c 1,16,-1
 474 494 l 1,17,-1
 556 528 l 1,18,-1
 584 528 l 1,19,-1
 584 -200 l 1,20,-1
 671 -226 l 1,21,-1
 671 -250 l 1,22,-1
 295 -250 l 1,23,-1
 295 -226 l 1,24,-1
 430 -200 l 1,0,-1
334 486 m 0,25,26
 277 486 277 486 244 432.5 c 128,-1,27
 211 379 211 379 211 271 c 0,28,29
 211 172 211 172 241 117 c 128,-1,30
 271 62 271 62 328 62 c 0,31,32
 360 62 360 62 385.5 76 c 128,-1,33
 411 90 411 90 430 114 c 1,34,-1
 430 360 l 2,35,36
 430 417 430 417 403 451.5 c 128,-1,37
 376 486 376 486 334 486 c 0,25,26
EndSplineSet
EndChar
StartChar: r
Encoding: 114 114 406
Width: 494
Flags: W
LayerCount: 2
Back
Fore
SplineSet
388 35 m 1,0,-1
 388 0 l 1,1,-1
 27 0 l 1,2,-1
 27 35 l 1,3,-1
 102 55 l 1,4,-1
 102 440 l 1,5,-1
 26 468 l 1,6,-1
 26 492 l 1,7,-1
 231 540 l 1,8,-1
 252 540 l 1,9,-1
 252 449 l 1,10,11
 330 541 330 541 403 541 c 0,12,13
 441 541 441 541 465 519.5 c 128,-1,14
 489 498 489 498 489 466 c 0,15,16
 489 439 489 439 472 417.5 c 128,-1,17
 455 396 455 396 425 396 c 0,18,19
 411 396 411 396 400 401 c 128,-1,20
 389 406 389 406 378 415 c 0,21,22
 364 426 364 426 353 432.5 c 128,-1,23
 342 439 342 439 331 439 c 0,24,25
 323 439 323 439 308.5 434 c 128,-1,26
 294 429 294 429 280 414 c 0,27,28
 267 400 267 400 263 389.5 c 128,-1,29
 259 379 259 379 257 370 c 2,30,-1
 257 55 l 1,31,-1
 388 35 l 1,0,-1
EndSplineSet
EndChar
StartChar: s
Encoding: 115 115 414
Width: 469
Flags: W
LayerCount: 2
Back
Fore
SplineSet
271 540 m 0,0,1
 309 540 309 540 345 535.5 c 128,-1,2
 381 531 381 531 403 523 c 1,3,-1
 403 384 l 1,4,-1
 364 384 l 1,5,6
 350 490 350 490 264 490 c 0,7,8
 229 490 229 490 208.5 473.5 c 128,-1,9
 188 457 188 457 188 430 c 0,10,11
 188 404 188 404 206 387.5 c 128,-1,12
 224 371 224 371 250.5 356.5 c 128,-1,13
 277 342 277 342 308.5 327.5 c 128,-1,14
 340 313 340 313 366.5 291.5 c 128,-1,15
 393 270 393 270 411 239 c 128,-1,16
 429 208 429 208 429 161 c 0,17,18
 429 80 429 80 372 35 c 128,-1,19
 315 -10 315 -10 212 -10 c 0,20,21
 174 -10 174 -10 131 -4.5 c 128,-1,22
 88 1 88 1 56 11 c 1,23,-1
 50 174 l 1,24,-1
 93 174 l 1,25,26
 98 108 98 108 127.5 74 c 128,-1,27
 157 40 157 40 209 40 c 0,28,29
 247 40 247 40 270.5 60 c 128,-1,30
 294 80 294 80 294 112 c 0,31,32
 294 139 294 139 276 157.5 c 128,-1,33
 258 176 258 176 231 191 c 128,-1,34
 204 206 204 206 172.5 221.5 c 128,-1,35
 141 237 141 237 114 258.5 c 128,-1,36
 87 280 87 280 69 310 c 128,-1,37
 51 340 51 340 51 386 c 0,38,39
 51 540 51 540 271 540 c 0,0,1
EndSplineSet
EndChar
StartChar: t
Encoding: 116 116 446
Width: 406
Flags: W
LayerCount: 2
Back
Fore
SplineSet
237 -10 m 0,0,1
 207 -10 207 -10 179 -3 c 128,-1,2
 151 4 151 4 132 18 c 0,3,4
 109 35 109 35 101.5 63 c 128,-1,5
 94 91 94 91 94 132 c 2,6,-1
 94 480 l 1,7,-1
 23 480 l 1,8,-1
 17 511 l 1,9,-1
 218 664 l 1,10,-1
 249 659 l 1,11,-1
 249 530 l 1,12,-1
 404 530 l 1,13,-1
 389 480 l 1,14,-1
 249 480 l 1,15,-1
 249 166 l 2,16,17
 249 129 249 129 251 114 c 128,-1,18
 253 99 253 99 259 90 c 0,19,20
 276 62 276 62 312 62 c 0,21,22
 329 62 329 62 344.5 68 c 128,-1,23
 360 74 360 74 374 90 c 1,24,-1
 397 57 l 1,25,26
 371 24 371 24 329.5 7 c 128,-1,27
 288 -10 288 -10 237 -10 c 0,0,1
EndSplineSet
EndChar
StartChar: v
Encoding: 118 118 510
Width: 631
Flags: W
LayerCount: 2
Back
Fore
SplineSet
281 -10 m 1,0,-1
 73 452 l 2,1,2
 68 464 68 464 62.5 471.5 c 128,-1,3
 57 479 57 479 49 483.5 c 128,-1,4
 41 488 41 488 28 490.5 c 128,-1,5
 15 493 15 493 -5 495 c 1,6,-1
 -5 530 l 1,7,-1
 332 530 l 1,8,-1
 332 495 l 1,9,10
 288 491 288 491 271 484 c 128,-1,11
 254 477 254 477 254 462 c 0,12,13
 254 454 254 454 259 441 c 2,14,-1
 371 171 l 1,15,-1
 375 171 l 1,16,-1
 473 419 l 2,17,18
 478 431 478 431 480.5 440.5 c 128,-1,19
 483 450 483 450 483 458 c 0,20,21
 483 474 483 474 467.5 481.5 c 128,-1,22
 452 489 452 489 411 495 c 1,23,-1
 411 530 l 1,24,-1
 646 530 l 1,25,-1
 646 495 l 1,26,27
 617 491 617 491 599 486.5 c 128,-1,28
 581 482 581 482 569 473.5 c 128,-1,29
 557 465 557 465 549 452 c 128,-1,30
 541 439 541 439 532 418 c 2,31,-1
 361 -10 l 1,32,-1
 281 -10 l 1,0,-1
EndSplineSet
EndChar
StartChar: w
Encoding: 119 119 511
Width: 978
Flags: W
LayerCount: 2
Back
Fore
SplineSet
641 -10 m 1,0,-1
 494 360 l 1,1,-1
 337 -10 l 1,2,-1
 260 -10 l 1,3,-1
 77 452 l 2,4,5
 72 464 72 464 67 471.5 c 128,-1,6
 62 479 62 479 53.5 484 c 128,-1,7
 45 489 45 489 32 491 c 128,-1,8
 19 493 19 493 -1 495 c 1,9,-1
 -1 530 l 1,10,-1
 336 530 l 1,11,-1
 336 495 l 1,12,13
 295 493 295 493 277.5 483 c 128,-1,14
 260 473 260 473 260 456 c 0,15,16
 260 448 260 448 263 441 c 2,17,-1
 350 171 l 1,18,-1
 354 171 l 1,19,-1
 467 429 l 1,20,-1
 458 452 l 2,21,22
 453 464 453 464 448 471.5 c 128,-1,23
 443 479 443 479 434.5 484 c 128,-1,24
 426 489 426 489 413 491 c 128,-1,25
 400 493 400 493 380 495 c 1,26,-1
 380 530 l 1,27,-1
 717 530 l 1,28,-1
 717 495 l 1,29,30
 676 493 676 493 658.5 483 c 128,-1,31
 641 473 641 473 641 456 c 0,32,33
 641 448 641 448 644 441 c 2,34,-1
 731 171 l 1,35,-1
 735 171 l 1,36,-1
 823 419 l 2,37,38
 828 431 828 431 830.5 440.5 c 128,-1,39
 833 450 833 450 833 458 c 0,40,41
 833 474 833 474 817 481.5 c 128,-1,42
 801 489 801 489 761 495 c 1,43,-1
 761 530 l 1,44,-1
 996 530 l 1,45,-1
 996 495 l 1,46,47
 964 490 964 490 944.5 484.5 c 128,-1,48
 925 479 925 479 913.5 470.5 c 128,-1,49
 902 462 902 462 895.5 449.5 c 128,-1,50
 889 437 889 437 882 418 c 2,51,-1
 721 -10 l 1,52,-1
 641 -10 l 1,0,-1
EndSplineSet
EndChar
StartChar: x
Encoding: 120 120 516
Width: 656
Flags: W
LayerCount: 2
Back
Fore
SplineSet
368 350 m 1,0,-1
 440 423 l 2,1,2
 460 445 460 445 460 460 c 0,3,4
 460 474 460 474 444.5 482 c 128,-1,5
 429 490 429 490 394 495 c 1,6,-1
 394 530 l 1,7,-1
 638 530 l 1,8,-1
 638 495 l 1,9,10
 612 490 612 490 594.5 484.5 c 128,-1,11
 577 479 577 479 563.5 471 c 128,-1,12
 550 463 550 463 538 452.5 c 128,-1,13
 526 442 526 442 511 427 c 2,14,-1
 398 312 l 1,15,-1
 582 78 l 2,16,17
 589 69 589 69 596 61.5 c 128,-1,18
 603 54 603 54 612 49 c 128,-1,19
 621 44 621 44 633 40.5 c 128,-1,20
 645 37 645 37 662 35 c 1,21,-1
 662 0 l 1,22,-1
 333 0 l 1,23,-1
 333 35 l 1,24,25
 374 38 374 38 388 42 c 128,-1,26
 402 46 402 46 402 55 c 0,27,28
 402 60 402 60 398.5 66.5 c 128,-1,29
 395 73 395 73 383 89 c 2,30,-1
 297 198 l 1,31,-1
 209 107 l 2,32,33
 198 96 198 96 193.5 86 c 128,-1,34
 189 76 189 76 189 68 c 0,35,36
 189 44 189 44 263 35 c 1,37,-1
 263 0 l 1,38,-1
 2 0 l 1,39,-1
 2 35 l 1,40,41
 29 39 29 39 49 44.5 c 128,-1,42
 69 50 69 50 85.5 58.5 c 128,-1,43
 102 67 102 67 116 79 c 128,-1,44
 130 91 130 91 144 106 c 2,45,-1
 265 238 l 1,46,-1
 97 452 l 2,47,48
 89 462 89 462 82 468.5 c 128,-1,49
 75 475 75 475 65.5 480 c 128,-1,50
 56 485 56 485 43 488.5 c 128,-1,51
 30 492 30 492 10 495 c 1,52,-1
 10 530 l 1,53,-1
 341 530 l 1,54,-1
 341 495 l 1,55,56
 310 493 310 493 295 488.5 c 128,-1,57
 280 484 280 484 280 473 c 0,58,59
 280 463 280 463 297 441 c 2,60,-1
 368 350 l 1,0,-1
EndSplineSet
EndChar
StartChar: braceleft
Encoding: 123 123 169
Width: 340
Flags: W
LayerCount: 2
Back
Fore
SplineSet
318 -180 m 1,0,1
 271 -194 271 -194 223 -194 c 0,2,3
 154 -194 154 -194 123 -165 c 128,-1,4
 92 -136 92 -136 92 -70 c 0,5,6
 92 -43 92 -43 96 -11 c 128,-1,7
 100 21 100 21 105 55.5 c 128,-1,8
 110 90 110 90 114 125.5 c 128,-1,9
 118 161 118 161 118 194 c 0,10,11
 118 259 118 259 96.5 285 c 128,-1,12
 75 311 75 311 22 311 c 1,13,-1
 22 352 l 1,14,15
 74 352 74 352 96 377.5 c 128,-1,16
 118 403 118 403 118 463 c 0,17,18
 118 491 118 491 114 523.5 c 128,-1,19
 110 556 110 556 105 588 c 128,-1,20
 100 620 100 620 96 649 c 128,-1,21
 92 678 92 678 92 701 c 0,22,23
 92 763 92 763 127.5 795.5 c 128,-1,24
 163 828 163 828 230 828 c 0,25,26
 253 828 253 828 275.5 824.5 c 128,-1,27
 298 821 298 821 318 815 c 1,28,-1
 307 774 l 1,29,30
 293 777 293 777 286 778 c 128,-1,31
 279 779 279 779 271 779 c 0,32,33
 205 779 205 779 205 699 c 0,34,35
 205 678 205 678 209 649.5 c 128,-1,36
 213 621 213 621 217.5 589 c 128,-1,37
 222 557 222 557 226 524.5 c 128,-1,38
 230 492 230 492 230 464 c 0,39,40
 230 360 230 360 158 332 c 1,41,-1
 158 328 l 1,42,43
 196 313 196 313 213 284.5 c 128,-1,44
 230 256 230 256 230 202 c 0,45,46
 230 173 230 173 226 136 c 128,-1,47
 222 99 222 99 217.5 62 c 128,-1,48
 213 25 213 25 209 -9 c 128,-1,49
 205 -43 205 -43 205 -65 c 0,50,51
 205 -106 205 -106 220.5 -124 c 128,-1,52
 236 -142 236 -142 271 -142 c 0,53,54
 290 -142 290 -142 307 -136 c 1,55,-1
 318 -180 l 1,0,1
EndSplineSet
EndChar
StartChar: bar
Encoding: 124 124 167
Width: 284
Flags: W
LayerCount: 2
Back
Fore
SplineSet
92 -159 m 1,0,-1
 92 819 l 1,1,-1
 192 819 l 1,2,-1
 192 -159 l 1,3,-1
 92 -159 l 1,0,-1
EndSplineSet
Substitution2: "'tnum' Tabular Numbers in Latin lookup 3 subtable" bar.tnum
EndChar
StartChar: braceright
Encoding: 125 125 170
Width: 340
Flags: W
LayerCount: 2
Back
Fore
SplineSet
33 -136 m 1,0,1
 49 -142 49 -142 69 -142 c 0,2,3
 104 -142 104 -142 119.5 -124 c 128,-1,4
 135 -106 135 -106 135 -65 c 0,5,6
 135 -43 135 -43 131 -9 c 128,-1,7
 127 25 127 25 122.5 62 c 128,-1,8
 118 99 118 99 114 136 c 128,-1,9
 110 173 110 173 110 202 c 0,10,11
 110 256 110 256 127 284.5 c 128,-1,12
 144 313 144 313 182 328 c 1,13,-1
 182 332 l 1,14,15
 110 360 110 360 110 464 c 0,16,17
 110 492 110 492 114 524.5 c 128,-1,18
 118 557 118 557 122.5 589 c 128,-1,19
 127 621 127 621 131 649.5 c 128,-1,20
 135 678 135 678 135 699 c 0,21,22
 135 779 135 779 69 779 c 0,23,24
 61 779 61 779 54 778 c 128,-1,25
 47 777 47 777 33 774 c 1,26,-1
 22 815 l 1,27,28
 42 821 42 821 64.5 824.5 c 128,-1,29
 87 828 87 828 110 828 c 0,30,31
 177 828 177 828 212.5 795.5 c 128,-1,32
 248 763 248 763 248 701 c 0,33,34
 248 678 248 678 244 649 c 128,-1,35
 240 620 240 620 235 588 c 128,-1,36
 230 556 230 556 226 523.5 c 128,-1,37
 222 491 222 491 222 463 c 0,38,39
 222 403 222 403 244 377.5 c 128,-1,40
 266 352 266 352 318 352 c 1,41,-1
 318 311 l 1,42,43
 265 311 265 311 243.5 285 c 128,-1,44
 222 259 222 259 222 194 c 0,45,46
 222 161 222 161 226 125.5 c 128,-1,47
 230 90 230 90 235 55.5 c 128,-1,48
 240 21 240 21 244 -11 c 128,-1,49
 248 -43 248 -43 248 -70 c 0,50,51
 248 -136 248 -136 217 -165 c 128,-1,52
 186 -194 186 -194 117 -194 c 0,53,54
 69 -194 69 -194 22 -180 c 1,55,-1
 33 -136 l 1,0,1
EndSplineSet
EndChar
StartChar: asciitilde
Encoding: 126 126 161
Width: 568
Flags: W
LayerCount: 2
Back
Fore
SplineSet
70 223 m 1,0,1
 70 242 70 242 75.5 266 c 128,-1,2
 81 290 81 290 94.5 310.5 c 128,-1,3
 108 331 108 331 130.5 345 c 128,-1,4
 153 359 153 359 188 359 c 0,5,6
 215 359 215 359 241.5 351 c 128,-1,7
 268 343 268 343 294.5 333 c 128,-1,8
 321 323 321 323 347.5 315 c 128,-1,9
 374 307 374 307 402 307 c 0,10,11
 436 307 436 307 449.5 321.5 c 128,-1,12
 463 336 463 336 470 359 c 1,13,-1
 500 359 l 1,14,15
 500 339 500 339 494.5 315.5 c 128,-1,16
 489 292 489 292 475.5 271.5 c 128,-1,17
 462 251 462 251 439 237 c 128,-1,18
 416 223 416 223 382 223 c 0,19,20
 355 223 355 223 328.5 231.5 c 128,-1,21
 302 240 302 240 275.5 249.5 c 128,-1,22
 249 259 249 259 222 267.5 c 128,-1,23
 195 276 195 276 168 276 c 0,24,25
 134 276 134 276 120.5 261 c 128,-1,26
 107 246 107 246 100 223 c 1,27,-1
 70 223 l 1,0,1
EndSplineSet
EndChar
StartChar: exclamdown
Encoding: 161 161 245
Width: 301
Flags: W
LayerCount: 2
Back
Fore
SplineSet
181 300 m 1,0,1
 181 271 181 271 182.5 245.5 c 128,-1,2
 184 220 184 220 187.5 191.5 c 128,-1,3
 191 163 191 163 197 127.5 c 128,-1,4
 203 92 203 92 212 44 c 0,5,6
 220 3 220 3 225.5 -28.5 c 128,-1,7
 231 -60 231 -60 234.5 -84.5 c 128,-1,8
 238 -109 238 -109 239.5 -127 c 128,-1,9
 241 -145 241 -145 241 -159 c 0,10,11
 241 -260 241 -260 153 -260 c 0,12,13
 60 -260 60 -260 60 -159 c 0,14,15
 60 -132 60 -132 67 -82.5 c 128,-1,16
 74 -33 74 -33 88 41 c 0,17,18
 97 90 97 90 103.5 126.5 c 128,-1,19
 110 163 110 163 113.5 192.5 c 128,-1,20
 117 222 117 222 118.5 247.5 c 128,-1,21
 120 273 120 273 120 300 c 1,22,-1
 181 300 l 1,0,1
238 458 m 256,23,24
 238 422 238 422 212.5 398.5 c 128,-1,25
 187 375 187 375 149 375 c 256,26,27
 111 375 111 375 87 398.5 c 128,-1,28
 63 422 63 422 63 458 c 256,29,30
 63 494 63 494 87.5 517 c 128,-1,31
 112 540 112 540 150 540 c 256,32,33
 188 540 188 540 213 517 c 128,-1,34
 238 494 238 494 238 458 c 256,23,24
EndSplineSet
EndChar
StartChar: cent
Encoding: 162 162 188
Width: 537
Flags: W
LayerCount: 2
Back
Fore
SplineSet
315 540 m 1,0,1
 354 539 354 539 388 529.5 c 128,-1,2
 422 520 422 520 446.5 504 c 128,-1,3
 471 488 471 488 485 467 c 128,-1,4
 499 446 499 446 499 422 c 0,5,6
 499 396 499 396 487 380.5 c 128,-1,7
 475 365 475 365 453 365 c 0,8,9
 427 365 427 365 413 380.5 c 128,-1,10
 399 396 399 396 394 428 c 0,11,12
 388 466 388 466 368.5 484.5 c 128,-1,13
 349 503 349 503 315 507 c 1,14,-1
 315 63 l 1,15,16
 362 63 362 63 401.5 81 c 128,-1,17
 441 99 441 99 468 136 c 2,18,-1
 479 151 l 1,19,-1
 498 141 l 1,20,-1
 493 128 l 2,21,22
 470 68 470 68 424 33 c 128,-1,23
 378 -2 378 -2 315 -8 c 1,24,-1
 315 -130 l 1,25,-1
 273 -130 l 1,26,-1
 273 -9 l 1,27,28
 222 -6 222 -6 179.5 14.5 c 128,-1,29
 137 35 137 35 107 70 c 128,-1,30
 77 105 77 105 60 153 c 128,-1,31
 43 201 43 201 43 258 c 256,32,33
 43 315 43 315 59.5 363.5 c 128,-1,34
 76 412 76 412 106.5 448.5 c 128,-1,35
 137 485 137 485 179.5 508.5 c 128,-1,36
 222 532 222 532 273 538 c 1,37,-1
 273 670 l 1,38,-1
 315 670 l 1,39,-1
 315 540 l 1,0,1
145 278 m 0,40,41
 145 190 145 190 178 136 c 128,-1,42
 211 82 211 82 273 68 c 1,43,-1
 273 506 l 1,44,45
 247 501 247 501 224 482.5 c 128,-1,46
 201 464 201 464 183.5 434.5 c 128,-1,47
 166 405 166 405 155.5 365.5 c 128,-1,48
 145 326 145 326 145 278 c 0,40,41
EndSplineSet
Substitution2: "'tnum' Tabular Numbers in Latin lookup 3 subtable" cent.tnum
EndChar
StartChar: sterling
Encoding: 163 163 444
Width: 680
Flags: W
LayerCount: 2
Back
Fore
SplineSet
124 313 m 1,0,-1
 124 374 l 1,1,-1
 235 374 l 1,2,-1
 257 483 l 2,3,4
 316 775 316 775 501 775 c 0,5,6
 529 775 529 775 553.5 768.5 c 128,-1,7
 578 762 578 762 596 750 c 128,-1,8
 614 738 614 738 624 721.5 c 128,-1,9
 634 705 634 705 634 686 c 0,10,11
 634 660 634 660 616.5 643 c 128,-1,12
 599 626 599 626 570 626 c 0,13,14
 544 626 544 626 531 639.5 c 128,-1,15
 518 653 518 653 510 669 c 128,-1,16
 502 685 502 685 495 698.5 c 128,-1,17
 488 712 488 712 473 712 c 0,18,19
 464 712 464 712 456.5 702.5 c 128,-1,20
 449 693 449 693 440.5 663 c 128,-1,21
 432 633 432 633 421 577.5 c 128,-1,22
 410 522 410 522 394 430 c 2,23,-1
 384 374 l 1,24,-1
 555 374 l 1,25,-1
 555 313 l 1,26,-1
 370 313 l 1,27,28
 355 256 355 256 338 210 c 128,-1,29
 321 164 321 164 301 124 c 1,30,31
 351 96 351 96 425 96 c 0,32,33
 532 96 532 96 555 163 c 1,34,-1
 605 163 l 1,35,36
 605 80 605 80 559.5 35 c 128,-1,37
 514 -10 514 -10 431 -10 c 0,38,39
 388 -10 388 -10 350 3.5 c 128,-1,40
 312 17 312 17 270 47 c 1,41,42
 239 20 239 20 201.5 5.5 c 128,-1,43
 164 -9 164 -9 123 -9 c 0,44,45
 31 -9 31 -9 31 63 c 0,46,47
 31 106 31 106 61.5 134.5 c 128,-1,48
 92 163 92 163 138 163 c 0,49,50
 149 163 149 163 159.5 161.5 c 128,-1,51
 170 160 170 160 184 155 c 1,52,53
 188 164 188 164 191 173.5 c 128,-1,54
 194 183 194 183 198 199.5 c 128,-1,55
 202 216 202 216 207.5 242.5 c 128,-1,56
 213 269 213 269 221 313 c 1,57,-1
 124 313 l 1,0,-1
177 83 m 1,58,59
 160 101 160 101 136 101 c 0,60,61
 96 101 96 101 96 72 c 0,62,63
 96 48 96 48 126 48 c 0,64,65
 159 48 159 48 177 83 c 1,58,59
EndSplineSet
Substitution2: "'tnum' Tabular Numbers in Latin lookup 3 subtable" sterling.tnum
EndChar
StartChar: currency
Encoding: 164 164 198
Width: 622
Flags: W
LayerCount: 2
Back
Fore
SplineSet
122 124 m 1,0,-1
 68 178 l 1,1,-1
 135 244 l 1,2,3
 96 292 96 292 96 368 c 0,4,5
 96 438 96 438 135 491 c 1,6,-1
 68 556 l 1,7,-1
 122 610 l 1,8,-1
 188 543 l 1,9,10
 239 582 239 582 311 582 c 0,11,12
 379 582 379 582 435 544 c 1,13,-1
 500 610 l 1,14,-1
 554 556 l 1,15,-1
 487 490 l 1,16,17
 526 439 526 439 526 368 c 0,18,19
 526 299 526 299 488 244 c 1,20,-1
 554 178 l 1,21,-1
 500 124 l 1,22,-1
 434 191 l 1,23,24
 383 152 383 152 311 152 c 0,25,26
 240 152 240 152 188 191 c 1,27,-1
 122 124 l 1,0,-1
311 221 m 0,28,29
 339 221 339 221 364.5 232.5 c 128,-1,30
 390 244 390 244 409.5 264 c 128,-1,31
 429 284 429 284 440 310.5 c 128,-1,32
 451 337 451 337 451 367 c 256,33,34
 451 397 451 397 440 423.5 c 128,-1,35
 429 450 429 450 409.5 470 c 128,-1,36
 390 490 390 490 364.5 501.5 c 128,-1,37
 339 513 339 513 311 513 c 0,38,39
 282 513 282 513 257 501.5 c 128,-1,40
 232 490 232 490 212.5 470 c 128,-1,41
 193 450 193 450 182 424 c 128,-1,42
 171 398 171 398 171 368 c 256,43,44
 171 338 171 338 182 311.5 c 128,-1,45
 193 285 193 285 212.5 264.5 c 128,-1,46
 232 244 232 244 257 232.5 c 128,-1,47
 282 221 282 221 311 221 c 0,28,29
EndSplineSet
EndChar
StartChar: yen
Encoding: 165 165 521
Width: 693
Flags: W
LayerCount: 2
Back
Fore
SplineSet
130 381 m 1,0,-1
 246 381 l 1,1,-1
 94 686 l 2,2,3
 88 698 88 698 82.5 706.5 c 128,-1,4
 77 715 77 715 70.5 720.5 c 128,-1,5
 64 726 64 726 54.5 728.5 c 128,-1,6
 45 731 45 731 31 733 c 1,7,-1
 31 770 l 1,8,-1
 357 770 l 1,9,-1
 357 733 l 1,10,11
 310 725 310 725 294.5 714.5 c 128,-1,12
 279 704 279 704 279 691 c 0,13,14
 279 682 279 682 285 670 c 2,15,-1
 397 431 l 1,16,-1
 401 431 l 1,17,-1
 517 671 l 2,18,19
 522 681 522 681 522 692 c 0,20,21
 522 709 522 709 505 719 c 128,-1,22
 488 729 488 729 441 733 c 1,23,-1
 441 770 l 1,24,-1
 663 770 l 1,25,-1
 663 733 l 1,26,27
 643 729 643 729 630.5 724.5 c 128,-1,28
 618 720 618 720 608.5 710 c 128,-1,29
 599 700 599 700 590 683 c 128,-1,30
 581 666 581 666 568 636 c 2,31,-1
 449 381 l 1,32,-1
 561 381 l 1,33,-1
 561 320 l 1,34,-1
 434 320 l 1,35,-1
 434 270 l 1,36,-1
 561 270 l 1,37,-1
 561 210 l 1,38,-1
 434 210 l 1,39,-1
 434 58 l 1,40,-1
 523 37 l 1,41,-1
 523 0 l 1,42,-1
 172 0 l 1,43,-1
 172 37 l 1,44,-1
 262 58 l 1,45,-1
 262 210 l 1,46,-1
 130 210 l 1,47,-1
 130 270 l 1,48,-1
 262 270 l 1,49,-1
 262 320 l 1,50,-1
 130 320 l 1,51,-1
 130 381 l 1,0,-1
EndSplineSet
Substitution2: "'tnum' Tabular Numbers in Latin lookup 3 subtable" yen.tnum
EndChar
StartChar: brokenbar
Encoding: 166 166 175
Width: 284
Flags: W
LayerCount: 2
Back
Fore
SplineSet
94 431 m 1,0,-1
 94 819 l 1,1,-1
 190 819 l 1,2,-1
 190 431 l 1,3,-1
 94 431 l 1,0,-1
94 -171 m 1,4,-1
 94 217 l 1,5,-1
 190 217 l 1,6,-1
 190 -171 l 1,7,-1
 94 -171 l 1,4,-1
EndSplineSet
EndChar
StartChar: section
Encoding: 167 167 421
Width: 529
Flags: W
LayerCount: 2
Back
Fore
SplineSet
263 829 m 0,0,1
 307 829 307 829 344.5 820.5 c 128,-1,2
 382 812 382 812 409 796.5 c 128,-1,3
 436 781 436 781 451 759.5 c 128,-1,4
 466 738 466 738 466 713 c 0,5,6
 466 684 466 684 447.5 665 c 128,-1,7
 429 646 429 646 400 646 c 0,8,9
 376 646 376 646 360.5 662 c 128,-1,10
 345 678 345 678 333 715 c 0,11,12
 319 753 319 753 306 766.5 c 128,-1,13
 293 780 293 780 267 780 c 0,14,15
 234 780 234 780 214.5 760 c 128,-1,16
 195 740 195 740 195 706 c 0,17,18
 195 671 195 671 215.5 645.5 c 128,-1,19
 236 620 236 620 267 598.5 c 128,-1,20
 298 577 298 577 333.5 556 c 128,-1,21
 369 535 369 535 400 508.5 c 128,-1,22
 431 482 431 482 451.5 446.5 c 128,-1,23
 472 411 472 411 472 360 c 0,24,25
 472 302 472 302 444 261.5 c 128,-1,26
 416 221 416 221 362 200 c 1,27,28
 384 185 384 185 403.5 167.5 c 128,-1,29
 423 150 423 150 438 128 c 128,-1,30
 453 106 453 106 462 79 c 128,-1,31
 471 52 471 52 471 19 c 0,32,33
 471 -65 471 -65 415.5 -111 c 128,-1,34
 360 -157 360 -157 259 -157 c 0,35,36
 215 -157 215 -157 178 -148.5 c 128,-1,37
 141 -140 141 -140 114 -124 c 128,-1,38
 87 -108 87 -108 72 -87 c 128,-1,39
 57 -66 57 -66 57 -40 c 0,40,41
 57 -11 57 -11 76 8 c 128,-1,42
 95 27 95 27 124 27 c 0,43,44
 147 27 147 27 162 11.5 c 128,-1,45
 177 -4 177 -4 190 -42 c 0,46,47
 203 -81 203 -81 219.5 -94 c 128,-1,48
 236 -107 236 -107 265 -107 c 0,49,50
 295 -107 295 -107 316 -84 c 128,-1,51
 337 -61 337 -61 337 -24 c 0,52,53
 337 12 337 12 316.5 38 c 128,-1,54
 296 64 296 64 265 86.5 c 128,-1,55
 234 109 234 109 197.5 130.5 c 128,-1,56
 161 152 161 152 130 178.5 c 128,-1,57
 99 205 99 205 78.5 240 c 128,-1,58
 58 275 58 275 58 324 c 0,59,60
 58 382 58 382 89 421.5 c 128,-1,61
 120 461 120 461 180 479 c 1,62,63
 156 495 156 495 134.5 513 c 128,-1,64
 113 531 113 531 96 553.5 c 128,-1,65
 79 576 79 576 69 603 c 128,-1,66
 59 630 59 630 59 665 c 0,67,68
 59 743 59 743 112 786 c 128,-1,69
 165 829 165 829 263 829 c 0,0,1
338 317 m 0,70,71
 338 355 338 355 312.5 382.5 c 128,-1,72
 287 410 287 410 250 435 c 1,73,74
 194 419 194 419 194 366 c 0,75,76
 194 324 194 324 224 296 c 128,-1,77
 254 268 254 268 295 243 c 1,78,79
 338 265 338 265 338 317 c 0,70,71
EndSplineSet
Substitution2: "'tnum' Tabular Numbers in Latin lookup 3 subtable" section.tnum
EndChar
StartChar: dieresis
Encoding: 168 168 207
Width: 390
Flags: W
LayerCount: 2
Back
Fore
SplineSet
10 708 m 0,0,1
 10 737 10 737 30 758.5 c 128,-1,2
 50 780 50 780 85 780 c 256,3,4
 120 780 120 780 141 758.5 c 128,-1,5
 162 737 162 737 162 708 c 0,6,7
 162 682 162 682 142.5 659.5 c 128,-1,8
 123 637 123 637 85 637 c 0,9,10
 48 637 48 637 29 659.5 c 128,-1,11
 10 682 10 682 10 708 c 0,0,1
228 708 m 0,12,13
 228 737 228 737 248 758.5 c 128,-1,14
 268 780 268 780 303 780 c 256,15,16
 338 780 338 780 359 758.5 c 128,-1,17
 380 737 380 737 380 708 c 0,18,19
 380 682 380 682 360.5 659.5 c 128,-1,20
 341 637 341 637 303 637 c 0,21,22
 266 637 266 637 247 659.5 c 128,-1,23
 228 682 228 682 228 708 c 0,12,13
EndSplineSet
EndChar
StartChar: copyright
Encoding: 169 169 197
Width: 886
Flags: W
LayerCount: 2
Back
Fore
SplineSet
46 385 m 256,0,1
 46 466 46 466 77 538 c 128,-1,2
 108 610 108 610 162 664 c 128,-1,3
 216 718 216 718 288.5 749 c 128,-1,4
 361 780 361 780 443 780 c 256,5,6
 525 780 525 780 597.5 749 c 128,-1,7
 670 718 670 718 724 664 c 128,-1,8
 778 610 778 610 809 538 c 128,-1,9
 840 466 840 466 840 385 c 256,10,11
 840 304 840 304 809 232 c 128,-1,12
 778 160 778 160 724 106 c 128,-1,13
 670 52 670 52 597.5 21 c 128,-1,14
 525 -10 525 -10 443 -10 c 256,15,16
 361 -10 361 -10 288.5 21 c 128,-1,17
 216 52 216 52 162 106 c 128,-1,18
 108 160 108 160 77 232 c 128,-1,19
 46 304 46 304 46 385 c 256,0,1
111 385 m 256,20,21
 111 316 111 316 137 255.5 c 128,-1,22
 163 195 163 195 208 149 c 128,-1,23
 253 103 253 103 313.5 76.5 c 128,-1,24
 374 50 374 50 443 50 c 256,25,26
 512 50 512 50 572.5 76.5 c 128,-1,27
 633 103 633 103 678 149 c 128,-1,28
 723 195 723 195 748.5 255.5 c 128,-1,29
 774 316 774 316 774 385 c 256,30,31
 774 454 774 454 748.5 514.5 c 128,-1,32
 723 575 723 575 678 621 c 128,-1,33
 633 667 633 667 572.5 693.5 c 128,-1,34
 512 720 512 720 443 720 c 256,35,36
 374 720 374 720 313.5 693.5 c 128,-1,37
 253 667 253 667 208 621 c 128,-1,38
 163 575 163 575 137 514.5 c 128,-1,39
 111 454 111 454 111 385 c 256,20,21
245 384 m 0,40,41
 245 428 245 428 260 465 c 128,-1,42
 275 502 275 502 301 528.5 c 128,-1,43
 327 555 327 555 362.5 570 c 128,-1,44
 398 585 398 585 440 585 c 0,45,46
 473 585 473 585 501 575.5 c 128,-1,47
 529 566 529 566 552 549 c 1,48,-1
 556 549 l 1,49,-1
 577 583 l 1,50,-1
 590 583 l 1,51,-1
 590 446 l 1,52,-1
 562 446 l 1,53,54
 559 457 559 457 555 467 c 128,-1,55
 551 477 551 477 542 492 c 0,56,57
 525 521 525 521 505 533 c 128,-1,58
 485 545 485 545 456 545 c 0,59,60
 402 545 402 545 374.5 505 c 128,-1,61
 347 465 347 465 347 390 c 0,62,63
 347 312 347 312 375 271 c 128,-1,64
 403 230 403 230 454 230 c 0,65,66
 507 230 507 230 537 277 c 0,67,68
 545 290 545 290 552 307 c 128,-1,69
 559 324 559 324 564 345 c 1,70,-1
 590 345 l 1,71,-1
 590 192 l 1,72,-1
 577 192 l 1,73,-1
 554 233 l 1,74,75
 528 211 528 211 501.5 201 c 128,-1,76
 475 191 475 191 440 191 c 0,77,78
 397 191 397 191 361.5 205 c 128,-1,79
 326 219 326 219 300 244.5 c 128,-1,80
 274 270 274 270 259.5 305.5 c 128,-1,81
 245 341 245 341 245 384 c 0,40,41
EndSplineSet
EndChar
StartChar: ordfeminine
Encoding: 170 170 372
Width: 420
Flags: W
LayerCount: 2
Back
Fore
SplineSet
137 422 m 0,0,1
 102 422 102 422 76.5 444 c 128,-1,2
 51 466 51 466 51 502 c 0,3,4
 51 524 51 524 61 542.5 c 128,-1,5
 71 561 71 561 92.5 576 c 128,-1,6
 114 591 114 591 148 603.5 c 128,-1,7
 182 616 182 616 230 627 c 1,8,-1
 230 670 l 2,9,10
 230 702 230 702 219.5 718.5 c 128,-1,11
 209 735 209 735 185 735 c 0,12,13
 165 735 165 735 149 724 c 128,-1,14
 133 713 133 713 133 695 c 0,15,16
 133 690 133 690 134 684 c 128,-1,17
 135 678 135 678 135 672 c 0,18,19
 135 654 135 654 122.5 642 c 128,-1,20
 110 630 110 630 96 630 c 0,21,22
 76 630 76 630 66 640 c 128,-1,23
 56 650 56 650 56 666 c 0,24,25
 56 690 56 690 76 716.5 c 128,-1,26
 96 743 96 743 131 760 c 0,27,28
 151 771 151 771 175.5 775.5 c 128,-1,29
 200 780 200 780 224 780 c 0,30,31
 256 780 256 780 280.5 770.5 c 128,-1,32
 305 761 305 761 314 745 c 0,33,34
 317 739 317 739 318.5 733 c 128,-1,35
 320 727 320 727 320.5 718 c 128,-1,36
 321 709 321 709 321.5 695 c 128,-1,37
 322 681 322 681 322 660 c 2,38,-1
 322 521 l 2,39,40
 322 489 322 489 327 478 c 128,-1,41
 332 467 332 467 346 467 c 0,42,43
 359 467 359 467 373 481 c 1,44,-1
 389 466 l 1,45,46
 355 422 355 422 307 422 c 0,47,48
 246 422 246 422 235 476 c 1,49,-1
 231 477 l 1,50,51
 213 450 213 450 190 436 c 128,-1,52
 167 422 167 422 137 422 c 0,0,1
182 484 m 0,53,54
 217 484 217 484 230 527 c 1,55,-1
 230 591 l 1,56,57
 182 579 182 579 163.5 563 c 128,-1,58
 145 547 145 547 145 524 c 0,59,60
 145 503 145 503 156.5 493.5 c 128,-1,61
 168 484 168 484 182 484 c 0,53,54
EndSplineSet
EndChar
StartChar: guillemotleft
Encoding: 171 171 289
Width: 489
Flags: W
LayerCount: 2
Back
Fore
SplineSet
198 53 m 1,0,-1
 49 236 l 1,1,-1
 49 255 l 1,2,-1
 196 436 l 1,3,-1
 226 423 l 1,4,-1
 172 246 l 1,5,-1
 228 68 l 1,6,-1
 198 53 l 1,0,-1
391 53 m 1,7,-1
 242 236 l 1,8,-1
 242 255 l 1,9,-1
 389 436 l 1,10,-1
 419 423 l 1,11,-1
 365 246 l 1,12,-1
 421 68 l 1,13,-1
 391 53 l 1,7,-1
EndSplineSet
EndChar
StartChar: logicalnot
Encoding: 172 172 323
Width: 548
Flags: W
LayerCount: 2
Back
Fore
SplineSet
409 245 m 1,0,-1
 70 245 l 1,1,-1
 70 308 l 1,2,-1
 480 308 l 1,3,-1
 480 137 l 1,4,-1
 409 137 l 1,5,-1
 409 245 l 1,0,-1
EndSplineSet
EndChar
StartChar: uni00AD
Encoding: 173 173 483
Width: 445
Flags: W
LayerCount: 2
Back
Fore
SplineSet
63 199 m 1,0,-1
 63 305 l 1,1,-1
 382 305 l 1,2,-1
 382 199 l 1,3,-1
 63 199 l 1,0,-1
EndSplineSet
EndChar
StartChar: registered
Encoding: 174 174 411
Width: 672
Flags: W
LayerCount: 2
Back
Fore
SplineSet
58 504 m 256,0,1
 58 561 58 561 80 611.5 c 128,-1,2
 102 662 102 662 139.5 699.5 c 128,-1,3
 177 737 177 737 228 758.5 c 128,-1,4
 279 780 279 780 336 780 c 256,5,6
 393 780 393 780 444 758.5 c 128,-1,7
 495 737 495 737 532.5 699.5 c 128,-1,8
 570 662 570 662 592 611.5 c 128,-1,9
 614 561 614 561 614 504 c 256,10,11
 614 447 614 447 592 396.5 c 128,-1,12
 570 346 570 346 532.5 308.5 c 128,-1,13
 495 271 495 271 444 249 c 128,-1,14
 393 227 393 227 336 227 c 256,15,16
 279 227 279 227 228 249 c 128,-1,17
 177 271 177 271 139.5 308.5 c 128,-1,18
 102 346 102 346 80 396.5 c 128,-1,19
 58 447 58 447 58 504 c 256,0,1
106 504 m 256,20,21
 106 456 106 456 124 413 c 128,-1,22
 142 370 142 370 173 338 c 128,-1,23
 204 306 204 306 246 287.5 c 128,-1,24
 288 269 288 269 336 269 c 256,25,26
 384 269 384 269 426 287.5 c 128,-1,27
 468 306 468 306 499 338 c 128,-1,28
 530 370 530 370 548 413 c 128,-1,29
 566 456 566 456 566 504 c 256,30,31
 566 552 566 552 548 595 c 128,-1,32
 530 638 530 638 499 670 c 128,-1,33
 468 702 468 702 426 720.5 c 128,-1,34
 384 739 384 739 336 739 c 256,35,36
 288 739 288 739 246 720.5 c 128,-1,37
 204 702 204 702 173 670 c 128,-1,38
 142 638 142 638 124 595 c 128,-1,39
 106 552 106 552 106 504 c 256,20,21
232 655 m 1,40,-1
 338 655 l 2,41,42
 383 655 383 655 412 635 c 128,-1,43
 441 615 441 615 441 577 c 0,44,45
 441 530 441 530 392 511 c 1,46,-1
 439 401 l 1,47,-1
 466 394 l 1,48,-1
 466 377 l 1,49,-1
 380 377 l 1,50,-1
 333 503 l 1,51,-1
 309 503 l 1,52,-1
 309 401 l 1,53,-1
 336 394 l 1,54,-1
 336 377 l 1,55,-1
 232 377 l 1,56,-1
 232 394 l 1,57,-1
 252 401 l 1,58,-1
 252 636 l 1,59,-1
 232 643 l 1,60,-1
 232 655 l 1,40,-1
309 528 m 1,61,62
 321 528 321 528 333.5 530.5 c 128,-1,63
 346 533 346 533 356.5 539 c 128,-1,64
 367 545 367 545 374 555.5 c 128,-1,65
 381 566 381 566 381 581 c 0,66,67
 381 630 381 630 309 630 c 1,68,-1
 309 528 l 1,61,62
EndSplineSet
EndChar
StartChar: macron
Encoding: 175 175 326
Width: 327
Flags: W
LayerCount: 2
Back
Fore
SplineSet
10 694 m 1,0,-1
 10 790 l 1,1,-1
 317 790 l 1,2,-1
 317 694 l 1,3,-1
 10 694 l 1,0,-1
EndSplineSet
EndChar
StartChar: degree
Encoding: 176 176 205
Width: 322
Flags: W
LayerCount: 2
Back
Fore
SplineSet
161 587 m 0,0,1
 135 587 135 587 113 596.5 c 128,-1,2
 91 606 91 606 75 622 c 128,-1,3
 59 638 59 638 49.5 660 c 128,-1,4
 40 682 40 682 40 708 c 0,5,6
 40 733 40 733 49.5 755.5 c 128,-1,7
 59 778 59 778 75 794.5 c 128,-1,8
 91 811 91 811 113 820.5 c 128,-1,9
 135 830 135 830 161 830 c 0,10,11
 186 830 186 830 208 820.5 c 128,-1,12
 230 811 230 811 246.5 794.5 c 128,-1,13
 263 778 263 778 272.5 755.5 c 128,-1,14
 282 733 282 733 282 708 c 0,15,16
 282 682 282 682 272.5 660 c 128,-1,17
 263 638 263 638 247 622 c 128,-1,18
 231 606 231 606 208.5 596.5 c 128,-1,19
 186 587 186 587 161 587 c 0,0,1
96 708 m 0,20,21
 96 680 96 680 114.5 661.5 c 128,-1,22
 133 643 133 643 161 643 c 0,23,24
 190 643 190 643 208 661.5 c 128,-1,25
 226 680 226 680 226 708 c 0,26,27
 226 737 226 737 208 756 c 128,-1,28
 190 775 190 775 161 775 c 0,29,30
 133 775 133 775 114.5 756 c 128,-1,31
 96 737 96 737 96 708 c 0,20,21
EndSplineSet
Substitution2: "'tnum' Tabular Numbers in Latin lookup 3 subtable" degree.tnum
EndChar
StartChar: plusminus
Encoding: 177 177 391
Width: 556
Flags: W
LayerCount: 2
Back
Fore
SplineSet
245 414 m 1,0,-1
 73 414 l 1,1,-1
 73 479 l 1,2,-1
 245 479 l 1,3,-1
 245 651 l 1,4,-1
 312 651 l 1,5,-1
 312 479 l 1,6,-1
 483 479 l 1,7,-1
 483 414 l 1,8,-1
 312 414 l 1,9,-1
 312 241 l 1,10,-1
 245 241 l 1,11,-1
 245 414 l 1,0,-1
73 98 m 1,12,-1
 73 163 l 1,13,-1
 483 163 l 1,14,-1
 483 98 l 1,15,-1
 73 98 l 1,12,-1
EndSplineSet
Substitution2: "'tnum' Tabular Numbers in Latin lookup 3 subtable" plusminus.tnum
EndChar
StartChar: twosuperior
Encoding: 178 178 469
Width: 464
Flags: W
LayerCount: 2
Back
Fore
SplineSet
30 419 m 1,0,-1
 23 462 l 1,1,2
 92 518 92 518 140.5 563 c 128,-1,3
 189 608 189 608 219.5 645 c 128,-1,4
 250 682 250 682 263.5 713 c 128,-1,5
 277 744 277 744 277 773 c 0,6,7
 277 815 277 815 253.5 839 c 128,-1,8
 230 863 230 863 190 863 c 0,9,10
 155 863 155 863 120.5 841.5 c 128,-1,11
 86 820 86 820 66 787 c 1,12,-1
 28 802 l 1,13,14
 57 862 57 862 111 895 c 128,-1,15
 165 928 165 928 234 928 c 0,16,17
 274 928 274 928 309 917 c 128,-1,18
 344 906 344 906 370 887 c 128,-1,19
 396 868 396 868 410.5 842 c 128,-1,20
 425 816 425 816 425 786 c 256,21,22
 425 756 425 756 412.5 727 c 128,-1,23
 400 698 400 698 370.5 665.5 c 128,-1,24
 341 633 341 633 292 595 c 128,-1,25
 243 557 243 557 170 510 c 1,26,-1
 340 510 l 1,27,28
 354 521 354 521 365.5 536.5 c 128,-1,29
 377 552 377 552 392 575 c 1,30,-1
 433 569 l 1,31,-1
 367 396 l 1,32,-1
 339 396 l 1,33,-1
 320 419 l 1,34,-1
 30 419 l 1,0,-1
EndSplineSet
EndChar
StartChar: threesuperior
Encoding: 179 179 459
Width: 444
Flags: W
LayerCount: 2
Back
Fore
SplineSet
106 687 m 1,0,1
 169 707 169 707 206 740.5 c 128,-1,2
 243 774 243 774 243 810 c 0,3,4
 243 835 243 835 226.5 849.5 c 128,-1,5
 210 864 210 864 180 864 c 0,6,7
 151 864 151 864 122 847.5 c 128,-1,8
 93 831 93 831 78 805 c 1,9,-1
 47 815 l 1,10,11
 61 866 61 866 109 897 c 128,-1,12
 157 928 157 928 226 928 c 256,13,14
 295 928 295 928 336 900 c 128,-1,15
 377 872 377 872 377 825 c 0,16,17
 377 805 377 805 367.5 787.5 c 128,-1,18
 358 770 358 770 342 756 c 128,-1,19
 326 742 326 742 305.5 732.5 c 128,-1,20
 285 723 285 723 263 720 c 1,21,-1
 263 716 l 1,22,23
 331 711 331 711 372 676.5 c 128,-1,24
 413 642 413 642 413 585 c 0,25,26
 413 549 413 549 395 517.5 c 128,-1,27
 377 486 377 486 346 462.5 c 128,-1,28
 315 439 315 439 273 425.5 c 128,-1,29
 231 412 231 412 183 412 c 0,30,31
 148 412 148 412 118.5 419 c 128,-1,32
 89 426 89 426 66.5 438.5 c 128,-1,33
 44 451 44 451 31.5 467.5 c 128,-1,34
 19 484 19 484 19 503 c 0,35,36
 19 525 19 525 35.5 539 c 128,-1,37
 52 553 52 553 79 553 c 0,38,39
 107 553 107 553 118.5 538 c 128,-1,40
 130 523 130 523 139 505 c 128,-1,41
 148 487 148 487 161 472 c 128,-1,42
 174 457 174 457 203 457 c 0,43,44
 235 457 235 457 251 480 c 128,-1,45
 267 503 267 503 267 546 c 0,46,47
 267 600 267 600 240 629.5 c 128,-1,48
 213 659 213 659 162 659 c 0,49,50
 152 659 152 659 139.5 658.5 c 128,-1,51
 127 658 127 658 121 656 c 1,52,-1
 106 687 l 1,0,1
EndSplineSet
EndChar
StartChar: acute
Encoding: 180 180 148
Width: 181
Flags: W
LayerCount: 2
Back
Fore
SplineSet
10 642 m 1,0,-1
 51 793 l 2,1,2
 69 859 69 859 126 859 c 0,3,4
 146 859 146 859 158.5 846.5 c 128,-1,5
 171 834 171 834 171 814 c 0,6,7
 171 799 171 799 163 780.5 c 128,-1,8
 155 762 155 762 138 742 c 2,9,-1
 41 631 l 1,10,-1
 10 642 l 1,0,-1
EndSplineSet
EndChar
StartChar: mu
Encoding: 181 181 330
Width: 675
Flags: W
LayerCount: 2
Back
Fore
SplineSet
416 55 m 1,0,-1
 412 56 l 1,1,2
 370 -10 370 -10 299 -10 c 0,3,4
 220 -10 220 -10 195 72 c 1,5,-1
 192 70 l 1,6,7
 192 25 192 25 198.5 -8 c 128,-1,8
 205 -41 205 -41 212.5 -67.5 c 128,-1,9
 220 -94 220 -94 226.5 -118.5 c 128,-1,10
 233 -143 233 -143 233 -172 c 0,11,12
 233 -211 233 -211 210.5 -235.5 c 128,-1,13
 188 -260 188 -260 153 -260 c 0,14,15
 115 -260 115 -260 95.5 -230 c 128,-1,16
 76 -200 76 -200 76 -143 c 0,17,18
 76 -122 76 -122 78.5 -90 c 128,-1,19
 81 -58 81 -58 83.5 -21 c 128,-1,20
 86 16 86 16 88.5 54.5 c 128,-1,21
 91 93 91 93 91 127 c 2,22,-1
 91 530 l 1,23,-1
 246 530 l 1,24,-1
 246 234 l 2,25,26
 246 185 246 185 248.5 161 c 128,-1,27
 251 137 251 137 258 123 c 0,28,29
 276 81 276 81 331 81 c 0,30,31
 378 81 378 81 410 110 c 1,32,-1
 410 530 l 1,33,-1
 565 530 l 1,34,-1
 565 90 l 1,35,-1
 641 62 l 1,36,-1
 641 39 l 1,37,-1
 438 -10 l 1,38,-1
 416 -10 l 1,39,-1
 416 55 l 1,0,-1
EndSplineSet
EndChar
StartChar: paragraph
Encoding: 182 182 378
Width: 635
Flags: W
LayerCount: 2
Back
Fore
SplineSet
292 -108 m 1,0,-1
 292 340 l 1,1,-1
 236 340 l 2,2,3
 188 340 188 340 150 357 c 128,-1,4
 112 374 112 374 85 403.5 c 128,-1,5
 58 433 58 433 43.5 471.5 c 128,-1,6
 29 510 29 510 29 554 c 0,7,8
 29 603 29 603 45 643 c 128,-1,9
 61 683 61 683 91 711 c 128,-1,10
 121 739 121 739 164 754.5 c 128,-1,11
 207 770 207 770 261 770 c 2,12,-1
 588 770 l 1,13,-1
 588 730 l 1,14,-1
 510 713 l 1,15,-1
 510 -108 l 1,16,-1
 435 -108 l 1,17,-1
 435 715 l 1,18,-1
 366 715 l 1,19,-1
 366 -108 l 1,20,-1
 292 -108 l 1,0,-1
EndSplineSet
Substitution2: "'tnum' Tabular Numbers in Latin lookup 3 subtable" paragraph.tnum
EndChar
StartChar: periodcentered
Encoding: 183 183 386
Width: 297
Flags: W
LayerCount: 2
Back
Fore
SplineSet
59 287 m 256,0,1
 59 325 59 325 83.5 350 c 128,-1,2
 108 375 108 375 147 375 c 0,3,4
 187 375 187 375 213 350 c 128,-1,5
 239 325 239 325 239 287 c 256,6,7
 239 249 239 249 213.5 225 c 128,-1,8
 188 201 188 201 148 201 c 256,9,10
 108 201 108 201 83.5 225 c 128,-1,11
 59 249 59 249 59 287 c 256,0,1
EndSplineSet
Substitution2: "'tnum' Tabular Numbers in Latin lookup 3 subtable" periodcentered.tnum
EndChar
StartChar: cedilla
Encoding: 184 184 187
Width: 250
Flags: W
LayerCount: 2
Back
Fore
SplineSet
29 -188 m 1,0,1
 56 -202 56 -202 83 -202 c 0,2,3
 106 -202 106 -202 120.5 -190.5 c 128,-1,4
 135 -179 135 -179 135 -165 c 256,5,6
 135 -151 135 -151 124.5 -143 c 128,-1,7
 114 -135 114 -135 97 -135 c 0,8,9
 87 -135 87 -135 74 -137 c 128,-1,10
 61 -139 61 -139 51 -143 c 1,11,-1
 37 -134 l 1,12,-1
 97 17 l 1,13,-1
 154 17 l 1,14,-1
 125 -58 l 1,15,16
 179 -58 179 -58 209.5 -86 c 128,-1,17
 240 -114 240 -114 240 -156 c 0,18,19
 240 -200 240 -200 204.5 -228.5 c 128,-1,20
 169 -257 169 -257 108 -257 c 0,21,22
 79 -257 79 -257 52.5 -250.5 c 128,-1,23
 26 -244 26 -244 10 -233 c 1,24,-1
 29 -188 l 1,0,1
EndSplineSet
EndChar
StartChar: onesuperior
Encoding: 185 185 369
Width: 400
Flags: W
LayerCount: 2
Back
Fore
SplineSet
278 923 m 1,0,-1
 278 462 l 1,1,-1
 375 444 l 1,2,-1
 375 419 l 1,3,-1
 50 419 l 1,4,-1
 50 444 l 1,5,-1
 143 462 l 1,6,-1
 143 819 l 1,7,-1
 49 819 l 1,8,-1
 49 850 l 1,9,10
 106 857 106 857 148.5 876 c 128,-1,11
 191 895 191 895 235 928 c 1,12,-1
 278 923 l 1,0,-1
EndSplineSet
EndChar
StartChar: ordmasculine
Encoding: 186 186 373
Width: 424
Flags: W
LayerCount: 2
Back
Fore
SplineSet
212 780 m 256,0,1
 249 780 249 780 280 766.5 c 128,-1,2
 311 753 311 753 334 729 c 128,-1,3
 357 705 357 705 370 672.5 c 128,-1,4
 383 640 383 640 383 601 c 256,5,6
 383 562 383 562 370 529.5 c 128,-1,7
 357 497 357 497 334 473 c 128,-1,8
 311 449 311 449 280 435.5 c 128,-1,9
 249 422 249 422 212 422 c 256,10,11
 175 422 175 422 144 435.5 c 128,-1,12
 113 449 113 449 90 473 c 128,-1,13
 67 497 67 497 54 529.5 c 128,-1,14
 41 562 41 562 41 601 c 256,15,16
 41 640 41 640 54 672.5 c 128,-1,17
 67 705 67 705 90 729 c 128,-1,18
 113 753 113 753 144 766.5 c 128,-1,19
 175 780 175 780 212 780 c 256,0,1
140 601 m 256,20,21
 140 537 140 537 158.5 501.5 c 128,-1,22
 177 466 177 466 211 466 c 0,23,24
 246 466 246 466 265 502 c 128,-1,25
 284 538 284 538 284 602 c 0,26,27
 284 665 284 665 265.5 700 c 128,-1,28
 247 735 247 735 212 735 c 256,29,30
 177 735 177 735 158.5 700 c 128,-1,31
 140 665 140 665 140 601 c 256,20,21
EndSplineSet
EndChar
StartChar: guillemotright
Encoding: 187 187 290
Width: 489
Flags: W
LayerCount: 2
Back
Fore
SplineSet
261 68 m 1,0,-1
 317 246 l 1,1,-1
 263 423 l 1,2,-1
 293 436 l 1,3,-1
 440 255 l 1,4,-1
 440 236 l 1,5,-1
 291 53 l 1,6,-1
 261 68 l 1,0,-1
68 68 m 1,7,-1
 124 246 l 1,8,-1
 70 423 l 1,9,-1
 100 436 l 1,10,-1
 247 255 l 1,11,-1
 247 236 l 1,12,-1
 98 53 l 1,13,-1
 68 68 l 1,7,-1
EndSplineSet
EndChar
StartChar: onequarter
Encoding: 188 188 368
Width: 1034
Flags: W
LayerCount: 2
Back
Fore
SplineSet
272 0 m 1,0,-1
 736 770 l 1,1,-1
 841 770 l 1,2,-1
 376 0 l 1,3,-1
 272 0 l 1,0,-1
274 778 m 1,4,-1
 274 317 l 1,5,-1
 371 299 l 1,6,-1
 371 274 l 1,7,-1
 46 274 l 1,8,-1
 46 299 l 1,9,-1
 139 317 l 1,10,-1
 139 674 l 1,11,-1
 45 674 l 1,12,-1
 45 705 l 1,13,14
 102 712 102 712 144.5 731 c 128,-1,15
 187 750 187 750 231 783 c 1,16,-1
 274 778 l 1,4,-1
789 123 m 1,17,-1
 583 123 l 1,18,-1
 566 166 l 1,19,-1
 848 509 l 1,20,-1
 926 503 l 1,21,-1
 926 189 l 1,22,-1
 998 189 l 1,23,-1
 998 123 l 1,24,-1
 926 123 l 1,25,-1
 926 42 l 1,26,-1
 995 26 l 1,27,-1
 995 0 l 1,28,-1
 696 0 l 1,29,-1
 696 26 l 1,30,-1
 789 42 l 1,31,-1
 789 123 l 1,17,-1
789 356 m 1,32,-1
 785 356 l 1,33,-1
 653 193 l 1,34,-1
 654 189 l 1,35,-1
 789 189 l 1,36,-1
 789 356 l 1,32,-1
EndSplineSet
Ligature2: "'frac' Diagonal Fractions in Latin lookup 2 subtable" one slash four
Ligature2: "'frac' Diagonal Fractions in Latin lookup 2 subtable" one fraction four
EndChar
StartChar: onehalf
Encoding: 189 189 366
Width: 1054
Flags: W
LayerCount: 2
Back
Fore
SplineSet
231 0 m 1,0,-1
 695 770 l 1,1,-1
 800 770 l 1,2,-1
 335 0 l 1,3,-1
 231 0 l 1,0,-1
272 778 m 1,4,-1
 272 317 l 1,5,-1
 369 299 l 1,6,-1
 369 274 l 1,7,-1
 44 274 l 1,8,-1
 44 299 l 1,9,-1
 137 317 l 1,10,-1
 137 674 l 1,11,-1
 43 674 l 1,12,-1
 43 705 l 1,13,14
 100 712 100 712 142.5 731 c 128,-1,15
 185 750 185 750 229 783 c 1,16,-1
 272 778 l 1,4,-1
616 0 m 1,17,-1
 609 43 l 1,18,19
 678 99 678 99 726.5 144 c 128,-1,20
 775 189 775 189 805.5 226 c 128,-1,21
 836 263 836 263 849.5 294 c 128,-1,22
 863 325 863 325 863 354 c 0,23,24
 863 396 863 396 839.5 420 c 128,-1,25
 816 444 816 444 776 444 c 0,26,27
 741 444 741 444 706.5 422.5 c 128,-1,28
 672 401 672 401 652 368 c 1,29,-1
 614 383 l 1,30,31
 643 443 643 443 697 476 c 128,-1,32
 751 509 751 509 820 509 c 0,33,34
 860 509 860 509 895 498 c 128,-1,35
 930 487 930 487 956 468 c 128,-1,36
 982 449 982 449 996.5 423 c 128,-1,37
 1011 397 1011 397 1011 367 c 256,38,39
 1011 337 1011 337 998.5 308 c 128,-1,40
 986 279 986 279 956.5 246.5 c 128,-1,41
 927 214 927 214 878 176 c 128,-1,42
 829 138 829 138 756 91 c 1,43,-1
 926 91 l 1,44,45
 940 102 940 102 951.5 117.5 c 128,-1,46
 963 133 963 133 978 156 c 1,47,-1
 1019 150 l 1,48,-1
 953 -23 l 1,49,-1
 925 -23 l 1,50,-1
 906 0 l 1,51,-1
 616 0 l 1,17,-1
EndSplineSet
Ligature2: "'frac' Diagonal Fractions in Latin lookup 2 subtable" one slash two
Ligature2: "'frac' Diagonal Fractions in Latin lookup 2 subtable" one fraction two
EndChar
StartChar: threequarters
Encoding: 190 190 458
Width: 1038
Flags: W
LayerCount: 2
Back
Fore
SplineSet
275 0 m 1,0,-1
 739 770 l 1,1,-1
 844 770 l 1,2,-1
 379 0 l 1,3,-1
 275 0 l 1,0,-1
793 123 m 1,4,-1
 587 123 l 1,5,-1
 570 166 l 1,6,-1
 852 509 l 1,7,-1
 930 503 l 1,8,-1
 930 189 l 1,9,-1
 1002 189 l 1,10,-1
 1002 123 l 1,11,-1
 930 123 l 1,12,-1
 930 42 l 1,13,-1
 999 26 l 1,14,-1
 999 0 l 1,15,-1
 700 0 l 1,16,-1
 700 26 l 1,17,-1
 793 42 l 1,18,-1
 793 123 l 1,4,-1
793 356 m 1,19,-1
 789 356 l 1,20,-1
 657 193 l 1,21,-1
 658 189 l 1,22,-1
 793 189 l 1,23,-1
 793 356 l 1,19,-1
122 539 m 1,24,25
 185 559 185 559 222 592.5 c 128,-1,26
 259 626 259 626 259 662 c 0,27,28
 259 687 259 687 242.5 701.5 c 128,-1,29
 226 716 226 716 196 716 c 0,30,31
 167 716 167 716 138 699.5 c 128,-1,32
 109 683 109 683 94 657 c 1,33,-1
 63 667 l 1,34,35
 77 718 77 718 125 749 c 128,-1,36
 173 780 173 780 242 780 c 256,37,38
 311 780 311 780 352 752 c 128,-1,39
 393 724 393 724 393 677 c 0,40,41
 393 657 393 657 383.5 639.5 c 128,-1,42
 374 622 374 622 358 608 c 128,-1,43
 342 594 342 594 321.5 584.5 c 128,-1,44
 301 575 301 575 279 572 c 1,45,-1
 279 568 l 1,46,47
 347 563 347 563 388 528.5 c 128,-1,48
 429 494 429 494 429 437 c 0,49,50
 429 401 429 401 411 369.5 c 128,-1,51
 393 338 393 338 362 314.5 c 128,-1,52
 331 291 331 291 289 277.5 c 128,-1,53
 247 264 247 264 199 264 c 0,54,55
 164 264 164 264 134.5 271 c 128,-1,56
 105 278 105 278 82.5 290.5 c 128,-1,57
 60 303 60 303 47.5 319.5 c 128,-1,58
 35 336 35 336 35 355 c 0,59,60
 35 377 35 377 51.5 391 c 128,-1,61
 68 405 68 405 95 405 c 0,62,63
 123 405 123 405 134.5 390 c 128,-1,64
 146 375 146 375 155 357 c 128,-1,65
 164 339 164 339 177 324 c 128,-1,66
 190 309 190 309 219 309 c 0,67,68
 251 309 251 309 267 332 c 128,-1,69
 283 355 283 355 283 398 c 0,70,71
 283 452 283 452 256 481.5 c 128,-1,72
 229 511 229 511 178 511 c 0,73,74
 168 511 168 511 155.5 510.5 c 128,-1,75
 143 510 143 510 137 508 c 1,76,-1
 122 539 l 1,24,25
EndSplineSet
Ligature2: "'frac' Diagonal Fractions in Latin lookup 2 subtable" three slash four
Ligature2: "'frac' Diagonal Fractions in Latin lookup 2 subtable" three fraction four
EndChar
StartChar: questiondown
Encoding: 191 191 395
Width: 446
Flags: W
LayerCount: 2
Back
Fore
SplineSet
323 290 m 1,0,-1
 323 59 l 1,1,-1
 267 59 l 2,2,3
 176 59 176 59 130.5 40.5 c 128,-1,4
 85 22 85 22 85 -11 c 0,5,6
 85 -23 85 -23 89 -32.5 c 128,-1,7
 93 -42 93 -42 106.5 -51.5 c 128,-1,8
 120 -61 120 -61 145.5 -72.5 c 128,-1,9
 171 -84 171 -84 213 -100 c 0,10,11
 285 -127 285 -127 312.5 -151 c 128,-1,12
 340 -175 340 -175 340 -201 c 0,13,14
 340 -260 340 -260 272 -260 c 0,15,16
 221 -260 221 -260 177 -242.5 c 128,-1,17
 133 -225 133 -225 101 -193 c 128,-1,18
 69 -161 69 -161 51 -114.5 c 128,-1,19
 33 -68 33 -68 33 -9 c 0,20,21
 33 86 33 86 83 139 c 128,-1,22
 133 192 133 192 224 195 c 2,23,-1
 254 196 l 1,24,-1
 254 290 l 1,25,-1
 323 290 l 1,0,-1
376 448 m 0,26,27
 376 415 376 415 353.5 390 c 128,-1,28
 331 365 331 365 290 365 c 0,29,30
 248 365 248 365 224.5 390 c 128,-1,31
 201 415 201 415 201 448 c 0,32,33
 201 479 201 479 223.5 504.5 c 128,-1,34
 246 530 246 530 290 530 c 0,35,36
 332 530 332 530 354 504.5 c 128,-1,37
 376 479 376 479 376 448 c 0,26,27
EndSplineSet
EndChar
StartChar: Agrave
Encoding: 192 192 8
Width: 781
Flags: W
LayerCount: 2
Back
Fore
SplineSet
442 222 m 1,0,-1
 217 222 l 1,1,-1
 188 146 l 2,2,3
 177 116 177 116 177 99 c 0,4,5
 177 73 177 73 202 59.5 c 128,-1,6
 227 46 227 46 290 37 c 1,7,-1
 290 0 l 1,8,-1
 -20 0 l 1,9,-1
 -20 37 l 1,10,11
 15 43 15 43 36.5 49.5 c 128,-1,12
 58 56 58 56 72.5 68 c 128,-1,13
 87 80 87 80 97 99 c 128,-1,14
 107 118 107 118 119 148 c 2,15,-1
 308 630 l 1,16,-1
 262 733 l 1,17,-1
 411 790 l 1,18,-1
 697 98 l 2,19,20
 704 81 704 81 711.5 70 c 128,-1,21
 719 59 719 59 730.5 52 c 128,-1,22
 742 45 742 45 760 42 c 128,-1,23
 778 39 778 39 805 37 c 1,24,-1
 805 0 l 1,25,-1
 393 0 l 1,26,-1
 393 37 l 1,27,28
 448 39 448 39 469.5 46.5 c 128,-1,29
 491 54 491 54 491 74 c 0,30,31
 491 90 491 90 482 114 c 2,32,-1
 442 222 l 1,0,-1
330 516 m 1,33,-1
 239 279 l 1,34,-1
 421 279 l 1,35,-1
 334 516 l 1,36,-1
 330 516 l 1,33,-1
445 817 m 1,37,-1
 280 849 l 2,38,39
 248 855 248 855 234.5 872.5 c 128,-1,40
 221 890 221 890 221 909 c 0,41,42
 221 930 221 930 235.5 946.5 c 128,-1,43
 250 963 250 963 276 963 c 0,44,45
 289 963 289 963 304.5 957.5 c 128,-1,46
 320 952 320 952 337 939 c 2,47,-1
 462 845 l 1,48,-1
 445 817 l 1,37,-1
EndSplineSet
EndChar
StartChar: Atilde
Encoding: 195 195 13
Width: 781
Flags: W
LayerCount: 2
Back
Fore
SplineSet
442 222 m 1,0,-1
 217 222 l 1,1,-1
 188 146 l 2,2,3
 177 116 177 116 177 99 c 0,4,5
 177 73 177 73 202 59.5 c 128,-1,6
 227 46 227 46 290 37 c 1,7,-1
 290 0 l 1,8,-1
 -20 0 l 1,9,-1
 -20 37 l 1,10,11
 15 43 15 43 36.5 49.5 c 128,-1,12
 58 56 58 56 72.5 68 c 128,-1,13
 87 80 87 80 97 99 c 128,-1,14
 107 118 107 118 119 148 c 2,15,-1
 308 630 l 1,16,-1
 262 733 l 1,17,-1
 411 790 l 1,18,-1
 697 98 l 2,19,20
 704 81 704 81 711.5 70 c 128,-1,21
 719 59 719 59 730.5 52 c 128,-1,22
 742 45 742 45 760 42 c 128,-1,23
 778 39 778 39 805 37 c 1,24,-1
 805 0 l 1,25,-1
 393 0 l 1,26,-1
 393 37 l 1,27,28
 448 39 448 39 469.5 46.5 c 128,-1,29
 491 54 491 54 491 74 c 0,30,31
 491 90 491 90 482 114 c 2,32,-1
 442 222 l 1,0,-1
330 516 m 1,33,-1
 239 279 l 1,34,-1
 421 279 l 1,35,-1
 334 516 l 1,36,-1
 330 516 l 1,33,-1
199 821 m 1,37,38
 199 892 199 892 229 927.5 c 128,-1,39
 259 963 259 963 306 963 c 0,40,41
 325 963 325 963 340 957.5 c 128,-1,42
 355 952 355 952 368.5 945 c 128,-1,43
 382 938 382 938 396 932.5 c 128,-1,44
 410 927 410 927 427 927 c 0,45,46
 477 927 477 927 487 965 c 1,47,-1
 526 965 l 1,48,49
 526 896 526 896 500.5 858 c 128,-1,50
 475 820 475 820 424 820 c 0,51,52
 403 820 403 820 388 826 c 128,-1,53
 373 832 373 832 359.5 839.5 c 128,-1,54
 346 847 346 847 332 853 c 128,-1,55
 318 859 318 859 299 859 c 0,56,57
 273 859 273 859 257 848.5 c 128,-1,58
 241 838 241 838 238 821 c 1,59,-1
 199 821 l 1,37,38
EndSplineSet
EndChar
StartChar: Adieresis
Encoding: 196 196 7
Width: 781
Flags: W
LayerCount: 2
Back
Fore
SplineSet
442 222 m 1,0,-1
 217 222 l 1,1,-1
 188 146 l 2,2,3
 177 116 177 116 177 99 c 0,4,5
 177 73 177 73 202 59.5 c 128,-1,6
 227 46 227 46 290 37 c 1,7,-1
 290 0 l 1,8,-1
 -20 0 l 1,9,-1
 -20 37 l 1,10,11
 15 43 15 43 36.5 49.5 c 128,-1,12
 58 56 58 56 72.5 68 c 128,-1,13
 87 80 87 80 97 99 c 128,-1,14
 107 118 107 118 119 148 c 2,15,-1
 308 630 l 1,16,-1
 262 733 l 1,17,-1
 411 790 l 1,18,-1
 697 98 l 2,19,20
 704 81 704 81 711.5 70 c 128,-1,21
 719 59 719 59 730.5 52 c 128,-1,22
 742 45 742 45 760 42 c 128,-1,23
 778 39 778 39 805 37 c 1,24,-1
 805 0 l 1,25,-1
 393 0 l 1,26,-1
 393 37 l 1,27,28
 448 39 448 39 469.5 46.5 c 128,-1,29
 491 54 491 54 491 74 c 0,30,31
 491 90 491 90 482 114 c 2,32,-1
 442 222 l 1,0,-1
330 516 m 1,33,-1
 239 279 l 1,34,-1
 421 279 l 1,35,-1
 334 516 l 1,36,-1
 330 516 l 1,33,-1
186 896 m 0,37,38
 186 923 186 923 204.5 944 c 128,-1,39
 223 965 223 965 257 965 c 256,40,41
 291 965 291 965 310.5 944 c 128,-1,42
 330 923 330 923 330 896 c 0,43,44
 330 872 330 872 311.5 850.5 c 128,-1,45
 293 829 293 829 257 829 c 0,46,47
 222 829 222 829 204 850.5 c 128,-1,48
 186 872 186 872 186 896 c 0,37,38
393 896 m 0,49,50
 393 923 393 923 411.5 944 c 128,-1,51
 430 965 430 965 464 965 c 256,52,53
 498 965 498 965 517.5 944 c 128,-1,54
 537 923 537 923 537 896 c 0,55,56
 537 872 537 872 519 850.5 c 128,-1,57
 501 829 501 829 464 829 c 0,58,59
 429 829 429 829 411 850.5 c 128,-1,60
 393 872 393 872 393 896 c 0,49,50
EndSplineSet
EndChar
StartChar: Aring
Encoding: 197 197 11
Width: 781
Flags: W
LayerCount: 2
Back
Fore
SplineSet
442 222 m 1,0,-1
 217 222 l 1,1,-1
 188 146 l 2,2,3
 177 116 177 116 177 99 c 0,4,5
 177 73 177 73 202 59.5 c 128,-1,6
 227 46 227 46 290 37 c 1,7,-1
 290 0 l 1,8,-1
 -20 0 l 1,9,-1
 -20 37 l 1,10,11
 15 43 15 43 36.5 49.5 c 128,-1,12
 58 56 58 56 72.5 68 c 128,-1,13
 87 80 87 80 97 99 c 128,-1,14
 107 118 107 118 119 148 c 2,15,-1
 308 630 l 1,16,-1
 262 733 l 1,17,-1
 411 790 l 1,18,-1
 697 98 l 2,19,20
 704 81 704 81 711.5 70 c 128,-1,21
 719 59 719 59 730.5 52 c 128,-1,22
 742 45 742 45 760 42 c 128,-1,23
 778 39 778 39 805 37 c 1,24,-1
 805 0 l 1,25,-1
 393 0 l 1,26,-1
 393 37 l 1,27,28
 448 39 448 39 469.5 46.5 c 128,-1,29
 491 54 491 54 491 74 c 0,30,31
 491 90 491 90 482 114 c 2,32,-1
 442 222 l 1,0,-1
330 516 m 1,33,-1
 239 279 l 1,34,-1
 421 279 l 1,35,-1
 334 516 l 1,36,-1
 330 516 l 1,33,-1
339 830 m 0,37,38
 307 830 307 830 288 850 c 128,-1,39
 269 870 269 870 269 900 c 256,40,41
 269 930 269 930 289 950 c 128,-1,42
 309 970 309 970 339 970 c 256,43,44
 369 970 369 970 389 950 c 128,-1,45
 409 930 409 930 409 900 c 256,46,47
 409 870 409 870 389 850 c 128,-1,48
 369 830 369 830 339 830 c 0,37,38
319 900 m 256,49,50
 319 880 319 880 339 880 c 256,51,52
 359 880 359 880 359 900 c 256,53,54
 359 920 359 920 339 920 c 256,55,56
 319 920 319 920 319 900 c 256,49,50
EndSplineSet
EndChar
StartChar: AE
Encoding: 198 198 16
Width: 1093
Flags: W
LayerCount: 2
Back
Fore
SplineSet
-27 37 m 1,0,1
 11 43 11 43 36.5 50 c 128,-1,2
 62 57 62 57 80.5 69.5 c 128,-1,3
 99 82 99 82 113 100.5 c 128,-1,4
 127 119 127 119 142 148 c 2,5,-1
 446 725 l 1,6,-1
 384 743 l 1,7,-1
 384 770 l 1,8,-1
 1016 770 l 1,9,-1
 1035 550 l 1,10,-1
 993 550 l 1,11,12
 981 590 981 590 961.5 632 c 128,-1,13
 942 674 942 674 916 713 c 1,14,-1
 661 713 l 1,15,-1
 661 434 l 1,16,-1
 787 434 l 1,17,18
 820 489 820 489 830 547 c 1,19,-1
 872 547 l 1,20,-1
 872 267 l 1,21,-1
 830 267 l 1,22,23
 820 325 820 325 787 380 c 1,24,-1
 661 380 l 1,25,-1
 661 57 l 1,26,-1
 910 57 l 1,27,28
 942 102 942 102 963 143.5 c 128,-1,29
 984 185 984 185 1001 234 c 1,30,-1
 1053 234 l 1,31,-1
 1011 0 l 1,32,-1
 404 0 l 1,33,-1
 404 37 l 1,34,-1
 489 56 l 1,35,-1
 489 288 l 1,36,-1
 288 288 l 1,37,-1
 215 146 l 2,38,39
 206 128 206 128 200.5 113.5 c 128,-1,40
 195 99 195 99 195 88 c 0,41,42
 195 67 195 67 213 55 c 128,-1,43
 231 43 231 43 272 37 c 1,44,-1
 272 0 l 1,45,-1
 -27 0 l 1,46,-1
 -27 37 l 1,0,1
489 342 m 1,47,-1
 489 667 l 1,48,-1
 485 667 l 1,49,-1
 316 342 l 1,50,-1
 489 342 l 1,47,-1
EndSplineSet
EndChar
StartChar: Ccedilla
Encoding: 199 199 19
Width: 813
Flags: W
LayerCount: 2
Back
Fore
SplineSet
347 -188 m 1,0,1
 374 -202 374 -202 401 -202 c 0,2,3
 424 -202 424 -202 438.5 -190.5 c 128,-1,4
 453 -179 453 -179 453 -165 c 256,5,6
 453 -151 453 -151 442.5 -143 c 128,-1,7
 432 -135 432 -135 415 -135 c 0,8,9
 405 -135 405 -135 392 -137 c 128,-1,10
 379 -139 379 -139 369 -143 c 1,11,-1
 355 -134 l 1,12,-1
 404 -9 l 1,13,14
 324 -4 324 -4 257.5 26.5 c 128,-1,15
 191 57 191 57 144 107.5 c 128,-1,16
 97 158 97 158 71 227.5 c 128,-1,17
 45 297 45 297 45 380 c 0,18,19
 45 468 45 468 74 541.5 c 128,-1,20
 103 615 103 615 155.5 668 c 128,-1,21
 208 721 208 721 280 750.5 c 128,-1,22
 352 780 352 780 439 780 c 0,23,24
 502 780 502 780 563.5 764 c 128,-1,25
 625 748 625 748 675 719 c 1,26,-1
 679 719 l 1,27,-1
 723 770 l 1,28,-1
 753 770 l 1,29,-1
 753 525 l 1,30,-1
 705 525 l 1,31,32
 695 551 695 551 684.5 574 c 128,-1,33
 674 597 674 597 661 616 c 0,34,35
 626 670 626 670 578 695.5 c 128,-1,36
 530 721 530 721 467 721 c 0,37,38
 234 721 234 721 234 390 c 0,39,40
 234 223 234 223 292.5 136.5 c 128,-1,41
 351 50 351 50 463 50 c 0,42,43
 525 50 525 50 574.5 76.5 c 128,-1,44
 624 103 624 103 658 152 c 0,45,46
 675 178 675 178 688 209 c 128,-1,47
 701 240 701 240 708 277 c 1,48,-1
 753 277 l 1,49,-1
 753 0 l 1,50,-1
 716 0 l 1,51,-1
 675 66 l 1,52,53
 621 30 621 30 570 12 c 128,-1,54
 519 -6 519 -6 461 -9 c 1,55,-1
 443 -58 l 1,56,57
 497 -58 497 -58 527.5 -86 c 128,-1,58
 558 -114 558 -114 558 -156 c 0,59,60
 558 -200 558 -200 522.5 -228.5 c 128,-1,61
 487 -257 487 -257 426 -257 c 0,62,63
 397 -257 397 -257 370.5 -250.5 c 128,-1,64
 344 -244 344 -244 328 -233 c 1,65,-1
 347 -188 l 1,0,1
EndSplineSet
EndChar
StartChar: Edieresis
Encoding: 203 203 31
Width: 731
Flags: W
LayerCount: 2
Back
Fore
SplineSet
299 713 m 1,0,-1
 299 434 l 1,1,-1
 425 434 l 1,2,3
 442 462 442 462 452 490.5 c 128,-1,4
 462 519 462 519 468 547 c 1,5,-1
 510 547 l 1,6,-1
 510 267 l 1,7,-1
 468 267 l 1,8,9
 462 295 462 295 451.5 323.5 c 128,-1,10
 441 352 441 352 425 380 c 1,11,-1
 299 380 l 1,12,-1
 299 57 l 1,13,-1
 548 57 l 1,14,15
 580 102 580 102 600.5 145.5 c 128,-1,16
 621 189 621 189 639 234 c 1,17,-1
 691 234 l 1,18,-1
 649 0 l 1,19,-1
 42 0 l 1,20,-1
 42 37 l 1,21,-1
 127 56 l 1,22,-1
 127 714 l 1,23,-1
 42 733 l 1,24,-1
 42 770 l 1,25,-1
 654 770 l 1,26,-1
 673 550 l 1,27,-1
 631 550 l 1,28,29
 617 589 617 589 598.5 631.5 c 128,-1,30
 580 674 580 674 554 713 c 1,31,-1
 299 713 l 1,0,-1
195 897 m 0,32,33
 195 924 195 924 213.5 945 c 128,-1,34
 232 966 232 966 266 966 c 256,35,36
 300 966 300 966 319.5 945 c 128,-1,37
 339 924 339 924 339 897 c 0,38,39
 339 873 339 873 320.5 851.5 c 128,-1,40
 302 830 302 830 266 830 c 0,41,42
 231 830 231 830 213 851.5 c 128,-1,43
 195 873 195 873 195 897 c 0,32,33
402 897 m 0,44,45
 402 924 402 924 420.5 945 c 128,-1,46
 439 966 439 966 473 966 c 256,47,48
 507 966 507 966 526.5 945 c 128,-1,49
 546 924 546 924 546 897 c 0,50,51
 546 873 546 873 528 851.5 c 128,-1,52
 510 830 510 830 473 830 c 0,53,54
 438 830 438 830 420 851.5 c 128,-1,55
 402 873 402 873 402 897 c 0,44,45
EndSplineSet
EndChar
StartChar: Igrave
Encoding: 204 204 60
Width: 425
Flags: W
LayerCount: 2
Back
Fore
SplineSet
127 713 m 1,0,-1
 42 733 l 1,1,-1
 42 770 l 1,2,-1
 383 770 l 1,3,-1
 383 733 l 1,4,-1
 299 713 l 1,5,-1
 299 58 l 1,6,-1
 383 37 l 1,7,-1
 383 0 l 1,8,-1
 42 0 l 1,9,-1
 42 37 l 1,10,-1
 127 58 l 1,11,-1
 127 713 l 1,0,-1
320 817 m 1,12,-1
 155 849 l 2,13,14
 123 855 123 855 109.5 872.5 c 128,-1,15
 96 890 96 890 96 909 c 0,16,17
 96 930 96 930 110.5 946.5 c 128,-1,18
 125 963 125 963 151 963 c 0,19,20
 164 963 164 963 179.5 957.5 c 128,-1,21
 195 952 195 952 212 939 c 2,22,-1
 337 845 l 1,23,-1
 320 817 l 1,12,-1
EndSplineSet
EndChar
StartChar: Iacute
Encoding: 205 205 54
Width: 425
Flags: W
LayerCount: 2
Back
Fore
SplineSet
127 713 m 1,0,-1
 42 733 l 1,1,-1
 42 770 l 1,2,-1
 383 770 l 1,3,-1
 383 733 l 1,4,-1
 299 713 l 1,5,-1
 299 58 l 1,6,-1
 383 37 l 1,7,-1
 383 0 l 1,8,-1
 42 0 l 1,9,-1
 42 37 l 1,10,-1
 127 58 l 1,11,-1
 127 713 l 1,0,-1
97 847 m 1,12,-1
 222 941 l 2,13,14
 239 954 239 954 254.5 959.5 c 128,-1,15
 270 965 270 965 283 965 c 0,16,17
 309 965 309 965 323.5 948.5 c 128,-1,18
 338 932 338 932 338 911 c 0,19,20
 338 892 338 892 324.5 874.5 c 128,-1,21
 311 857 311 857 279 851 c 2,22,-1
 114 819 l 1,23,-1
 97 847 l 1,12,-1
EndSplineSet
EndChar
StartChar: Icircumflex
Encoding: 206 206 56
Width: 425
Flags: W
LayerCount: 2
Back
Fore
SplineSet
127 713 m 1,0,-1
 42 733 l 1,1,-1
 42 770 l 1,2,-1
 383 770 l 1,3,-1
 383 733 l 1,4,-1
 299 713 l 1,5,-1
 299 58 l 1,6,-1
 383 37 l 1,7,-1
 383 0 l 1,8,-1
 42 0 l 1,9,-1
 42 37 l 1,10,-1
 127 58 l 1,11,-1
 127 713 l 1,0,-1
217 961 m 0,12,13
 234 961 234 961 249.5 953 c 128,-1,14
 265 945 265 945 285 928 c 2,15,-1
 389 844 l 1,16,-1
 373 822 l 1,17,-1
 216 863 l 1,18,-1
 59 822 l 1,19,-1
 43 844 l 1,20,-1
 145 928 l 2,21,22
 165 945 165 945 181 953 c 128,-1,23
 197 961 197 961 217 961 c 0,12,13
EndSplineSet
EndChar
StartChar: Idieresis
Encoding: 207 207 57
Width: 425
Flags: W
LayerCount: 2
Back
Fore
SplineSet
127 713 m 1,0,-1
 42 733 l 1,1,-1
 42 770 l 1,2,-1
 383 770 l 1,3,-1
 383 733 l 1,4,-1
 299 713 l 1,5,-1
 299 58 l 1,6,-1
 383 37 l 1,7,-1
 383 0 l 1,8,-1
 42 0 l 1,9,-1
 42 37 l 1,10,-1
 127 58 l 1,11,-1
 127 713 l 1,0,-1
37 896 m 0,12,13
 37 923 37 923 55.5 944 c 128,-1,14
 74 965 74 965 108 965 c 256,15,16
 142 965 142 965 161.5 944 c 128,-1,17
 181 923 181 923 181 896 c 0,18,19
 181 872 181 872 162.5 850.5 c 128,-1,20
 144 829 144 829 108 829 c 0,21,22
 73 829 73 829 55 850.5 c 128,-1,23
 37 872 37 872 37 896 c 0,12,13
244 896 m 0,24,25
 244 923 244 923 262.5 944 c 128,-1,26
 281 965 281 965 315 965 c 256,27,28
 349 965 349 965 368.5 944 c 128,-1,29
 388 923 388 923 388 896 c 0,30,31
 388 872 388 872 370 850.5 c 128,-1,32
 352 829 352 829 315 829 c 0,33,34
 280 829 280 829 262 850.5 c 128,-1,35
 244 872 244 872 244 896 c 0,24,25
EndSplineSet
EndChar
StartChar: Otilde
Encoding: 213 213 95
Width: 869
Flags: W
LayerCount: 2
Back
Fore
SplineSet
434 780 m 256,0,1
 528 780 528 780 601 749 c 128,-1,2
 674 718 674 718 723.5 664 c 128,-1,3
 773 610 773 610 798.5 538 c 128,-1,4
 824 466 824 466 824 385 c 256,5,6
 824 304 824 304 798.5 232 c 128,-1,7
 773 160 773 160 723.5 106 c 128,-1,8
 674 52 674 52 601 21 c 128,-1,9
 528 -10 528 -10 434 -10 c 256,10,11
 340 -10 340 -10 267.5 21 c 128,-1,12
 195 52 195 52 145.5 106 c 128,-1,13
 96 160 96 160 70.5 232 c 128,-1,14
 45 304 45 304 45 385 c 256,15,16
 45 466 45 466 70.5 538 c 128,-1,17
 96 610 96 610 145.5 664 c 128,-1,18
 195 718 195 718 267.5 749 c 128,-1,19
 340 780 340 780 434 780 c 256,0,1
242 385 m 256,20,21
 242 333 242 333 249.5 274 c 128,-1,22
 257 215 257 215 278 164.5 c 128,-1,23
 299 114 299 114 336.5 81 c 128,-1,24
 374 48 374 48 434 48 c 0,25,26
 495 48 495 48 532.5 81 c 128,-1,27
 570 114 570 114 591 164.5 c 128,-1,28
 612 215 612 215 619.5 274 c 128,-1,29
 627 333 627 333 627 385 c 256,30,31
 627 437 627 437 620 495.5 c 128,-1,32
 613 554 613 554 592 604 c 128,-1,33
 571 654 571 654 533 687 c 128,-1,34
 495 720 495 720 434 720 c 0,35,36
 374 720 374 720 336.5 687 c 128,-1,37
 299 654 299 654 278 604 c 128,-1,38
 257 554 257 554 249.5 495.5 c 128,-1,39
 242 437 242 437 242 385 c 256,20,21
279 821 m 1,40,41
 279 892 279 892 309 927.5 c 128,-1,42
 339 963 339 963 386 963 c 0,43,44
 405 963 405 963 420 957.5 c 128,-1,45
 435 952 435 952 448.5 945 c 128,-1,46
 462 938 462 938 476 932.5 c 128,-1,47
 490 927 490 927 507 927 c 0,48,49
 557 927 557 927 567 965 c 1,50,-1
 606 965 l 1,51,52
 606 896 606 896 580.5 858 c 128,-1,53
 555 820 555 820 504 820 c 0,54,55
 483 820 483 820 468 826 c 128,-1,56
 453 832 453 832 439.5 839.5 c 128,-1,57
 426 847 426 847 412 853 c 128,-1,58
 398 859 398 859 379 859 c 0,59,60
 353 859 353 859 337 848.5 c 128,-1,61
 321 838 321 838 318 821 c 1,62,-1
 279 821 l 1,40,41
EndSplineSet
EndChar
StartChar: multiply
Encoding: 215 215 331
Width: 484
Flags: W
LayerCount: 2
Back
Fore
SplineSet
193 340 m 1,0,-1
 59 474 l 1,1,-1
 108 523 l 1,2,-1
 242 389 l 1,3,-1
 376 523 l 1,4,-1
 427 473 l 1,5,-1
 292 338 l 1,6,-1
 426 205 l 1,7,-1
 377 156 l 1,8,-1
 243 289 l 1,9,-1
 108 154 l 1,10,-1
 58 205 l 1,11,-1
 193 340 l 1,0,-1
EndSplineSet
Substitution2: "'tnum' Tabular Numbers in Latin lookup 3 subtable" multiply.tnum
EndChar
StartChar: Ugrave
Encoding: 217 217 120
Width: 821
Flags: W
LayerCount: 2
Back
Fore
SplineSet
285 267 m 2,0,1
 285 164 285 164 330 108 c 128,-1,2
 375 52 375 52 459 52 c 0,3,4
 551 52 551 52 597 115 c 0,5,6
 620 147 620 147 630.5 200 c 128,-1,7
 641 253 641 253 641 340 c 2,8,-1
 641 714 l 1,9,-1
 553 733 l 1,10,-1
 553 770 l 1,11,-1
 799 770 l 1,12,-1
 799 733 l 1,13,-1
 710 714 l 1,14,-1
 710 283 l 2,15,16
 710 168 710 168 664 96 c 0,17,18
 595 -10 595 -10 423 -10 c 0,19,20
 332 -10 332 -10 263 17.5 c 128,-1,21
 194 45 194 45 154 97 c 0,22,23
 131 126 131 126 121 165.5 c 128,-1,24
 111 205 111 205 111 267 c 2,25,-1
 111 714 l 1,26,-1
 26 733 l 1,27,-1
 26 770 l 1,28,-1
 373 770 l 1,29,-1
 373 733 l 1,30,-1
 285 714 l 1,31,-1
 285 267 l 2,0,1
562 817 m 1,32,-1
 397 849 l 2,33,34
 365 855 365 855 351.5 872.5 c 128,-1,35
 338 890 338 890 338 909 c 0,36,37
 338 930 338 930 352.5 946.5 c 128,-1,38
 367 963 367 963 393 963 c 0,39,40
 406 963 406 963 421.5 957.5 c 128,-1,41
 437 952 437 952 454 939 c 2,42,-1
 579 845 l 1,43,-1
 562 817 l 1,32,-1
EndSplineSet
EndChar
StartChar: Uacute
Encoding: 218 218 115
Width: 821
Flags: W
LayerCount: 2
Back
Fore
SplineSet
285 267 m 2,0,1
 285 164 285 164 330 108 c 128,-1,2
 375 52 375 52 459 52 c 0,3,4
 551 52 551 52 597 115 c 0,5,6
 620 147 620 147 630.5 200 c 128,-1,7
 641 253 641 253 641 340 c 2,8,-1
 641 714 l 1,9,-1
 553 733 l 1,10,-1
 553 770 l 1,11,-1
 799 770 l 1,12,-1
 799 733 l 1,13,-1
 710 714 l 1,14,-1
 710 283 l 2,15,16
 710 168 710 168 664 96 c 0,17,18
 595 -10 595 -10 423 -10 c 0,19,20
 332 -10 332 -10 263 17.5 c 128,-1,21
 194 45 194 45 154 97 c 0,22,23
 131 126 131 126 121 165.5 c 128,-1,24
 111 205 111 205 111 267 c 2,25,-1
 111 714 l 1,26,-1
 26 733 l 1,27,-1
 26 770 l 1,28,-1
 373 770 l 1,29,-1
 373 733 l 1,30,-1
 285 714 l 1,31,-1
 285 267 l 2,0,1
348 845 m 1,32,-1
 473 939 l 2,33,34
 490 952 490 952 505.5 957.5 c 128,-1,35
 521 963 521 963 534 963 c 0,36,37
 560 963 560 963 574.5 946.5 c 128,-1,38
 589 930 589 930 589 909 c 0,39,40
 589 890 589 890 575.5 872.5 c 128,-1,41
 562 855 562 855 530 849 c 2,42,-1
 365 817 l 1,43,-1
 348 845 l 1,32,-1
EndSplineSet
EndChar
StartChar: Ucircumflex
Encoding: 219 219 117
Width: 821
Flags: W
LayerCount: 2
Back
Fore
SplineSet
285 267 m 2,0,1
 285 164 285 164 330 108 c 128,-1,2
 375 52 375 52 459 52 c 0,3,4
 551 52 551 52 597 115 c 0,5,6
 620 147 620 147 630.5 200 c 128,-1,7
 641 253 641 253 641 340 c 2,8,-1
 641 714 l 1,9,-1
 553 733 l 1,10,-1
 553 770 l 1,11,-1
 799 770 l 1,12,-1
 799 733 l 1,13,-1
 710 714 l 1,14,-1
 710 283 l 2,15,16
 710 168 710 168 664 96 c 0,17,18
 595 -10 595 -10 423 -10 c 0,19,20
 332 -10 332 -10 263 17.5 c 128,-1,21
 194 45 194 45 154 97 c 0,22,23
 131 126 131 126 121 165.5 c 128,-1,24
 111 205 111 205 111 267 c 2,25,-1
 111 714 l 1,26,-1
 26 733 l 1,27,-1
 26 770 l 1,28,-1
 373 770 l 1,29,-1
 373 733 l 1,30,-1
 285 714 l 1,31,-1
 285 267 l 2,0,1
466 960 m 0,32,33
 483 960 483 960 498.5 952 c 128,-1,34
 514 944 514 944 534 927 c 2,35,-1
 638 843 l 1,36,-1
 622 821 l 1,37,-1
 465 862 l 1,38,-1
 308 821 l 1,39,-1
 292 843 l 1,40,-1
 394 927 l 2,41,42
 414 944 414 944 430 952 c 128,-1,43
 446 960 446 960 466 960 c 0,32,33
EndSplineSet
EndChar
StartChar: Udieresis
Encoding: 220 220 118
Width: 821
Flags: W
LayerCount: 2
Back
Fore
SplineSet
285 267 m 2,0,1
 285 164 285 164 330 108 c 128,-1,2
 375 52 375 52 459 52 c 0,3,4
 551 52 551 52 597 115 c 0,5,6
 620 147 620 147 630.5 200 c 128,-1,7
 641 253 641 253 641 340 c 2,8,-1
 641 714 l 1,9,-1
 553 733 l 1,10,-1
 553 770 l 1,11,-1
 799 770 l 1,12,-1
 799 733 l 1,13,-1
 710 714 l 1,14,-1
 710 283 l 2,15,16
 710 168 710 168 664 96 c 0,17,18
 595 -10 595 -10 423 -10 c 0,19,20
 332 -10 332 -10 263 17.5 c 128,-1,21
 194 45 194 45 154 97 c 0,22,23
 131 126 131 126 121 165.5 c 128,-1,24
 111 205 111 205 111 267 c 2,25,-1
 111 714 l 1,26,-1
 26 733 l 1,27,-1
 26 770 l 1,28,-1
 373 770 l 1,29,-1
 373 733 l 1,30,-1
 285 714 l 1,31,-1
 285 267 l 2,0,1
295 869 m 0,32,33
 295 896 295 896 313.5 917 c 128,-1,34
 332 938 332 938 366 938 c 256,35,36
 400 938 400 938 419.5 917 c 128,-1,37
 439 896 439 896 439 869 c 0,38,39
 439 845 439 845 420.5 823.5 c 128,-1,40
 402 802 402 802 366 802 c 0,41,42
 331 802 331 802 313 823.5 c 128,-1,43
 295 845 295 845 295 869 c 0,32,33
502 869 m 0,44,45
 502 896 502 896 520.5 917 c 128,-1,46
 539 938 539 938 573 938 c 256,47,48
 607 938 607 938 626.5 917 c 128,-1,49
 646 896 646 896 646 869 c 0,50,51
 646 845 646 845 628 823.5 c 128,-1,52
 610 802 610 802 573 802 c 0,53,54
 538 802 538 802 520 823.5 c 128,-1,55
 502 845 502 845 502 869 c 0,44,45
EndSplineSet
EndChar
StartChar: Thorn
Encoding: 222 222 113
Width: 696
Flags: W
LayerCount: 2
Back
Fore
SplineSet
299 711 m 1,0,-1
 299 613 l 1,1,-1
 375 613 l 2,2,3
 442 613 442 613 496.5 597 c 128,-1,4
 551 581 551 581 589.5 551.5 c 128,-1,5
 628 522 628 522 648.5 479.5 c 128,-1,6
 669 437 669 437 669 385 c 0,7,8
 669 279 669 279 588.5 221 c 128,-1,9
 508 163 508 163 359 163 c 2,10,-1
 299 163 l 1,11,-1
 299 59 l 1,12,-1
 424 37 l 1,13,-1
 424 0 l 1,14,-1
 42 0 l 1,15,-1
 42 37 l 1,16,-1
 127 59 l 1,17,-1
 127 711 l 1,18,-1
 42 733 l 1,19,-1
 42 770 l 1,20,-1
 424 770 l 1,21,-1
 424 733 l 1,22,-1
 299 711 l 1,0,-1
299 217 m 1,23,-1
 306 217 l 2,24,25
 397 217 397 217 441 258 c 0,26,27
 464 280 464 280 475 312.5 c 128,-1,28
 486 345 486 345 486 394 c 0,29,30
 486 485 486 485 448 523 c 0,31,32
 429 542 429 542 399.5 550.5 c 128,-1,33
 370 559 370 559 324 559 c 2,34,-1
 299 559 l 1,35,-1
 299 217 l 1,23,-1
EndSplineSet
EndChar
StartChar: germandbls
Encoding: 223 223 284
Width: 756
Flags: W
LayerCount: 2
Back
Fore
SplineSet
37 510 m 1,0,-1
 113 510 l 1,1,-1
 113 516 l 2,2,3
 113 556 113 556 114 585.5 c 128,-1,4
 115 615 115 615 117.5 636.5 c 128,-1,5
 120 658 120 658 124 674 c 128,-1,6
 128 690 128 690 134 703 c 0,7,8
 147 732 147 732 172 755.5 c 128,-1,9
 197 779 197 779 230.5 795.5 c 128,-1,10
 264 812 264 812 304.5 821 c 128,-1,11
 345 830 345 830 390 830 c 0,12,13
 489 830 489 830 547 789.5 c 128,-1,14
 605 749 605 749 605 680 c 0,15,16
 605 639 605 639 587 606 c 128,-1,17
 569 573 569 573 547 545 c 128,-1,18
 525 517 525 517 507 492.5 c 128,-1,19
 489 468 489 468 489 443 c 0,20,21
 489 420 489 420 507 404.5 c 128,-1,22
 525 389 525 389 551.5 375.5 c 128,-1,23
 578 362 578 362 609.5 347 c 128,-1,24
 641 332 641 332 667.5 310 c 128,-1,25
 694 288 694 288 712 255.5 c 128,-1,26
 730 223 730 223 730 174 c 0,27,28
 730 86 730 86 677 38 c 128,-1,29
 624 -10 624 -10 524 -10 c 0,30,31
 488 -10 488 -10 450.5 -4.5 c 128,-1,32
 413 1 413 1 387 11 c 1,33,-1
 381 174 l 1,34,-1
 424 174 l 1,35,36
 428 109 428 109 452.5 74.5 c 128,-1,37
 477 40 477 40 520 40 c 0,38,39
 553 40 553 40 574 62.5 c 128,-1,40
 595 85 595 85 595 120 c 0,41,42
 595 146 595 146 578.5 164.5 c 128,-1,43
 562 183 562 183 537 198.5 c 128,-1,44
 512 214 512 214 483.5 229 c 128,-1,45
 455 244 455 244 430 263.5 c 128,-1,46
 405 283 405 283 388.5 310 c 128,-1,47
 372 337 372 337 372 377 c 256,48,49
 372 417 372 417 387 454 c 128,-1,50
 402 491 402 491 420 527.5 c 128,-1,51
 438 564 438 564 453 601.5 c 128,-1,52
 468 639 468 639 468 681 c 0,53,54
 468 779 468 779 369 779 c 0,55,56
 340 779 340 779 320.5 769.5 c 128,-1,57
 301 760 301 760 289.5 737.5 c 128,-1,58
 278 715 278 715 273 677.5 c 128,-1,59
 268 640 268 640 268 585 c 2,60,-1
 268 55 l 1,61,-1
 341 35 l 1,62,-1
 341 0 l 1,63,-1
 28 0 l 1,64,-1
 28 35 l 1,65,-1
 113 55 l 1,66,-1
 113 463 l 1,67,-1
 23 463 l 1,68,-1
 37 510 l 1,0,-1
EndSplineSet
EndChar
StartChar: agrave
Encoding: 224 224 153
Width: 585
Flags: W
LayerCount: 2
Back
Fore
SplineSet
356 631 m 1,0,-1
 259 742 l 2,1,2
 242 762 242 762 234 780.5 c 128,-1,3
 226 799 226 799 226 814 c 0,4,5
 226 834 226 834 238.5 846.5 c 128,-1,6
 251 859 251 859 271 859 c 0,7,8
 328 859 328 859 346 793 c 2,9,-1
 387 642 l 1,10,-1
 356 631 l 1,0,-1
170 -10 m 0,11,12
 108 -10 108 -10 73 21 c 128,-1,13
 38 52 38 52 38 108 c 0,14,15
 38 183 38 183 108.5 228 c 128,-1,16
 179 273 179 273 331 294 c 1,17,-1
 331 367 l 2,18,19
 331 401 331 401 328 423.5 c 128,-1,20
 325 446 325 446 318.5 459 c 128,-1,21
 312 472 312 472 300 477 c 128,-1,22
 288 482 288 482 270 482 c 0,23,24
 232 482 232 482 210.5 464 c 128,-1,25
 189 446 189 446 189 414 c 0,26,27
 189 403 189 403 191 392 c 128,-1,28
 193 381 193 381 193 370 c 0,29,30
 193 341 193 341 173 322 c 128,-1,31
 153 303 153 303 124 303 c 256,32,33
 95 303 95 303 76.5 322 c 128,-1,34
 58 341 58 341 58 371 c 0,35,36
 58 403 58 403 78.5 434 c 128,-1,37
 99 465 99 465 137 490 c 256,38,39
 175 515 175 515 223.5 527.5 c 128,-1,40
 272 540 272 540 326 540 c 256,41,42
 380 540 380 540 413 527.5 c 128,-1,43
 446 515 446 515 463 490 c 0,44,45
 475 471 475 471 480.5 441.5 c 128,-1,46
 486 412 486 412 486 356 c 2,47,-1
 486 150 l 2,48,49
 486 105 486 105 495 85.5 c 128,-1,50
 504 66 504 66 524 66 c 0,51,52
 547 66 547 66 568 90 c 1,53,-1
 591 57 l 1,54,55
 528 -10 528 -10 445 -10 c 0,56,57
 396 -10 396 -10 371 9.5 c 128,-1,58
 346 29 346 29 338 69 c 1,59,-1
 334 69 l 1,60,61
 261 -10 261 -10 170 -10 c 0,11,12
262 84 m 0,62,63
 304 84 304 84 331 113 c 1,64,-1
 331 247 l 1,65,66
 295 240 295 240 270.5 231.5 c 128,-1,67
 246 223 246 223 231.5 212 c 128,-1,68
 217 201 217 201 211 185.5 c 128,-1,69
 205 170 205 170 205 149 c 0,70,71
 205 84 205 84 262 84 c 0,62,63
EndSplineSet
EndChar
StartChar: acircumflex
Encoding: 226 226 147
Width: 585
Flags: W
LayerCount: 2
Back
Fore
SplineSet
170 -10 m 0,0,1
 108 -10 108 -10 73 21 c 128,-1,2
 38 52 38 52 38 108 c 0,3,4
 38 183 38 183 108.5 228 c 128,-1,5
 179 273 179 273 331 294 c 1,6,-1
 331 367 l 2,7,8
 331 401 331 401 328 423.5 c 128,-1,9
 325 446 325 446 318.5 459 c 128,-1,10
 312 472 312 472 300 477 c 128,-1,11
 288 482 288 482 270 482 c 0,12,13
 232 482 232 482 210.5 464 c 128,-1,14
 189 446 189 446 189 414 c 0,15,16
 189 403 189 403 191 392 c 128,-1,17
 193 381 193 381 193 370 c 0,18,19
 193 341 193 341 173 322 c 128,-1,20
 153 303 153 303 124 303 c 256,21,22
 95 303 95 303 76.5 322 c 128,-1,23
 58 341 58 341 58 371 c 0,24,25
 58 403 58 403 78.5 434 c 128,-1,26
 99 465 99 465 137 490 c 256,27,28
 175 515 175 515 223.5 527.5 c 128,-1,29
 272 540 272 540 326 540 c 256,30,31
 380 540 380 540 413 527.5 c 128,-1,32
 446 515 446 515 463 490 c 0,33,34
 475 471 475 471 480.5 441.5 c 128,-1,35
 486 412 486 412 486 356 c 2,36,-1
 486 150 l 2,37,38
 486 105 486 105 495 85.5 c 128,-1,39
 504 66 504 66 524 66 c 0,40,41
 547 66 547 66 568 90 c 1,42,-1
 591 57 l 1,43,44
 528 -10 528 -10 445 -10 c 0,45,46
 396 -10 396 -10 371 9.5 c 128,-1,47
 346 29 346 29 338 69 c 1,48,-1
 334 69 l 1,49,50
 261 -10 261 -10 170 -10 c 0,0,1
262 84 m 0,51,52
 304 84 304 84 331 113 c 1,53,-1
 331 247 l 1,54,55
 295 240 295 240 270.5 231.5 c 128,-1,56
 246 223 246 223 231.5 212 c 128,-1,57
 217 201 217 201 211 185.5 c 128,-1,58
 205 170 205 170 205 149 c 0,59,60
 205 84 205 84 262 84 c 0,51,52
310 859 m 0,61,62
 333 859 333 859 347.5 848 c 128,-1,63
 362 837 362 837 376 811 c 2,64,-1
 462 642 l 1,65,-1
 431 630 l 1,66,-1
 309 746 l 1,67,-1
 187 630 l 1,68,-1
 156 642 l 1,69,-1
 240 811 l 2,70,71
 253 837 253 837 269.5 848 c 128,-1,72
 286 859 286 859 310 859 c 0,61,62
EndSplineSet
EndChar
StartChar: aring
Encoding: 229 229 158
Width: 585
Flags: W
LayerCount: 2
Back
Fore
SplineSet
170 -10 m 0,0,1
 108 -10 108 -10 73 21 c 128,-1,2
 38 52 38 52 38 108 c 0,3,4
 38 183 38 183 108.5 228 c 128,-1,5
 179 273 179 273 331 294 c 1,6,-1
 331 367 l 2,7,8
 331 401 331 401 328 423.5 c 128,-1,9
 325 446 325 446 318.5 459 c 128,-1,10
 312 472 312 472 300 477 c 128,-1,11
 288 482 288 482 270 482 c 0,12,13
 232 482 232 482 210.5 464 c 128,-1,14
 189 446 189 446 189 414 c 0,15,16
 189 403 189 403 191 392 c 128,-1,17
 193 381 193 381 193 370 c 0,18,19
 193 341 193 341 173 322 c 128,-1,20
 153 303 153 303 124 303 c 256,21,22
 95 303 95 303 76.5 322 c 128,-1,23
 58 341 58 341 58 371 c 0,24,25
 58 403 58 403 78.5 434 c 128,-1,26
 99 465 99 465 137 490 c 256,27,28
 175 515 175 515 223.5 527.5 c 128,-1,29
 272 540 272 540 326 540 c 256,30,31
 380 540 380 540 413 527.5 c 128,-1,32
 446 515 446 515 463 490 c 0,33,34
 475 471 475 471 480.5 441.5 c 128,-1,35
 486 412 486 412 486 356 c 2,36,-1
 486 150 l 2,37,38
 486 105 486 105 495 85.5 c 128,-1,39
 504 66 504 66 524 66 c 0,40,41
 547 66 547 66 568 90 c 1,42,-1
 591 57 l 1,43,44
 528 -10 528 -10 445 -10 c 0,45,46
 396 -10 396 -10 371 9.5 c 128,-1,47
 346 29 346 29 338 69 c 1,48,-1
 334 69 l 1,49,50
 261 -10 261 -10 170 -10 c 0,0,1
262 84 m 0,51,52
 304 84 304 84 331 113 c 1,53,-1
 331 247 l 1,54,55
 295 240 295 240 270.5 231.5 c 128,-1,56
 246 223 246 223 231.5 212 c 128,-1,57
 217 201 217 201 211 185.5 c 128,-1,58
 205 170 205 170 205 149 c 0,59,60
 205 84 205 84 262 84 c 0,51,52
307 651 m 0,61,62
 269 651 269 651 246.5 675 c 128,-1,63
 224 699 224 699 224 734 c 256,64,65
 224 769 224 769 248 793 c 128,-1,66
 272 817 272 817 307 817 c 256,67,68
 342 817 342 817 366 793 c 128,-1,69
 390 769 390 769 390 734 c 256,70,71
 390 699 390 699 366 675 c 128,-1,72
 342 651 342 651 307 651 c 0,61,62
274 734 m 256,73,74
 274 719 274 719 283 710 c 128,-1,75
 292 701 292 701 307 701 c 256,76,77
 322 701 322 701 331 710 c 128,-1,78
 340 719 340 719 340 734 c 256,79,80
 340 749 340 749 331 758 c 128,-1,81
 322 767 322 767 307 767 c 256,82,83
 292 767 292 767 283 758 c 128,-1,84
 274 749 274 749 274 734 c 256,73,74
EndSplineSet
EndChar
StartChar: ae
Encoding: 230 230 151
Width: 898
Flags: W
LayerCount: 2
Back
Fore
SplineSet
174 -10 m 0,0,1
 108 -10 108 -10 73 20.5 c 128,-1,2
 38 51 38 51 38 107 c 0,3,4
 38 183 38 183 108 228 c 128,-1,5
 178 273 178 273 331 294 c 1,6,-1
 331 367 l 2,7,8
 331 401 331 401 328 423.5 c 128,-1,9
 325 446 325 446 318.5 459 c 128,-1,10
 312 472 312 472 300 477 c 128,-1,11
 288 482 288 482 270 482 c 0,12,13
 232 482 232 482 210.5 464 c 128,-1,14
 189 446 189 446 189 414 c 0,15,16
 189 403 189 403 191 392 c 128,-1,17
 193 381 193 381 193 370 c 0,18,19
 193 341 193 341 173 322 c 128,-1,20
 153 303 153 303 124 303 c 256,21,22
 95 303 95 303 76.5 322 c 128,-1,23
 58 341 58 341 58 370 c 0,24,25
 58 401 58 401 79 433 c 128,-1,26
 100 465 100 465 137 490 c 0,27,28
 174 514 174 514 222 527 c 128,-1,29
 270 540 270 540 327 540 c 0,30,31
 375 540 375 540 405.5 529.5 c 128,-1,32
 436 519 436 519 458 495 c 1,33,34
 530 540 530 540 630 540 c 0,35,36
 744 540 744 540 804 478.5 c 128,-1,37
 864 417 864 417 868 296 c 1,38,-1
 860 290 l 1,39,-1
 496 290 l 1,40,41
 497 93 497 93 653 93 c 0,42,43
 702 93 702 93 745.5 110.5 c 128,-1,44
 789 128 789 128 816 159 c 2,45,-1
 823 167 l 1,46,-1
 851 143 l 1,47,-1
 846 131 l 2,48,49
 818 65 818 65 753.5 27.5 c 128,-1,50
 689 -10 689 -10 603 -10 c 0,51,52
 531 -10 531 -10 474 16 c 128,-1,53
 417 42 417 42 381 92 c 1,54,-1
 377 92 l 1,55,56
 323 38 323 38 275.5 14 c 128,-1,57
 228 -10 228 -10 174 -10 c 0,0,1
618 489 m 0,58,59
 566 489 566 489 535 450 c 128,-1,60
 504 411 504 411 498 337 c 1,61,-1
 702 345 l 1,62,63
 704 353 704 353 705 363.5 c 128,-1,64
 706 374 706 374 706 385 c 0,65,66
 706 436 706 436 683.5 462.5 c 128,-1,67
 661 489 661 489 618 489 c 0,58,59
265 84 m 0,68,69
 310 84 310 84 357 130 c 1,70,71
 344 156 344 156 337.5 186 c 128,-1,72
 331 216 331 216 330 247 c 1,73,74
 265 234 265 234 235 209.5 c 128,-1,75
 205 185 205 185 205 146 c 0,76,77
 205 117 205 117 221 100.5 c 128,-1,78
 237 84 237 84 265 84 c 0,68,69
EndSplineSet
EndChar
StartChar: ccedilla
Encoding: 231 231 184
Width: 571
Flags: W
LayerCount: 2
Back
Fore
SplineSet
223 -188 m 1,0,1
 250 -202 250 -202 277 -202 c 0,2,3
 300 -202 300 -202 314.5 -190.5 c 128,-1,4
 329 -179 329 -179 329 -165 c 256,5,6
 329 -151 329 -151 318.5 -143 c 128,-1,7
 308 -135 308 -135 291 -135 c 0,8,9
 281 -135 281 -135 268 -137 c 128,-1,10
 255 -139 255 -139 245 -143 c 1,11,-1
 231 -134 l 1,12,-1
 280 -9 l 1,13,14
 226 -5 226 -5 181 16.5 c 128,-1,15
 136 38 136 38 104 73 c 128,-1,16
 72 108 72 108 54 155 c 128,-1,17
 36 202 36 202 36 258 c 0,18,19
 36 319 36 319 58 371 c 128,-1,20
 80 423 80 423 119 460.5 c 128,-1,21
 158 498 158 498 212.5 519 c 128,-1,22
 267 540 267 540 332 540 c 0,23,24
 377 540 377 540 416 530 c 128,-1,25
 455 520 455 520 483 502 c 128,-1,26
 511 484 511 484 527 459.5 c 128,-1,27
 543 435 543 435 543 407 c 0,28,29
 543 376 543 376 525 358 c 128,-1,30
 507 340 507 340 476 340 c 0,31,32
 457 340 457 340 445 346 c 128,-1,33
 433 352 433 352 425.5 361.5 c 128,-1,34
 418 371 418 371 414.5 382.5 c 128,-1,35
 411 394 411 394 410 405 c 0,36,37
 408 423 408 423 404 438 c 128,-1,38
 400 453 400 453 391.5 464 c 128,-1,39
 383 475 383 475 370 481.5 c 128,-1,40
 357 488 357 488 337 488 c 0,41,42
 274 488 274 488 239 436.5 c 128,-1,43
 204 385 204 385 204 289 c 0,44,45
 204 192 204 192 241 142.5 c 128,-1,46
 278 93 278 93 353 93 c 0,47,48
 444 93 444 93 501 159 c 2,49,-1
 508 167 l 1,50,-1
 536 145 l 1,51,-1
 531 133 l 2,52,53
 477 4 477 4 338 -8 c 1,54,-1
 319 -58 l 1,55,56
 373 -58 373 -58 403.5 -86 c 128,-1,57
 434 -114 434 -114 434 -156 c 0,58,59
 434 -200 434 -200 398.5 -228.5 c 128,-1,60
 363 -257 363 -257 302 -257 c 0,61,62
 273 -257 273 -257 246.5 -250.5 c 128,-1,63
 220 -244 220 -244 204 -233 c 1,64,-1
 223 -188 l 1,0,1
EndSplineSet
EndChar
StartChar: eacute
Encoding: 233 233 219
Width: 604
Flags: W
LayerCount: 2
Back
Fore
SplineSet
566 290 m 1,0,-1
 202 290 l 1,1,2
 203 93 203 93 359 93 c 0,3,4
 403 93 403 93 448 109.5 c 128,-1,5
 493 126 493 126 522 159 c 2,6,-1
 529 167 l 1,7,-1
 557 143 l 1,8,-1
 552 131 l 2,9,10
 524 63 524 63 458.5 26.5 c 128,-1,11
 393 -10 393 -10 311 -10 c 0,12,13
 249 -10 249 -10 198 9.5 c 128,-1,14
 147 29 147 29 111 64 c 128,-1,15
 75 99 75 99 55.5 148 c 128,-1,16
 36 197 36 197 36 257 c 0,17,18
 36 320 36 320 58 372 c 128,-1,19
 80 424 80 424 119.5 461.5 c 128,-1,20
 159 499 159 499 214 519.5 c 128,-1,21
 269 540 269 540 336 540 c 0,22,23
 451 540 451 540 510.5 478.5 c 128,-1,24
 570 417 570 417 574 296 c 1,25,-1
 566 290 l 1,0,-1
323 489 m 0,26,27
 271 489 271 489 241 450 c 128,-1,28
 211 411 211 411 204 337 c 1,29,-1
 408 345 l 1,30,31
 410 350 410 350 411 360 c 128,-1,32
 412 370 412 370 412 383 c 0,33,34
 412 489 412 489 323 489 c 0,26,27
264 642 m 1,35,-1
 305 793 l 2,36,37
 323 859 323 859 380 859 c 0,38,39
 400 859 400 859 412.5 846.5 c 128,-1,40
 425 834 425 834 425 814 c 0,41,42
 425 799 425 799 417 780.5 c 128,-1,43
 409 762 409 762 392 742 c 2,44,-1
 295 631 l 1,45,-1
 264 642 l 1,35,-1
EndSplineSet
EndChar
StartChar: edieresis
Encoding: 235 235 223
Width: 604
Flags: W
LayerCount: 2
Back
Fore
SplineSet
566 290 m 1,0,-1
 202 290 l 1,1,2
 203 93 203 93 359 93 c 0,3,4
 403 93 403 93 448 109.5 c 128,-1,5
 493 126 493 126 522 159 c 2,6,-1
 529 167 l 1,7,-1
 557 143 l 1,8,-1
 552 131 l 2,9,10
 524 63 524 63 458.5 26.5 c 128,-1,11
 393 -10 393 -10 311 -10 c 0,12,13
 249 -10 249 -10 198 9.5 c 128,-1,14
 147 29 147 29 111 64 c 128,-1,15
 75 99 75 99 55.5 148 c 128,-1,16
 36 197 36 197 36 257 c 0,17,18
 36 320 36 320 58 372 c 128,-1,19
 80 424 80 424 119.5 461.5 c 128,-1,20
 159 499 159 499 214 519.5 c 128,-1,21
 269 540 269 540 336 540 c 0,22,23
 451 540 451 540 510.5 478.5 c 128,-1,24
 570 417 570 417 574 296 c 1,25,-1
 566 290 l 1,0,-1
323 489 m 0,26,27
 271 489 271 489 241 450 c 128,-1,28
 211 411 211 411 204 337 c 1,29,-1
 408 345 l 1,30,31
 410 350 410 350 411 360 c 128,-1,32
 412 370 412 370 412 383 c 0,33,34
 412 489 412 489 323 489 c 0,26,27
149 708 m 0,35,36
 149 737 149 737 169 758.5 c 128,-1,37
 189 780 189 780 224 780 c 256,38,39
 259 780 259 780 280 758.5 c 128,-1,40
 301 737 301 737 301 708 c 0,41,42
 301 682 301 682 281.5 659.5 c 128,-1,43
 262 637 262 637 224 637 c 0,44,45
 187 637 187 637 168 659.5 c 128,-1,46
 149 682 149 682 149 708 c 0,35,36
367 708 m 0,47,48
 367 737 367 737 387 758.5 c 128,-1,49
 407 780 407 780 442 780 c 256,50,51
 477 780 477 780 498 758.5 c 128,-1,52
 519 737 519 737 519 708 c 0,53,54
 519 682 519 682 499.5 659.5 c 128,-1,55
 480 637 480 637 442 637 c 0,56,57
 405 637 405 637 386 659.5 c 128,-1,58
 367 682 367 682 367 708 c 0,47,48
EndSplineSet
EndChar
StartChar: igrave
Encoding: 236 236 306
Width: 360
Flags: W
LayerCount: 2
Back
Fore
SplineSet
344 35 m 1,0,-1
 344 0 l 1,1,-1
 24 0 l 1,2,-1
 24 35 l 1,3,-1
 109 55 l 1,4,-1
 109 441 l 1,5,-1
 24 468 l 1,6,-1
 24 492 l 1,7,-1
 243 540 l 1,8,-1
 264 540 l 1,9,-1
 264 55 l 1,10,-1
 344 35 l 1,0,-1
230 631 m 1,11,-1
 133 742 l 2,12,13
 116 762 116 762 108 780.5 c 128,-1,14
 100 799 100 799 100 814 c 0,15,16
 100 834 100 834 112.5 846.5 c 128,-1,17
 125 859 125 859 145 859 c 0,18,19
 202 859 202 859 220 793 c 2,20,-1
 261 642 l 1,21,-1
 230 631 l 1,11,-1
EndSplineSet
EndChar
StartChar: iacute
Encoding: 237 237 301
Width: 360
Flags: W
LayerCount: 2
Back
Fore
SplineSet
344 35 m 1,0,-1
 344 0 l 1,1,-1
 24 0 l 1,2,-1
 24 35 l 1,3,-1
 109 55 l 1,4,-1
 109 441 l 1,5,-1
 24 468 l 1,6,-1
 24 492 l 1,7,-1
 243 540 l 1,8,-1
 264 540 l 1,9,-1
 264 55 l 1,10,-1
 344 35 l 1,0,-1
109 642 m 1,11,-1
 150 793 l 2,12,13
 168 859 168 859 225 859 c 0,14,15
 245 859 245 859 257.5 846.5 c 128,-1,16
 270 834 270 834 270 814 c 0,17,18
 270 799 270 799 262 780.5 c 128,-1,19
 254 762 254 762 237 742 c 2,20,-1
 140 631 l 1,21,-1
 109 642 l 1,11,-1
EndSplineSet
EndChar
StartChar: icircumflex
Encoding: 238 238 303
Width: 360
Flags: W
LayerCount: 2
Back
Fore
SplineSet
344 35 m 1,0,-1
 344 0 l 1,1,-1
 24 0 l 1,2,-1
 24 35 l 1,3,-1
 109 55 l 1,4,-1
 109 441 l 1,5,-1
 24 468 l 1,6,-1
 24 492 l 1,7,-1
 243 540 l 1,8,-1
 264 540 l 1,9,-1
 264 55 l 1,10,-1
 344 35 l 1,0,-1
190 859 m 0,11,12
 213 859 213 859 227.5 848 c 128,-1,13
 242 837 242 837 256 811 c 2,14,-1
 342 642 l 1,15,-1
 311 630 l 1,16,-1
 189 746 l 1,17,-1
 67 630 l 1,18,-1
 36 642 l 1,19,-1
 120 811 l 2,20,21
 133 837 133 837 149.5 848 c 128,-1,22
 166 859 166 859 190 859 c 0,11,12
EndSplineSet
EndChar
StartChar: idieresis
Encoding: 239 239 304
Width: 360
Flags: W
LayerCount: 2
Back
Fore
SplineSet
344 35 m 1,0,-1
 344 0 l 1,1,-1
 24 0 l 1,2,-1
 24 35 l 1,3,-1
 109 55 l 1,4,-1
 109 441 l 1,5,-1
 24 468 l 1,6,-1
 24 492 l 1,7,-1
 243 540 l 1,8,-1
 264 540 l 1,9,-1
 264 55 l 1,10,-1
 344 35 l 1,0,-1
1 708 m 0,11,12
 1 737 1 737 21 758.5 c 128,-1,13
 41 780 41 780 76 780 c 256,14,15
 111 780 111 780 132 758.5 c 128,-1,16
 153 737 153 737 153 708 c 0,17,18
 153 682 153 682 133.5 659.5 c 128,-1,19
 114 637 114 637 76 637 c 0,20,21
 39 637 39 637 20 659.5 c 128,-1,22
 1 682 1 682 1 708 c 0,11,12
219 708 m 0,23,24
 219 737 219 737 239 758.5 c 128,-1,25
 259 780 259 780 294 780 c 256,26,27
 329 780 329 780 350 758.5 c 128,-1,28
 371 737 371 737 371 708 c 0,29,30
 371 682 371 682 351.5 659.5 c 128,-1,31
 332 637 332 637 294 637 c 0,32,33
 257 637 257 637 238 659.5 c 128,-1,34
 219 682 219 682 219 708 c 0,23,24
EndSplineSet
EndChar
StartChar: eth
Encoding: 240 240 242
Width: 607
Flags: W
LayerCount: 2
Back
Fore
SplineSet
396 651 m 1,0,1
 476 581 476 581 517.5 490.5 c 128,-1,2
 559 400 559 400 559 293 c 0,3,4
 559 220 559 220 537.5 163.5 c 128,-1,5
 516 107 516 107 478.5 68.5 c 128,-1,6
 441 30 441 30 391.5 10 c 128,-1,7
 342 -10 342 -10 287 -10 c 0,8,9
 233 -10 233 -10 187 8 c 128,-1,10
 141 26 141 26 107.5 58.5 c 128,-1,11
 74 91 74 91 55 136 c 128,-1,12
 36 181 36 181 36 236 c 0,13,14
 36 287 36 287 52.5 330 c 128,-1,15
 69 373 69 373 98.5 404.5 c 128,-1,16
 128 436 128 436 168.5 454 c 128,-1,17
 209 472 209 472 257 472 c 0,18,19
 299 472 299 472 331 458.5 c 128,-1,20
 363 445 363 445 381 420 c 1,21,22
 366 514 366 514 307 589 c 1,23,-1
 199 513 l 1,24,-1
 156 575 l 1,25,-1
 255 644 l 1,26,27
 229 668 229 668 197.5 689 c 128,-1,28
 166 710 166 710 129 730 c 1,29,-1
 162 780 l 1,30,31
 258 747 258 747 333 699 c 1,32,-1
 439 774 l 1,33,-1
 483 713 l 1,34,-1
 396 651 l 1,0,1
294 50 m 0,35,36
 341 50 341 50 368 100 c 128,-1,37
 395 150 395 150 395 238 c 0,38,39
 395 266 395 266 392 293 c 128,-1,40
 389 320 389 320 383 343 c 1,41,42
 370 369 370 369 348.5 383 c 128,-1,43
 327 397 327 397 301 397 c 0,44,45
 254 397 254 397 227 349 c 128,-1,46
 200 301 200 301 200 219 c 0,47,48
 200 141 200 141 225 95.5 c 128,-1,49
 250 50 250 50 294 50 c 0,35,36
EndSplineSet
EndChar
StartChar: ograve
Encoding: 242 242 357
Width: 642
Flags: W
LayerCount: 2
Back
Fore
SplineSet
321 540 m 256,0,1
 390 540 390 540 443 518.5 c 128,-1,2
 496 497 496 497 532 459.5 c 128,-1,3
 568 422 568 422 587 372 c 128,-1,4
 606 322 606 322 606 265 c 256,5,6
 606 208 606 208 587 158 c 128,-1,7
 568 108 568 108 532 70.5 c 128,-1,8
 496 33 496 33 443 11.5 c 128,-1,9
 390 -10 390 -10 321 -10 c 256,10,11
 252 -10 252 -10 199 11.5 c 128,-1,12
 146 33 146 33 110 70.5 c 128,-1,13
 74 108 74 108 55 158 c 128,-1,14
 36 208 36 208 36 265 c 256,15,16
 36 322 36 322 55 372 c 128,-1,17
 74 422 74 422 110 459.5 c 128,-1,18
 146 497 146 497 199 518.5 c 128,-1,19
 252 540 252 540 321 540 c 256,0,1
204 265 m 0,20,21
 204 230 204 230 208.5 190.5 c 128,-1,22
 213 151 213 151 225.5 118 c 128,-1,23
 238 85 238 85 261 63 c 128,-1,24
 284 41 284 41 321 41 c 0,25,26
 357 41 357 41 380 63 c 128,-1,27
 403 85 403 85 416 118 c 128,-1,28
 429 151 429 151 433.5 190.5 c 128,-1,29
 438 230 438 230 438 265 c 0,30,31
 438 299 438 299 433.5 338.5 c 128,-1,32
 429 378 429 378 416.5 411 c 128,-1,33
 404 444 404 444 381 466 c 128,-1,34
 358 488 358 488 321 488 c 256,35,36
 284 488 284 488 261 466 c 128,-1,37
 238 444 238 444 225.5 411 c 128,-1,38
 213 378 213 378 208.5 338.5 c 128,-1,39
 204 299 204 299 204 265 c 0,20,21
372 631 m 1,40,-1
 275 742 l 2,41,42
 258 762 258 762 250 780.5 c 128,-1,43
 242 799 242 799 242 814 c 0,44,45
 242 834 242 834 254.5 846.5 c 128,-1,46
 267 859 267 859 287 859 c 0,47,48
 344 859 344 859 362 793 c 2,49,-1
 403 642 l 1,50,-1
 372 631 l 1,40,-1
EndSplineSet
EndChar
StartChar: otilde
Encoding: 245 245 376
Width: 642
Flags: W
LayerCount: 2
Back
Fore
SplineSet
321 540 m 256,0,1
 390 540 390 540 443 518.5 c 128,-1,2
 496 497 496 497 532 459.5 c 128,-1,3
 568 422 568 422 587 372 c 128,-1,4
 606 322 606 322 606 265 c 256,5,6
 606 208 606 208 587 158 c 128,-1,7
 568 108 568 108 532 70.5 c 128,-1,8
 496 33 496 33 443 11.5 c 128,-1,9
 390 -10 390 -10 321 -10 c 256,10,11
 252 -10 252 -10 199 11.5 c 128,-1,12
 146 33 146 33 110 70.5 c 128,-1,13
 74 108 74 108 55 158 c 128,-1,14
 36 208 36 208 36 265 c 256,15,16
 36 322 36 322 55 372 c 128,-1,17
 74 422 74 422 110 459.5 c 128,-1,18
 146 497 146 497 199 518.5 c 128,-1,19
 252 540 252 540 321 540 c 256,0,1
204 265 m 0,20,21
 204 230 204 230 208.5 190.5 c 128,-1,22
 213 151 213 151 225.5 118 c 128,-1,23
 238 85 238 85 261 63 c 128,-1,24
 284 41 284 41 321 41 c 0,25,26
 357 41 357 41 380 63 c 128,-1,27
 403 85 403 85 416 118 c 128,-1,28
 429 151 429 151 433.5 190.5 c 128,-1,29
 438 230 438 230 438 265 c 0,30,31
 438 299 438 299 433.5 338.5 c 128,-1,32
 429 378 429 378 416.5 411 c 128,-1,33
 404 444 404 444 381 466 c 128,-1,34
 358 488 358 488 321 488 c 256,35,36
 284 488 284 488 261 466 c 128,-1,37
 238 444 238 444 225.5 411 c 128,-1,38
 213 378 213 378 208.5 338.5 c 128,-1,39
 204 299 204 299 204 265 c 0,20,21
160 663 m 1,40,41
 160 734 160 734 190 771 c 128,-1,42
 220 808 220 808 267 808 c 0,43,44
 286 808 286 808 301 802.5 c 128,-1,45
 316 797 316 797 329.5 790 c 128,-1,46
 343 783 343 783 357 777.5 c 128,-1,47
 371 772 371 772 388 772 c 0,48,49
 438 772 438 772 448 810 c 1,50,-1
 487 810 l 1,51,52
 487 741 487 741 461.5 701.5 c 128,-1,53
 436 662 436 662 385 662 c 0,54,55
 364 662 364 662 349 668 c 128,-1,56
 334 674 334 674 320.5 681.5 c 128,-1,57
 307 689 307 689 293 695 c 128,-1,58
 279 701 279 701 260 701 c 0,59,60
 234 701 234 701 218 690.5 c 128,-1,61
 202 680 202 680 199 663 c 1,62,-1
 160 663 l 1,40,41
EndSplineSet
EndChar
StartChar: odieresis
Encoding: 246 246 353
Width: 642
Flags: W
LayerCount: 2
Back
Fore
SplineSet
321 540 m 256,0,1
 390 540 390 540 443 518.5 c 128,-1,2
 496 497 496 497 532 459.5 c 128,-1,3
 568 422 568 422 587 372 c 128,-1,4
 606 322 606 322 606 265 c 256,5,6
 606 208 606 208 587 158 c 128,-1,7
 568 108 568 108 532 70.5 c 128,-1,8
 496 33 496 33 443 11.5 c 128,-1,9
 390 -10 390 -10 321 -10 c 256,10,11
 252 -10 252 -10 199 11.5 c 128,-1,12
 146 33 146 33 110 70.5 c 128,-1,13
 74 108 74 108 55 158 c 128,-1,14
 36 208 36 208 36 265 c 256,15,16
 36 322 36 322 55 372 c 128,-1,17
 74 422 74 422 110 459.5 c 128,-1,18
 146 497 146 497 199 518.5 c 128,-1,19
 252 540 252 540 321 540 c 256,0,1
204 265 m 0,20,21
 204 230 204 230 208.5 190.5 c 128,-1,22
 213 151 213 151 225.5 118 c 128,-1,23
 238 85 238 85 261 63 c 128,-1,24
 284 41 284 41 321 41 c 0,25,26
 357 41 357 41 380 63 c 128,-1,27
 403 85 403 85 416 118 c 128,-1,28
 429 151 429 151 433.5 190.5 c 128,-1,29
 438 230 438 230 438 265 c 0,30,31
 438 299 438 299 433.5 338.5 c 128,-1,32
 429 378 429 378 416.5 411 c 128,-1,33
 404 444 404 444 381 466 c 128,-1,34
 358 488 358 488 321 488 c 256,35,36
 284 488 284 488 261 466 c 128,-1,37
 238 444 238 444 225.5 411 c 128,-1,38
 213 378 213 378 208.5 338.5 c 128,-1,39
 204 299 204 299 204 265 c 0,20,21
137 708 m 0,40,41
 137 737 137 737 157 758.5 c 128,-1,42
 177 780 177 780 212 780 c 256,43,44
 247 780 247 780 268 758.5 c 128,-1,45
 289 737 289 737 289 708 c 0,46,47
 289 682 289 682 269.5 659.5 c 128,-1,48
 250 637 250 637 212 637 c 0,49,50
 175 637 175 637 156 659.5 c 128,-1,51
 137 682 137 682 137 708 c 0,40,41
355 708 m 0,52,53
 355 737 355 737 375 758.5 c 128,-1,54
 395 780 395 780 430 780 c 256,55,56
 465 780 465 780 486 758.5 c 128,-1,57
 507 737 507 737 507 708 c 0,58,59
 507 682 507 682 487.5 659.5 c 128,-1,60
 468 637 468 637 430 637 c 0,61,62
 393 637 393 637 374 659.5 c 128,-1,63
 355 682 355 682 355 708 c 0,52,53
EndSplineSet
EndChar
StartChar: divide
Encoding: 247 247 209
Width: 502
Flags: W
LayerCount: 2
Back
Fore
SplineSet
163 520 m 0,0,1
 163 553 163 553 185 578 c 128,-1,2
 207 603 207 603 248 603 c 0,3,4
 290 603 290 603 313.5 578 c 128,-1,5
 337 553 337 553 337 520 c 0,6,7
 337 489 337 489 314.5 463.5 c 128,-1,8
 292 438 292 438 248 438 c 0,9,10
 206 438 206 438 184.5 463.5 c 128,-1,11
 163 489 163 489 163 520 c 0,0,1
163 164 m 0,12,13
 163 197 163 197 185 222 c 128,-1,14
 207 247 207 247 248 247 c 0,15,16
 290 247 290 247 313.5 222 c 128,-1,17
 337 197 337 197 337 164 c 0,18,19
 337 133 337 133 314.5 107.5 c 128,-1,20
 292 82 292 82 248 82 c 0,21,22
 206 82 206 82 184.5 107.5 c 128,-1,23
 163 133 163 133 163 164 c 0,12,13
46 307 m 1,24,-1
 46 372 l 1,25,-1
 456 372 l 1,26,-1
 456 307 l 1,27,-1
 46 307 l 1,24,-1
EndSplineSet
Substitution2: "'tnum' Tabular Numbers in Latin lookup 3 subtable" divide.tnum
EndChar
StartChar: ugrave
Encoding: 249 249 477
Width: 664
Flags: W
LayerCount: 2
Back
Fore
SplineSet
342 495 m 1,0,-1
 342 530 l 1,1,-1
 567 530 l 1,2,-1
 567 90 l 1,3,-1
 643 62 l 1,4,-1
 643 39 l 1,5,-1
 439 -10 l 1,6,-1
 417 -10 l 1,7,-1
 417 53 l 1,8,-1
 414 56 l 1,9,10
 379 26 379 26 333.5 8 c 128,-1,11
 288 -10 288 -10 245 -10 c 0,12,13
 197 -10 197 -10 162 10 c 128,-1,14
 127 30 127 30 108 70 c 0,15,16
 103 79 103 79 100.5 89.5 c 128,-1,17
 98 100 98 100 96 116 c 128,-1,18
 94 132 94 132 93.5 154.5 c 128,-1,19
 93 177 93 177 93 212 c 2,20,-1
 93 475 l 1,21,-1
 18 495 l 1,22,-1
 18 530 l 1,23,-1
 248 530 l 1,24,-1
 248 256 l 2,25,26
 248 203 248 203 250 177 c 128,-1,27
 252 151 252 151 258 136 c 0,28,29
 278 81 278 81 342 81 c 0,30,31
 384 81 384 81 412 110 c 1,32,-1
 412 475 l 1,33,-1
 342 495 l 1,0,-1
351 631 m 1,34,-1
 254 742 l 2,35,36
 237 762 237 762 229 780.5 c 128,-1,37
 221 799 221 799 221 814 c 0,38,39
 221 834 221 834 233.5 846.5 c 128,-1,40
 246 859 246 859 266 859 c 0,41,42
 323 859 323 859 341 793 c 2,43,-1
 382 642 l 1,44,-1
 351 631 l 1,34,-1
EndSplineSet
EndChar
StartChar: uacute
Encoding: 250 250 472
Width: 664
Flags: W
LayerCount: 2
Back
Fore
SplineSet
342 495 m 1,0,-1
 342 530 l 1,1,-1
 567 530 l 1,2,-1
 567 90 l 1,3,-1
 643 62 l 1,4,-1
 643 39 l 1,5,-1
 439 -10 l 1,6,-1
 417 -10 l 1,7,-1
 417 53 l 1,8,-1
 414 56 l 1,9,10
 379 26 379 26 333.5 8 c 128,-1,11
 288 -10 288 -10 245 -10 c 0,12,13
 197 -10 197 -10 162 10 c 128,-1,14
 127 30 127 30 108 70 c 0,15,16
 103 79 103 79 100.5 89.5 c 128,-1,17
 98 100 98 100 96 116 c 128,-1,18
 94 132 94 132 93.5 154.5 c 128,-1,19
 93 177 93 177 93 212 c 2,20,-1
 93 475 l 1,21,-1
 18 495 l 1,22,-1
 18 530 l 1,23,-1
 248 530 l 1,24,-1
 248 256 l 2,25,26
 248 203 248 203 250 177 c 128,-1,27
 252 151 252 151 258 136 c 0,28,29
 278 81 278 81 342 81 c 0,30,31
 384 81 384 81 412 110 c 1,32,-1
 412 475 l 1,33,-1
 342 495 l 1,0,-1
262 642 m 1,34,-1
 303 793 l 2,35,36
 321 859 321 859 378 859 c 0,37,38
 398 859 398 859 410.5 846.5 c 128,-1,39
 423 834 423 834 423 814 c 0,40,41
 423 799 423 799 415 780.5 c 128,-1,42
 407 762 407 762 390 742 c 2,43,-1
 293 631 l 1,44,-1
 262 642 l 1,34,-1
EndSplineSet
EndChar
StartChar: ucircumflex
Encoding: 251 251 474
Width: 664
Flags: W
LayerCount: 2
Back
Fore
SplineSet
342 495 m 1,0,-1
 342 530 l 1,1,-1
 567 530 l 1,2,-1
 567 90 l 1,3,-1
 643 62 l 1,4,-1
 643 39 l 1,5,-1
 439 -10 l 1,6,-1
 417 -10 l 1,7,-1
 417 53 l 1,8,-1
 414 56 l 1,9,10
 379 26 379 26 333.5 8 c 128,-1,11
 288 -10 288 -10 245 -10 c 0,12,13
 197 -10 197 -10 162 10 c 128,-1,14
 127 30 127 30 108 70 c 0,15,16
 103 79 103 79 100.5 89.5 c 128,-1,17
 98 100 98 100 96 116 c 128,-1,18
 94 132 94 132 93.5 154.5 c 128,-1,19
 93 177 93 177 93 212 c 2,20,-1
 93 475 l 1,21,-1
 18 495 l 1,22,-1
 18 530 l 1,23,-1
 248 530 l 1,24,-1
 248 256 l 2,25,26
 248 203 248 203 250 177 c 128,-1,27
 252 151 252 151 258 136 c 0,28,29
 278 81 278 81 342 81 c 0,30,31
 384 81 384 81 412 110 c 1,32,-1
 412 475 l 1,33,-1
 342 495 l 1,0,-1
345 859 m 0,34,35
 368 859 368 859 382.5 848 c 128,-1,36
 397 837 397 837 411 811 c 2,37,-1
 497 642 l 1,38,-1
 466 630 l 1,39,-1
 344 746 l 1,40,-1
 222 630 l 1,41,-1
 191 642 l 1,42,-1
 275 811 l 2,43,44
 288 837 288 837 304.5 848 c 128,-1,45
 321 859 321 859 345 859 c 0,34,35
EndSplineSet
EndChar
StartChar: udieresis
Encoding: 252 252 475
Width: 664
Flags: W
LayerCount: 2
Back
Fore
SplineSet
342 495 m 1,0,-1
 342 530 l 1,1,-1
 567 530 l 1,2,-1
 567 90 l 1,3,-1
 643 62 l 1,4,-1
 643 39 l 1,5,-1
 439 -10 l 1,6,-1
 417 -10 l 1,7,-1
 417 53 l 1,8,-1
 414 56 l 1,9,10
 379 26 379 26 333.5 8 c 128,-1,11
 288 -10 288 -10 245 -10 c 0,12,13
 197 -10 197 -10 162 10 c 128,-1,14
 127 30 127 30 108 70 c 0,15,16
 103 79 103 79 100.5 89.5 c 128,-1,17
 98 100 98 100 96 116 c 128,-1,18
 94 132 94 132 93.5 154.5 c 128,-1,19
 93 177 93 177 93 212 c 2,20,-1
 93 475 l 1,21,-1
 18 495 l 1,22,-1
 18 530 l 1,23,-1
 248 530 l 1,24,-1
 248 256 l 2,25,26
 248 203 248 203 250 177 c 128,-1,27
 252 151 252 151 258 136 c 0,28,29
 278 81 278 81 342 81 c 0,30,31
 384 81 384 81 412 110 c 1,32,-1
 412 475 l 1,33,-1
 342 495 l 1,0,-1
150 708 m 0,34,35
 150 737 150 737 170 758.5 c 128,-1,36
 190 780 190 780 225 780 c 256,37,38
 260 780 260 780 281 758.5 c 128,-1,39
 302 737 302 737 302 708 c 0,40,41
 302 682 302 682 282.5 659.5 c 128,-1,42
 263 637 263 637 225 637 c 0,43,44
 188 637 188 637 169 659.5 c 128,-1,45
 150 682 150 682 150 708 c 0,34,35
368 708 m 0,46,47
 368 737 368 737 388 758.5 c 128,-1,48
 408 780 408 780 443 780 c 256,49,50
 478 780 478 780 499 758.5 c 128,-1,51
 520 737 520 737 520 708 c 0,52,53
 520 682 520 682 500.5 659.5 c 128,-1,54
 481 637 481 637 443 637 c 0,55,56
 406 637 406 637 387 659.5 c 128,-1,57
 368 682 368 682 368 708 c 0,46,47
EndSplineSet
EndChar
StartChar: thorn
Encoding: 254 254 450
Width: 659
Flags: W
LayerCount: 2
Back
Fore
SplineSet
331 44 m 0,0,1
 358 44 358 44 380.5 59.5 c 128,-1,2
 403 75 403 75 419 103.5 c 128,-1,3
 435 132 435 132 443.5 171.5 c 128,-1,4
 452 211 452 211 452 260 c 0,5,6
 452 356 452 356 420 409 c 128,-1,7
 388 462 388 462 331 462 c 0,8,9
 272 462 272 462 234 404 c 1,10,-1
 234 154 l 2,11,12
 234 107 234 107 262 75.5 c 128,-1,13
 290 44 290 44 331 44 c 0,0,1
329 -10 m 0,14,15
 303 -10 303 -10 280 -6.5 c 128,-1,16
 257 -3 257 -3 234 5 c 1,17,-1
 234 -200 l 1,18,-1
 368 -226 l 1,19,-1
 368 -250 l 1,20,-1
 -8 -250 l 1,21,-1
 -8 -226 l 1,22,-1
 79 -200 l 1,23,-1
 79 731 l 1,24,-1
 -5 758 l 1,25,-1
 -5 781 l 1,26,-1
 212 830 l 1,27,-1
 234 830 l 1,28,-1
 234 469 l 1,29,30
 307 540 307 540 402 540 c 0,31,32
 451 540 451 540 491.5 521.5 c 128,-1,33
 532 503 532 503 560.5 469 c 128,-1,34
 589 435 589 435 605 387.5 c 128,-1,35
 621 340 621 340 621 282 c 0,36,37
 621 216 621 216 600.5 162 c 128,-1,38
 580 108 580 108 541.5 69.5 c 128,-1,39
 503 31 503 31 449 10.5 c 128,-1,40
 395 -10 395 -10 329 -10 c 0,14,15
EndSplineSet
EndChar
StartChar: ydieresis
Encoding: 255 255 520
Width: 630
Flags: W
LayerCount: 2
Back
Fore
SplineSet
372 171 m 1,0,-1
 473 416 l 2,1,2
 478 428 478 428 480 436 c 128,-1,3
 482 444 482 444 482 451 c 0,4,5
 482 491 482 491 402 495 c 1,6,-1
 402 530 l 1,7,-1
 643 530 l 1,8,-1
 643 495 l 1,9,10
 615 490 615 490 597.5 484 c 128,-1,11
 580 478 580 478 568.5 469 c 128,-1,12
 557 460 557 460 549 447 c 128,-1,13
 541 434 541 434 533 415 c 2,14,-1
 302 -141 l 2,15,16
 275 -206 275 -206 237 -234 c 0,17,18
 199 -260 199 -260 138 -260 c 0,19,20
 88 -260 88 -260 54 -238.5 c 128,-1,21
 20 -217 20 -217 20 -174 c 0,22,23
 20 -145 20 -145 39 -128 c 128,-1,24
 58 -111 58 -111 84 -111 c 0,25,26
 107 -111 107 -111 124 -123.5 c 128,-1,27
 141 -136 141 -136 149 -162 c 0,28,29
 157 -186 157 -186 163 -193 c 128,-1,30
 169 -200 169 -200 183 -200 c 0,31,32
 200 -200 200 -200 217.5 -182.5 c 128,-1,33
 235 -165 235 -165 246 -134 c 2,34,-1
 286 -28 l 1,35,-1
 72 455 l 2,36,37
 64 474 64 474 47 482.5 c 128,-1,38
 30 491 30 491 -8 495 c 1,39,-1
 -8 530 l 1,40,-1
 318 530 l 1,41,-1
 318 495 l 1,42,43
 281 492 281 492 264 485.5 c 128,-1,44
 247 479 247 479 247 463 c 0,45,46
 247 453 247 453 251 445 c 2,47,-1
 367 171 l 1,48,-1
 372 171 l 1,0,-1
185 708 m 0,49,50
 185 737 185 737 205 758.5 c 128,-1,51
 225 780 225 780 260 780 c 256,52,53
 295 780 295 780 316 758.5 c 128,-1,54
 337 737 337 737 337 708 c 0,55,56
 337 682 337 682 317.5 659.5 c 128,-1,57
 298 637 298 637 260 637 c 0,58,59
 223 637 223 637 204 659.5 c 128,-1,60
 185 682 185 682 185 708 c 0,49,50
403 708 m 0,61,62
 403 737 403 737 423 758.5 c 128,-1,63
 443 780 443 780 478 780 c 256,64,65
 513 780 513 780 534 758.5 c 128,-1,66
 555 737 555 737 555 708 c 0,67,68
 555 682 555 682 535.5 659.5 c 128,-1,69
 516 637 516 637 478 637 c 0,70,71
 441 637 441 637 422 659.5 c 128,-1,72
 403 682 403 682 403 708 c 0,61,62
EndSplineSet
EndChar
StartChar: Abreve
Encoding: 258 258 5
Width: 781
Flags: W
LayerCount: 2
Back
Fore
SplineSet
442 222 m 1,0,-1
 217 222 l 1,1,-1
 188 146 l 2,2,3
 177 116 177 116 177 99 c 0,4,5
 177 73 177 73 202 59.5 c 128,-1,6
 227 46 227 46 290 37 c 1,7,-1
 290 0 l 1,8,-1
 -20 0 l 1,9,-1
 -20 37 l 1,10,11
 15 43 15 43 36.5 49.5 c 128,-1,12
 58 56 58 56 72.5 68 c 128,-1,13
 87 80 87 80 97 99 c 128,-1,14
 107 118 107 118 119 148 c 2,15,-1
 308 630 l 1,16,-1
 262 733 l 1,17,-1
 411 790 l 1,18,-1
 697 98 l 2,19,20
 704 81 704 81 711.5 70 c 128,-1,21
 719 59 719 59 730.5 52 c 128,-1,22
 742 45 742 45 760 42 c 128,-1,23
 778 39 778 39 805 37 c 1,24,-1
 805 0 l 1,25,-1
 393 0 l 1,26,-1
 393 37 l 1,27,28
 448 39 448 39 469.5 46.5 c 128,-1,29
 491 54 491 54 491 74 c 0,30,31
 491 90 491 90 482 114 c 2,32,-1
 442 222 l 1,0,-1
330 516 m 1,33,-1
 239 279 l 1,34,-1
 421 279 l 1,35,-1
 334 516 l 1,36,-1
 330 516 l 1,33,-1
251 965 m 1,37,38
 263 948 263 948 291 940.5 c 128,-1,39
 319 933 319 933 352 933 c 0,40,41
 384 933 384 933 411.5 940.5 c 128,-1,42
 439 948 439 948 456 965 c 1,43,-1
 505 965 l 1,44,45
 492 919 492 919 472.5 892 c 128,-1,46
 453 865 453 865 431 851 c 128,-1,47
 409 837 409 837 387 833 c 128,-1,48
 365 829 365 829 348 829 c 0,49,50
 325 829 325 829 300.5 836 c 128,-1,51
 276 843 276 843 255.5 859 c 128,-1,52
 235 875 235 875 220 901 c 128,-1,53
 205 927 205 927 201 965 c 1,54,-1
 251 965 l 1,37,38
EndSplineSet
EndChar
StartChar: abreve
Encoding: 259 259 146
Width: 585
Flags: W
LayerCount: 2
Back
Fore
SplineSet
170 -10 m 0,0,1
 108 -10 108 -10 73 21 c 128,-1,2
 38 52 38 52 38 108 c 0,3,4
 38 183 38 183 108.5 228 c 128,-1,5
 179 273 179 273 331 294 c 1,6,-1
 331 367 l 2,7,8
 331 401 331 401 328 423.5 c 128,-1,9
 325 446 325 446 318.5 459 c 128,-1,10
 312 472 312 472 300 477 c 128,-1,11
 288 482 288 482 270 482 c 0,12,13
 232 482 232 482 210.5 464 c 128,-1,14
 189 446 189 446 189 414 c 0,15,16
 189 403 189 403 191 392 c 128,-1,17
 193 381 193 381 193 370 c 0,18,19
 193 341 193 341 173 322 c 128,-1,20
 153 303 153 303 124 303 c 256,21,22
 95 303 95 303 76.5 322 c 128,-1,23
 58 341 58 341 58 371 c 0,24,25
 58 403 58 403 78.5 434 c 128,-1,26
 99 465 99 465 137 490 c 256,27,28
 175 515 175 515 223.5 527.5 c 128,-1,29
 272 540 272 540 326 540 c 256,30,31
 380 540 380 540 413 527.5 c 128,-1,32
 446 515 446 515 463 490 c 0,33,34
 475 471 475 471 480.5 441.5 c 128,-1,35
 486 412 486 412 486 356 c 2,36,-1
 486 150 l 2,37,38
 486 105 486 105 495 85.5 c 128,-1,39
 504 66 504 66 524 66 c 0,40,41
 547 66 547 66 568 90 c 1,42,-1
 591 57 l 1,43,44
 528 -10 528 -10 445 -10 c 0,45,46
 396 -10 396 -10 371 9.5 c 128,-1,47
 346 29 346 29 338 69 c 1,48,-1
 334 69 l 1,49,50
 261 -10 261 -10 170 -10 c 0,0,1
262 84 m 0,51,52
 304 84 304 84 331 113 c 1,53,-1
 331 247 l 1,54,55
 295 240 295 240 270.5 231.5 c 128,-1,56
 246 223 246 223 231.5 212 c 128,-1,57
 217 201 217 201 211 185.5 c 128,-1,58
 205 170 205 170 205 149 c 0,59,60
 205 84 205 84 262 84 c 0,51,52
211 790 m 1,61,62
 223 766 223 766 251 755.5 c 128,-1,63
 279 745 279 745 312 745 c 0,64,65
 344 745 344 745 371.5 755.5 c 128,-1,66
 399 766 399 766 416 790 c 1,67,-1
 465 790 l 1,68,69
 452 740 452 740 432.5 710.5 c 128,-1,70
 413 681 413 681 391 665.5 c 128,-1,71
 369 650 369 650 347 645.5 c 128,-1,72
 325 641 325 641 308 641 c 0,73,74
 285 641 285 641 260.5 648.5 c 128,-1,75
 236 656 236 656 215.5 673.5 c 128,-1,76
 195 691 195 691 180 719.5 c 128,-1,77
 165 748 165 748 161 790 c 1,78,-1
 211 790 l 1,61,62
EndSplineSet
EndChar
StartChar: Aogonek
Encoding: 260 260 10
Width: 781
Flags: W
LayerCount: 2
Back
Fore
SplineSet
740 -202 m 1,0,1
 685 -256 685 -256 610 -256 c 0,2,3
 563 -256 563 -256 535.5 -232.5 c 128,-1,4
 508 -209 508 -209 508 -168 c 0,5,6
 508 -129 508 -129 538 -85 c 128,-1,7
 568 -41 568 -41 622 0 c 1,8,-1
 393 0 l 1,9,-1
 393 37 l 1,10,11
 448 39 448 39 469.5 46.5 c 128,-1,12
 491 54 491 54 491 74 c 0,13,14
 491 90 491 90 482 114 c 2,15,-1
 442 222 l 1,16,-1
 217 222 l 1,17,-1
 188 146 l 2,18,19
 177 116 177 116 177 99 c 0,20,21
 177 73 177 73 202 59.5 c 128,-1,22
 227 46 227 46 290 37 c 1,23,-1
 290 0 l 1,24,-1
 -20 0 l 1,25,-1
 -20 37 l 1,26,27
 15 43 15 43 36.5 49.5 c 128,-1,28
 58 56 58 56 72.5 68 c 128,-1,29
 87 80 87 80 97 99 c 128,-1,30
 107 118 107 118 119 148 c 2,31,-1
 308 630 l 1,32,-1
 262 733 l 1,33,-1
 411 790 l 1,34,-1
 697 98 l 2,35,36
 704 81 704 81 711.5 70 c 128,-1,37
 719 59 719 59 730.5 52 c 128,-1,38
 742 45 742 45 760 42 c 128,-1,39
 778 39 778 39 805 37 c 1,40,-1
 805 0 l 1,41,-1
 684 0 l 1,42,43
 621 -69 621 -69 621 -124 c 0,44,45
 621 -181 621 -181 669 -181 c 0,46,47
 683 -181 683 -181 695.5 -176 c 128,-1,48
 708 -171 708 -171 725 -160 c 1,49,-1
 740 -202 l 1,0,1
330 516 m 1,50,-1
 239 279 l 1,51,-1
 421 279 l 1,52,-1
 334 516 l 1,53,-1
 330 516 l 1,50,-1
EndSplineSet
EndChar
StartChar: aogonek
Encoding: 261 261 156
Width: 585
Flags: W
LayerCount: 2
Back
Fore
SplineSet
578 -202 m 1,0,1
 523 -256 523 -256 448 -256 c 0,2,3
 401 -256 401 -256 373.5 -232.5 c 128,-1,4
 346 -209 346 -209 346 -168 c 0,5,6
 346 -131 346 -131 372 -89.5 c 128,-1,7
 398 -48 398 -48 445 -10 c 1,8,9
 396 -10 396 -10 371 9.5 c 128,-1,10
 346 29 346 29 338 69 c 1,11,-1
 334 69 l 1,12,13
 261 -10 261 -10 170 -10 c 0,14,15
 108 -10 108 -10 73 21 c 128,-1,16
 38 52 38 52 38 108 c 0,17,18
 38 183 38 183 108.5 228 c 128,-1,19
 179 273 179 273 331 294 c 1,20,-1
 331 367 l 2,21,22
 331 401 331 401 328 423.5 c 128,-1,23
 325 446 325 446 318.5 459 c 128,-1,24
 312 472 312 472 300 477 c 128,-1,25
 288 482 288 482 270 482 c 0,26,27
 232 482 232 482 210.5 464 c 128,-1,28
 189 446 189 446 189 414 c 0,29,30
 189 403 189 403 191 392 c 128,-1,31
 193 381 193 381 193 370 c 0,32,33
 193 341 193 341 173 322 c 128,-1,34
 153 303 153 303 124 303 c 256,35,36
 95 303 95 303 76.5 322 c 128,-1,37
 58 341 58 341 58 371 c 0,38,39
 58 403 58 403 78.5 434 c 128,-1,40
 99 465 99 465 137 490 c 256,41,42
 175 515 175 515 223.5 527.5 c 128,-1,43
 272 540 272 540 326 540 c 256,44,45
 380 540 380 540 413 527.5 c 128,-1,46
 446 515 446 515 463 490 c 0,47,48
 475 471 475 471 480.5 441.5 c 128,-1,49
 486 412 486 412 486 356 c 2,50,-1
 486 150 l 2,51,52
 486 105 486 105 495 85.5 c 128,-1,53
 504 66 504 66 524 66 c 0,54,55
 547 66 547 66 568 90 c 1,56,-1
 591 57 l 1,57,-1
 533 11 l 2,58,59
 491 -23 491 -23 475 -59 c 128,-1,60
 459 -95 459 -95 459 -124 c 0,61,62
 459 -181 459 -181 507 -181 c 0,63,64
 521 -181 521 -181 533.5 -176 c 128,-1,65
 546 -171 546 -171 563 -160 c 1,66,-1
 578 -202 l 1,0,1
262 84 m 0,67,68
 304 84 304 84 331 113 c 1,69,-1
 331 247 l 1,70,71
 295 240 295 240 270.5 231.5 c 128,-1,72
 246 223 246 223 231.5 212 c 128,-1,73
 217 201 217 201 211 185.5 c 128,-1,74
 205 170 205 170 205 149 c 0,75,76
 205 84 205 84 262 84 c 0,67,68
EndSplineSet
EndChar
StartChar: cacute
Encoding: 263 263 179
Width: 571
Flags: W
LayerCount: 2
Back
Fore
SplineSet
305 -10 m 0,0,1
 246 -10 246 -10 196.5 10 c 128,-1,2
 147 30 147 30 111.5 65.5 c 128,-1,3
 76 101 76 101 56 150 c 128,-1,4
 36 199 36 199 36 258 c 0,5,6
 36 319 36 319 58 371 c 128,-1,7
 80 423 80 423 119 460.5 c 128,-1,8
 158 498 158 498 212.5 519 c 128,-1,9
 267 540 267 540 332 540 c 0,10,11
 377 540 377 540 416 530 c 128,-1,12
 455 520 455 520 483 502 c 128,-1,13
 511 484 511 484 527 459.5 c 128,-1,14
 543 435 543 435 543 407 c 0,15,16
 543 376 543 376 525 358 c 128,-1,17
 507 340 507 340 476 340 c 0,18,19
 457 340 457 340 445 346 c 128,-1,20
 433 352 433 352 425.5 361.5 c 128,-1,21
 418 371 418 371 414.5 382.5 c 128,-1,22
 411 394 411 394 410 405 c 0,23,24
 408 423 408 423 404 438 c 128,-1,25
 400 453 400 453 391.5 464 c 128,-1,26
 383 475 383 475 370 481.5 c 128,-1,27
 357 488 357 488 337 488 c 0,28,29
 274 488 274 488 239 436.5 c 128,-1,30
 204 385 204 385 204 289 c 0,31,32
 204 192 204 192 241 142.5 c 128,-1,33
 278 93 278 93 353 93 c 0,34,35
 444 93 444 93 501 159 c 2,36,-1
 508 167 l 1,37,-1
 536 145 l 1,38,-1
 531 133 l 2,39,40
 501 61 501 61 443.5 25.5 c 128,-1,41
 386 -10 386 -10 305 -10 c 0,0,1
264 642 m 1,42,-1
 305 793 l 2,43,44
 323 859 323 859 380 859 c 0,45,46
 400 859 400 859 412.5 846.5 c 128,-1,47
 425 834 425 834 425 814 c 0,48,49
 425 799 425 799 417 780.5 c 128,-1,50
 409 762 409 762 392 742 c 2,51,-1
 295 631 l 1,52,-1
 264 642 l 1,42,-1
EndSplineSet
EndChar
StartChar: Ccircumflex
Encoding: 264 264 20
Width: 813
Flags: W
LayerCount: 2
Back
Fore
SplineSet
45 380 m 0,0,1
 45 468 45 468 74 541.5 c 128,-1,2
 103 615 103 615 155.5 668 c 128,-1,3
 208 721 208 721 280 750.5 c 128,-1,4
 352 780 352 780 439 780 c 0,5,6
 502 780 502 780 563.5 764 c 128,-1,7
 625 748 625 748 675 719 c 1,8,-1
 679 719 l 1,9,-1
 723 770 l 1,10,-1
 753 770 l 1,11,-1
 753 525 l 1,12,-1
 705 525 l 1,13,14
 695 551 695 551 684.5 574 c 128,-1,15
 674 597 674 597 661 616 c 0,16,17
 626 670 626 670 578 695.5 c 128,-1,18
 530 721 530 721 467 721 c 0,19,20
 234 721 234 721 234 390 c 0,21,22
 234 223 234 223 292.5 136.5 c 128,-1,23
 351 50 351 50 463 50 c 0,24,25
 525 50 525 50 574.5 76.5 c 128,-1,26
 624 103 624 103 658 152 c 0,27,28
 675 178 675 178 688 209 c 128,-1,29
 701 240 701 240 708 277 c 1,30,-1
 753 277 l 1,31,-1
 753 0 l 1,32,-1
 716 0 l 1,33,-1
 675 66 l 1,34,35
 616 26 616 26 559 8 c 128,-1,36
 502 -10 502 -10 436 -10 c 0,37,38
 349 -10 349 -10 277 18.5 c 128,-1,39
 205 47 205 47 153.5 98 c 128,-1,40
 102 149 102 149 73.5 221 c 128,-1,41
 45 293 45 293 45 380 c 0,0,1
446 960 m 0,42,43
 463 960 463 960 478.5 952 c 128,-1,44
 494 944 494 944 514 927 c 2,45,-1
 618 843 l 1,46,-1
 602 821 l 1,47,-1
 445 862 l 1,48,-1
 288 821 l 1,49,-1
 272 843 l 1,50,-1
 374 927 l 2,51,52
 394 944 394 944 410 952 c 128,-1,53
 426 960 426 960 446 960 c 0,42,43
EndSplineSet
EndChar
StartChar: ccaron
Encoding: 269 269 183
Width: 571
Flags: W
LayerCount: 2
Back
Fore
SplineSet
305 -10 m 0,0,1
 246 -10 246 -10 196.5 10 c 128,-1,2
 147 30 147 30 111.5 65.5 c 128,-1,3
 76 101 76 101 56 150 c 128,-1,4
 36 199 36 199 36 258 c 0,5,6
 36 319 36 319 58 371 c 128,-1,7
 80 423 80 423 119 460.5 c 128,-1,8
 158 498 158 498 212.5 519 c 128,-1,9
 267 540 267 540 332 540 c 0,10,11
 377 540 377 540 416 530 c 128,-1,12
 455 520 455 520 483 502 c 128,-1,13
 511 484 511 484 527 459.5 c 128,-1,14
 543 435 543 435 543 407 c 0,15,16
 543 376 543 376 525 358 c 128,-1,17
 507 340 507 340 476 340 c 0,18,19
 457 340 457 340 445 346 c 128,-1,20
 433 352 433 352 425.5 361.5 c 128,-1,21
 418 371 418 371 414.5 382.5 c 128,-1,22
 411 394 411 394 410 405 c 0,23,24
 408 423 408 423 404 438 c 128,-1,25
 400 453 400 453 391.5 464 c 128,-1,26
 383 475 383 475 370 481.5 c 128,-1,27
 357 488 357 488 337 488 c 0,28,29
 274 488 274 488 239 436.5 c 128,-1,30
 204 385 204 385 204 289 c 0,31,32
 204 192 204 192 241 142.5 c 128,-1,33
 278 93 278 93 353 93 c 0,34,35
 444 93 444 93 501 159 c 2,36,-1
 508 167 l 1,37,-1
 536 145 l 1,38,-1
 531 133 l 2,39,40
 501 61 501 61 443.5 25.5 c 128,-1,41
 386 -10 386 -10 305 -10 c 0,0,1
336 630 m 0,42,43
 312 630 312 630 295.5 641 c 128,-1,44
 279 652 279 652 266 678 c 2,45,-1
 182 847 l 1,46,-1
 213 859 l 1,47,-1
 335 743 l 1,48,-1
 457 859 l 1,49,-1
 488 847 l 1,50,-1
 402 678 l 2,51,52
 388 652 388 652 373.5 641 c 128,-1,53
 359 630 359 630 336 630 c 0,42,43
EndSplineSet
EndChar
StartChar: dcaron
Encoding: 271 271 202
Width: 674
Flags: W
LayerCount: 2
Back
Fore
SplineSet
265 -10 m 0,0,1
 217 -10 217 -10 175.5 10 c 128,-1,2
 134 30 134 30 103 65.5 c 128,-1,3
 72 101 72 101 54.5 150 c 128,-1,4
 37 199 37 199 37 256 c 0,5,6
 37 319 37 319 57 371 c 128,-1,7
 77 423 77 423 113 460.5 c 128,-1,8
 149 498 149 498 199.5 519 c 128,-1,9
 250 540 250 540 310 540 c 0,10,11
 339 540 339 540 368 534 c 128,-1,12
 397 528 397 528 426 515 c 1,13,-1
 426 730 l 1,14,-1
 341 758 l 1,15,-1
 341 781 l 1,16,-1
 559 830 l 1,17,-1
 581 830 l 1,18,-1
 581 98 l 1,19,-1
 660 73 l 1,20,-1
 660 52 l 1,21,-1
 452 -10 l 1,22,-1
 434 -10 l 1,23,-1
 434 51 l 1,24,-1
 429 53 l 1,25,26
 398 23 398 23 356 6.5 c 128,-1,27
 314 -10 314 -10 265 -10 c 0,0,1
329 62 m 0,28,29
 359 62 359 62 383.5 76 c 128,-1,30
 408 90 408 90 426 114 c 1,31,-1
 426 362 l 2,32,33
 426 418 426 418 400 452 c 128,-1,34
 374 486 374 486 330 486 c 0,35,36
 302 486 302 486 279.5 470.5 c 128,-1,37
 257 455 257 455 241 427 c 128,-1,38
 225 399 225 399 216.5 360 c 128,-1,39
 208 321 208 321 208 273 c 0,40,41
 208 176 208 176 239.5 119 c 128,-1,42
 271 62 271 62 329 62 c 0,28,29
641 642 m 1,43,-1
 641 783 l 2,44,45
 641 821 641 821 660 839 c 128,-1,46
 679 857 679 857 708 857 c 0,47,48
 746 857 746 857 746 817 c 0,49,50
 746 792 746 792 733 765 c 2,51,-1
 673 642 l 1,52,-1
 641 642 l 1,43,-1
EndSplineSet
EndChar
StartChar: Dcroat
Encoding: 272 272 24
Width: 878
Flags: W
LayerCount: 2
Back
Fore
SplineSet
41 0 m 1,0,-1
 41 38 l 1,1,-1
 127 57 l 1,2,-1
 127 354 l 1,3,-1
 52 354 l 1,4,-1
 52 439 l 1,5,-1
 127 439 l 1,6,-1
 127 714 l 1,7,-1
 41 733 l 1,8,-1
 41 770 l 1,9,-1
 314 770 l 2,10,11
 379 770 379 770 432 766 c 128,-1,12
 485 762 485 762 528 753.5 c 128,-1,13
 571 745 571 745 606.5 731 c 128,-1,14
 642 717 642 717 672 697 c 0,15,16
 746 648 746 648 789 568.5 c 128,-1,17
 832 489 832 489 832 386 c 0,18,19
 832 280 832 280 786.5 194 c 128,-1,20
 741 108 741 108 664 59 c 0,21,22
 639 43 639 43 612.5 32 c 128,-1,23
 586 21 586 21 555.5 14 c 128,-1,24
 525 7 525 7 489.5 3.5 c 128,-1,25
 454 0 454 0 412 0 c 2,26,-1
 41 0 l 1,0,-1
401 54 m 0,27,28
 518 54 518 54 575 121 c 0,29,30
 609 161 609 161 624.5 226.5 c 128,-1,31
 640 292 640 292 640 386 c 0,32,33
 640 478 640 478 624.5 539.5 c 128,-1,34
 609 601 609 601 575 642 c 0,35,36
 516 714 516 714 389 714 c 2,37,-1
 299 714 l 1,38,-1
 299 439 l 1,39,-1
 439 439 l 1,40,-1
 439 354 l 1,41,-1
 299 354 l 1,42,-1
 299 114 l 2,43,44
 299 82 299 82 322.5 68 c 128,-1,45
 346 54 346 54 401 54 c 0,27,28
EndSplineSet
EndChar
StartChar: dcroat
Encoding: 273 273 203
Width: 674
Flags: W
LayerCount: 2
Back
Fore
SplineSet
265 -10 m 0,0,1
 217 -10 217 -10 175.5 10 c 128,-1,2
 134 30 134 30 103 65.5 c 128,-1,3
 72 101 72 101 54.5 150 c 128,-1,4
 37 199 37 199 37 256 c 0,5,6
 37 319 37 319 57 371 c 128,-1,7
 77 423 77 423 113 460.5 c 128,-1,8
 149 498 149 498 199.5 519 c 128,-1,9
 250 540 250 540 310 540 c 0,10,11
 339 540 339 540 368 534 c 128,-1,12
 397 528 397 528 426 515 c 1,13,-1
 426 599 l 1,14,-1
 313 599 l 1,15,-1
 313 684 l 1,16,-1
 426 684 l 1,17,-1
 426 730 l 1,18,-1
 341 758 l 1,19,-1
 341 781 l 1,20,-1
 559 830 l 1,21,-1
 581 830 l 1,22,-1
 581 684 l 1,23,-1
 660 684 l 1,24,-1
 660 599 l 1,25,-1
 581 599 l 1,26,-1
 581 98 l 1,27,-1
 660 73 l 1,28,-1
 660 52 l 1,29,-1
 452 -10 l 1,30,-1
 434 -10 l 1,31,-1
 434 51 l 1,32,-1
 429 53 l 1,33,34
 398 23 398 23 356 6.5 c 128,-1,35
 314 -10 314 -10 265 -10 c 0,0,1
329 62 m 0,36,37
 359 62 359 62 383.5 76 c 128,-1,38
 408 90 408 90 426 114 c 1,39,-1
 426 362 l 2,40,41
 426 418 426 418 400 452 c 128,-1,42
 374 486 374 486 330 486 c 0,43,44
 302 486 302 486 279.5 470.5 c 128,-1,45
 257 455 257 455 241 427 c 128,-1,46
 225 399 225 399 216.5 360 c 128,-1,47
 208 321 208 321 208 273 c 0,48,49
 208 176 208 176 239.5 119 c 128,-1,50
 271 62 271 62 329 62 c 0,36,37
EndSplineSet
EndChar
StartChar: emacron
Encoding: 275 275 235
Width: 604
Flags: W
LayerCount: 2
Back
Fore
SplineSet
566 290 m 1,0,-1
 202 290 l 1,1,2
 203 93 203 93 359 93 c 0,3,4
 403 93 403 93 448 109.5 c 128,-1,5
 493 126 493 126 522 159 c 2,6,-1
 529 167 l 1,7,-1
 557 143 l 1,8,-1
 552 131 l 2,9,10
 524 63 524 63 458.5 26.5 c 128,-1,11
 393 -10 393 -10 311 -10 c 0,12,13
 249 -10 249 -10 198 9.5 c 128,-1,14
 147 29 147 29 111 64 c 128,-1,15
 75 99 75 99 55.5 148 c 128,-1,16
 36 197 36 197 36 257 c 0,17,18
 36 320 36 320 58 372 c 128,-1,19
 80 424 80 424 119.5 461.5 c 128,-1,20
 159 499 159 499 214 519.5 c 128,-1,21
 269 540 269 540 336 540 c 0,22,23
 451 540 451 540 510.5 478.5 c 128,-1,24
 570 417 570 417 574 296 c 1,25,-1
 566 290 l 1,0,-1
323 489 m 0,26,27
 271 489 271 489 241 450 c 128,-1,28
 211 411 211 411 204 337 c 1,29,-1
 408 345 l 1,30,31
 410 350 410 350 411 360 c 128,-1,32
 412 370 412 370 412 383 c 0,33,34
 412 489 412 489 323 489 c 0,26,27
180 694 m 1,35,-1
 180 790 l 1,36,-1
 487 790 l 1,37,-1
 487 694 l 1,38,-1
 180 694 l 1,35,-1
EndSplineSet
EndChar
StartChar: Ebreve
Encoding: 276 276 28
Width: 731
Flags: W
LayerCount: 2
Back
Fore
SplineSet
299 713 m 1,0,-1
 299 434 l 1,1,-1
 425 434 l 1,2,3
 442 462 442 462 452 490.5 c 128,-1,4
 462 519 462 519 468 547 c 1,5,-1
 510 547 l 1,6,-1
 510 267 l 1,7,-1
 468 267 l 1,8,9
 462 295 462 295 451.5 323.5 c 128,-1,10
 441 352 441 352 425 380 c 1,11,-1
 299 380 l 1,12,-1
 299 57 l 1,13,-1
 548 57 l 1,14,15
 580 102 580 102 600.5 145.5 c 128,-1,16
 621 189 621 189 639 234 c 1,17,-1
 691 234 l 1,18,-1
 649 0 l 1,19,-1
 42 0 l 1,20,-1
 42 37 l 1,21,-1
 127 56 l 1,22,-1
 127 714 l 1,23,-1
 42 733 l 1,24,-1
 42 770 l 1,25,-1
 654 770 l 1,26,-1
 673 550 l 1,27,-1
 631 550 l 1,28,29
 617 589 617 589 598.5 631.5 c 128,-1,30
 580 674 580 674 554 713 c 1,31,-1
 299 713 l 1,0,-1
275 965 m 1,32,33
 287 948 287 948 315 940.5 c 128,-1,34
 343 933 343 933 376 933 c 0,35,36
 408 933 408 933 435.5 940.5 c 128,-1,37
 463 948 463 948 480 965 c 1,38,-1
 529 965 l 1,39,40
 516 919 516 919 496.5 892 c 128,-1,41
 477 865 477 865 455 851 c 128,-1,42
 433 837 433 837 411 833 c 128,-1,43
 389 829 389 829 372 829 c 0,44,45
 349 829 349 829 324.5 836 c 128,-1,46
 300 843 300 843 279.5 859 c 128,-1,47
 259 875 259 875 244 901 c 128,-1,48
 229 927 229 927 225 965 c 1,49,-1
 275 965 l 1,32,33
EndSplineSet
EndChar
StartChar: ebreve
Encoding: 277 277 220
Width: 604
Flags: W
LayerCount: 2
Back
Fore
SplineSet
566 290 m 1,0,-1
 202 290 l 1,1,2
 203 93 203 93 359 93 c 0,3,4
 403 93 403 93 448 109.5 c 128,-1,5
 493 126 493 126 522 159 c 2,6,-1
 529 167 l 1,7,-1
 557 143 l 1,8,-1
 552 131 l 2,9,10
 524 63 524 63 458.5 26.5 c 128,-1,11
 393 -10 393 -10 311 -10 c 0,12,13
 249 -10 249 -10 198 9.5 c 128,-1,14
 147 29 147 29 111 64 c 128,-1,15
 75 99 75 99 55.5 148 c 128,-1,16
 36 197 36 197 36 257 c 0,17,18
 36 320 36 320 58 372 c 128,-1,19
 80 424 80 424 119.5 461.5 c 128,-1,20
 159 499 159 499 214 519.5 c 128,-1,21
 269 540 269 540 336 540 c 0,22,23
 451 540 451 540 510.5 478.5 c 128,-1,24
 570 417 570 417 574 296 c 1,25,-1
 566 290 l 1,0,-1
323 489 m 0,26,27
 271 489 271 489 241 450 c 128,-1,28
 211 411 211 411 204 337 c 1,29,-1
 408 345 l 1,30,31
 410 350 410 350 411 360 c 128,-1,32
 412 370 412 370 412 383 c 0,33,34
 412 489 412 489 323 489 c 0,26,27
234 790 m 1,35,36
 246 766 246 766 274 755.5 c 128,-1,37
 302 745 302 745 335 745 c 0,38,39
 367 745 367 745 394.5 755.5 c 128,-1,40
 422 766 422 766 439 790 c 1,41,-1
 488 790 l 1,42,43
 475 740 475 740 455.5 710.5 c 128,-1,44
 436 681 436 681 414 665.5 c 128,-1,45
 392 650 392 650 370 645.5 c 128,-1,46
 348 641 348 641 331 641 c 0,47,48
 308 641 308 641 283.5 648.5 c 128,-1,49
 259 656 259 656 238.5 673.5 c 128,-1,50
 218 691 218 691 203 719.5 c 128,-1,51
 188 748 188 748 184 790 c 1,52,-1
 234 790 l 1,35,36
EndSplineSet
EndChar
StartChar: Edotaccent
Encoding: 278 278 32
Width: 731
Flags: W
LayerCount: 2
Back
Fore
SplineSet
299 713 m 1,0,-1
 299 434 l 1,1,-1
 425 434 l 1,2,3
 442 462 442 462 452 490.5 c 128,-1,4
 462 519 462 519 468 547 c 1,5,-1
 510 547 l 1,6,-1
 510 267 l 1,7,-1
 468 267 l 1,8,9
 462 295 462 295 451.5 323.5 c 128,-1,10
 441 352 441 352 425 380 c 1,11,-1
 299 380 l 1,12,-1
 299 57 l 1,13,-1
 548 57 l 1,14,15
 580 102 580 102 600.5 145.5 c 128,-1,16
 621 189 621 189 639 234 c 1,17,-1
 691 234 l 1,18,-1
 649 0 l 1,19,-1
 42 0 l 1,20,-1
 42 37 l 1,21,-1
 127 56 l 1,22,-1
 127 714 l 1,23,-1
 42 733 l 1,24,-1
 42 770 l 1,25,-1
 654 770 l 1,26,-1
 673 550 l 1,27,-1
 631 550 l 1,28,29
 617 589 617 589 598.5 631.5 c 128,-1,30
 580 674 580 674 554 713 c 1,31,-1
 299 713 l 1,0,-1
310 898 m 256,32,33
 310 924 310 924 328.5 945 c 128,-1,34
 347 966 347 966 381 966 c 256,35,36
 415 966 415 966 434.5 945 c 128,-1,37
 454 924 454 924 454 898 c 256,38,39
 454 872 454 872 435.5 851 c 128,-1,40
 417 830 417 830 381 830 c 0,41,42
 346 830 346 830 328 851 c 128,-1,43
 310 872 310 872 310 898 c 256,32,33
EndSplineSet
EndChar
StartChar: Eogonek
Encoding: 280 280 37
Width: 731
Flags: W
LayerCount: 2
Back
Fore
SplineSet
642 -202 m 1,0,1
 587 -256 587 -256 512 -256 c 0,2,3
 465 -256 465 -256 437.5 -232.5 c 128,-1,4
 410 -209 410 -209 410 -168 c 0,5,6
 410 -129 410 -129 440 -85 c 128,-1,7
 470 -41 470 -41 524 0 c 1,8,-1
 42 0 l 1,9,-1
 42 37 l 1,10,-1
 127 56 l 1,11,-1
 127 714 l 1,12,-1
 42 733 l 1,13,-1
 42 770 l 1,14,-1
 654 770 l 1,15,-1
 673 550 l 1,16,-1
 631 550 l 1,17,18
 617 589 617 589 598.5 631.5 c 128,-1,19
 580 674 580 674 554 713 c 1,20,-1
 299 713 l 1,21,-1
 299 434 l 1,22,-1
 425 434 l 1,23,24
 442 462 442 462 452 490.5 c 128,-1,25
 462 519 462 519 468 547 c 1,26,-1
 510 547 l 1,27,-1
 510 267 l 1,28,-1
 468 267 l 1,29,30
 462 295 462 295 451.5 323.5 c 128,-1,31
 441 352 441 352 425 380 c 1,32,-1
 299 380 l 1,33,-1
 299 57 l 1,34,-1
 548 57 l 1,35,36
 580 102 580 102 600.5 145.5 c 128,-1,37
 621 189 621 189 639 234 c 1,38,-1
 691 234 l 1,39,-1
 649 0 l 1,40,-1
 586 0 l 1,41,42
 523 -69 523 -69 523 -124 c 0,43,44
 523 -181 523 -181 571 -181 c 0,45,46
 585 -181 585 -181 597.5 -176 c 128,-1,47
 610 -171 610 -171 627 -160 c 1,48,-1
 642 -202 l 1,0,1
EndSplineSet
EndChar
StartChar: eogonek
Encoding: 281 281 239
Width: 604
Flags: W
LayerCount: 2
Back
Fore
SplineSet
471 -202 m 1,0,1
 416 -256 416 -256 344 -256 c 0,2,3
 294 -256 294 -256 266.5 -232.5 c 128,-1,4
 239 -209 239 -209 239 -170 c 256,5,6
 239 -131 239 -131 266 -89 c 128,-1,7
 293 -47 293 -47 342 -8 c 1,8,9
 334 -9 334 -9 326 -9.5 c 128,-1,10
 318 -10 318 -10 307 -10 c 0,11,12
 247 -10 247 -10 197 9.5 c 128,-1,13
 147 29 147 29 111 64 c 128,-1,14
 75 99 75 99 55.5 148 c 128,-1,15
 36 197 36 197 36 257 c 0,16,17
 36 320 36 320 58 372 c 128,-1,18
 80 424 80 424 119.5 461.5 c 128,-1,19
 159 499 159 499 214 519.5 c 128,-1,20
 269 540 269 540 336 540 c 0,21,22
 451 540 451 540 510.5 478.5 c 128,-1,23
 570 417 570 417 574 296 c 1,24,-1
 566 290 l 1,25,-1
 202 290 l 1,26,27
 203 93 203 93 358 93 c 0,28,29
 403 93 403 93 448 109.5 c 128,-1,30
 493 126 493 126 522 159 c 2,31,-1
 529 167 l 1,32,-1
 557 143 l 1,33,-1
 552 131 l 2,34,35
 534 88 534 88 499 58.5 c 128,-1,36
 464 29 464 29 426 3 c 0,37,38
 387 -24 387 -24 369.5 -56.5 c 128,-1,39
 352 -89 352 -89 352 -124 c 0,40,41
 352 -181 352 -181 400 -181 c 0,42,43
 414 -181 414 -181 426.5 -176 c 128,-1,44
 439 -171 439 -171 456 -160 c 1,45,-1
 471 -202 l 1,0,1
323 489 m 0,46,47
 271 489 271 489 241 450 c 128,-1,48
 211 411 211 411 204 337 c 1,49,-1
 408 345 l 1,50,51
 410 350 410 350 411 360 c 128,-1,52
 412 370 412 370 412 383 c 0,53,54
 412 489 412 489 323 489 c 0,46,47
EndSplineSet
EndChar
StartChar: Ecaron
Encoding: 282 282 29
Width: 731
Flags: W
LayerCount: 2
Back
Fore
SplineSet
299 713 m 1,0,-1
 299 434 l 1,1,-1
 425 434 l 1,2,3
 442 462 442 462 452 490.5 c 128,-1,4
 462 519 462 519 468 547 c 1,5,-1
 510 547 l 1,6,-1
 510 267 l 1,7,-1
 468 267 l 1,8,9
 462 295 462 295 451.5 323.5 c 128,-1,10
 441 352 441 352 425 380 c 1,11,-1
 299 380 l 1,12,-1
 299 57 l 1,13,-1
 548 57 l 1,14,15
 580 102 580 102 600.5 145.5 c 128,-1,16
 621 189 621 189 639 234 c 1,17,-1
 691 234 l 1,18,-1
 649 0 l 1,19,-1
 42 0 l 1,20,-1
 42 37 l 1,21,-1
 127 56 l 1,22,-1
 127 714 l 1,23,-1
 42 733 l 1,24,-1
 42 770 l 1,25,-1
 654 770 l 1,26,-1
 673 550 l 1,27,-1
 631 550 l 1,28,29
 617 589 617 589 598.5 631.5 c 128,-1,30
 580 674 580 674 554 713 c 1,31,-1
 299 713 l 1,0,-1
382 821 m 0,32,33
 362 821 362 821 346 829 c 128,-1,34
 330 837 330 837 310 854 c 2,35,-1
 208 938 l 1,36,-1
 224 960 l 1,37,-1
 381 919 l 1,38,-1
 538 960 l 1,39,-1
 554 938 l 1,40,-1
 450 854 l 2,41,42
 430 837 430 837 414.5 829 c 128,-1,43
 399 821 399 821 382 821 c 0,32,33
EndSplineSet
EndChar
StartChar: ecaron
Encoding: 283 283 221
Width: 604
Flags: W
LayerCount: 2
Back
Fore
SplineSet
566 290 m 1,0,-1
 202 290 l 1,1,2
 203 93 203 93 359 93 c 0,3,4
 403 93 403 93 448 109.5 c 128,-1,5
 493 126 493 126 522 159 c 2,6,-1
 529 167 l 1,7,-1
 557 143 l 1,8,-1
 552 131 l 2,9,10
 524 63 524 63 458.5 26.5 c 128,-1,11
 393 -10 393 -10 311 -10 c 0,12,13
 249 -10 249 -10 198 9.5 c 128,-1,14
 147 29 147 29 111 64 c 128,-1,15
 75 99 75 99 55.5 148 c 128,-1,16
 36 197 36 197 36 257 c 0,17,18
 36 320 36 320 58 372 c 128,-1,19
 80 424 80 424 119.5 461.5 c 128,-1,20
 159 499 159 499 214 519.5 c 128,-1,21
 269 540 269 540 336 540 c 0,22,23
 451 540 451 540 510.5 478.5 c 128,-1,24
 570 417 570 417 574 296 c 1,25,-1
 566 290 l 1,0,-1
323 489 m 0,26,27
 271 489 271 489 241 450 c 128,-1,28
 211 411 211 411 204 337 c 1,29,-1
 408 345 l 1,30,31
 410 350 410 350 411 360 c 128,-1,32
 412 370 412 370 412 383 c 0,33,34
 412 489 412 489 323 489 c 0,26,27
330 630 m 0,35,36
 306 630 306 630 289.5 641 c 128,-1,37
 273 652 273 652 260 678 c 2,38,-1
 176 847 l 1,39,-1
 207 859 l 1,40,-1
 329 743 l 1,41,-1
 451 859 l 1,42,-1
 482 847 l 1,43,-1
 396 678 l 2,44,45
 382 652 382 652 367.5 641 c 128,-1,46
 353 630 353 630 330 630 c 0,35,36
EndSplineSet
EndChar
StartChar: Gcircumflex
Encoding: 284 284 45
Width: 855
Flags: W
LayerCount: 2
Back
Fore
SplineSet
749 81 m 1,0,1
 725 61 725 61 689.5 44.5 c 128,-1,2
 654 28 654 28 611.5 16 c 128,-1,3
 569 4 569 4 523 -3 c 128,-1,4
 477 -10 477 -10 434 -10 c 0,5,6
 346 -10 346 -10 274.5 17.5 c 128,-1,7
 203 45 203 45 152 95 c 128,-1,8
 101 145 101 145 73 216 c 128,-1,9
 45 287 45 287 45 373 c 0,10,11
 45 463 45 463 74.5 537.5 c 128,-1,12
 104 612 104 612 157.5 666 c 128,-1,13
 211 720 211 720 284.5 750 c 128,-1,14
 358 780 358 780 446 780 c 0,15,16
 513 780 513 780 571.5 764 c 128,-1,17
 630 748 630 748 667 719 c 1,18,-1
 671 719 l 1,19,-1
 715 770 l 1,20,-1
 747 770 l 1,21,-1
 747 525 l 1,22,-1
 702 525 l 1,23,24
 676 579 676 579 650.5 616 c 128,-1,25
 625 653 625 653 597 676 c 128,-1,26
 569 699 569 699 536.5 709.5 c 128,-1,27
 504 720 504 720 464 720 c 0,28,29
 237 720 237 720 237 377 c 0,30,31
 237 291 237 291 249 228.5 c 128,-1,32
 261 166 261 166 285 126 c 128,-1,33
 309 86 309 86 346 67 c 128,-1,34
 383 48 383 48 434 48 c 0,35,36
 478 48 478 48 513 63.5 c 128,-1,37
 548 79 548 79 566 105 c 0,38,39
 573 115 573 115 575 126 c 128,-1,40
 577 137 577 137 577 161 c 2,41,-1
 577 330 l 1,42,-1
 487 349 l 1,43,-1
 487 386 l 1,44,-1
 838 386 l 1,45,-1
 838 349 l 1,46,-1
 749 330 l 1,47,-1
 749 81 l 1,0,1
447 960 m 0,48,49
 464 960 464 960 479.5 952 c 128,-1,50
 495 944 495 944 515 927 c 2,51,-1
 619 843 l 1,52,-1
 603 821 l 1,53,-1
 446 862 l 1,54,-1
 289 821 l 1,55,-1
 273 843 l 1,56,-1
 375 927 l 2,57,58
 395 944 395 944 411 952 c 128,-1,59
 427 960 427 960 447 960 c 0,48,49
EndSplineSet
EndChar
StartChar: Gdotaccent
Encoding: 288 288 47
Width: 855
Flags: W
LayerCount: 2
Back
Fore
SplineSet
749 81 m 1,0,1
 725 61 725 61 689.5 44.5 c 128,-1,2
 654 28 654 28 611.5 16 c 128,-1,3
 569 4 569 4 523 -3 c 128,-1,4
 477 -10 477 -10 434 -10 c 0,5,6
 346 -10 346 -10 274.5 17.5 c 128,-1,7
 203 45 203 45 152 95 c 128,-1,8
 101 145 101 145 73 216 c 128,-1,9
 45 287 45 287 45 373 c 0,10,11
 45 463 45 463 74.5 537.5 c 128,-1,12
 104 612 104 612 157.5 666 c 128,-1,13
 211 720 211 720 284.5 750 c 128,-1,14
 358 780 358 780 446 780 c 0,15,16
 513 780 513 780 571.5 764 c 128,-1,17
 630 748 630 748 667 719 c 1,18,-1
 671 719 l 1,19,-1
 715 770 l 1,20,-1
 747 770 l 1,21,-1
 747 525 l 1,22,-1
 702 525 l 1,23,24
 676 579 676 579 650.5 616 c 128,-1,25
 625 653 625 653 597 676 c 128,-1,26
 569 699 569 699 536.5 709.5 c 128,-1,27
 504 720 504 720 464 720 c 0,28,29
 237 720 237 720 237 377 c 0,30,31
 237 291 237 291 249 228.5 c 128,-1,32
 261 166 261 166 285 126 c 128,-1,33
 309 86 309 86 346 67 c 128,-1,34
 383 48 383 48 434 48 c 0,35,36
 478 48 478 48 513 63.5 c 128,-1,37
 548 79 548 79 566 105 c 0,38,39
 573 115 573 115 575 126 c 128,-1,40
 577 137 577 137 577 161 c 2,41,-1
 577 330 l 1,42,-1
 487 349 l 1,43,-1
 487 386 l 1,44,-1
 838 386 l 1,45,-1
 838 349 l 1,46,-1
 749 330 l 1,47,-1
 749 81 l 1,0,1
379 898 m 256,48,49
 379 924 379 924 397.5 945 c 128,-1,50
 416 966 416 966 450 966 c 256,51,52
 484 966 484 966 503.5 945 c 128,-1,53
 523 924 523 924 523 898 c 256,54,55
 523 872 523 872 504.5 851 c 128,-1,56
 486 830 486 830 450 830 c 0,57,58
 415 830 415 830 397 851 c 128,-1,59
 379 872 379 872 379 898 c 256,48,49
EndSplineSet
EndChar
StartChar: Gcommaaccent
Encoding: 290 290 46
Width: 855
Flags: W
LayerCount: 2
Back
Fore
SplineSet
749 81 m 1,0,1
 725 61 725 61 689.5 44.5 c 128,-1,2
 654 28 654 28 611.5 16 c 128,-1,3
 569 4 569 4 523 -3 c 128,-1,4
 477 -10 477 -10 434 -10 c 0,5,6
 346 -10 346 -10 274.5 17.5 c 128,-1,7
 203 45 203 45 152 95 c 128,-1,8
 101 145 101 145 73 216 c 128,-1,9
 45 287 45 287 45 373 c 0,10,11
 45 463 45 463 74.5 537.5 c 128,-1,12
 104 612 104 612 157.5 666 c 128,-1,13
 211 720 211 720 284.5 750 c 128,-1,14
 358 780 358 780 446 780 c 0,15,16
 513 780 513 780 571.5 764 c 128,-1,17
 630 748 630 748 667 719 c 1,18,-1
 671 719 l 1,19,-1
 715 770 l 1,20,-1
 747 770 l 1,21,-1
 747 525 l 1,22,-1
 702 525 l 1,23,24
 676 579 676 579 650.5 616 c 128,-1,25
 625 653 625 653 597 676 c 128,-1,26
 569 699 569 699 536.5 709.5 c 128,-1,27
 504 720 504 720 464 720 c 0,28,29
 237 720 237 720 237 377 c 0,30,31
 237 291 237 291 249 228.5 c 128,-1,32
 261 166 261 166 285 126 c 128,-1,33
 309 86 309 86 346 67 c 128,-1,34
 383 48 383 48 434 48 c 0,35,36
 478 48 478 48 513 63.5 c 128,-1,37
 548 79 548 79 566 105 c 0,38,39
 573 115 573 115 575 126 c 128,-1,40
 577 137 577 137 577 161 c 2,41,-1
 577 330 l 1,42,-1
 487 349 l 1,43,-1
 487 386 l 1,44,-1
 838 386 l 1,45,-1
 838 349 l 1,46,-1
 749 330 l 1,47,-1
 749 81 l 1,0,1
376 -236 m 1,48,49
 391 -222 391 -222 400.5 -205.5 c 128,-1,50
 410 -189 410 -189 410 -178 c 256,51,52
 410 -167 410 -167 402.5 -160.5 c 128,-1,53
 395 -154 395 -154 386.5 -147 c 128,-1,54
 378 -140 378 -140 370.5 -130.5 c 128,-1,55
 363 -121 363 -121 363 -105 c 0,56,57
 363 -82 363 -82 382 -67 c 128,-1,58
 401 -52 401 -52 430 -52 c 0,59,60
 462 -52 462 -52 480 -73 c 128,-1,61
 498 -94 498 -94 498 -130 c 0,62,63
 498 -172 498 -172 472.5 -206 c 128,-1,64
 447 -240 447 -240 399 -260 c 1,65,-1
 376 -236 l 1,48,49
EndSplineSet
EndChar
